<svg width="120" height="62" viewBox="0 0 120 62" fill="none" xmlns="http://www.w3.org/2000/svg">
<path d="M59.2123 61.6169C59.5537 62.051 60.1823 62.1262 60.6165 61.7848L67.6912 56.2217C68.1253 55.8803 68.2005 55.2516 67.8591 54.8175C67.5177 54.3834 66.8891 54.3082 66.4549 54.6495L60.1663 59.5946L55.2213 53.3059C54.8799 52.8718 54.2512 52.7966 53.8171 53.138C53.3829 53.4794 53.3077 54.1081 53.6491 54.5422L59.2123 61.6169ZM115.999 16.4997L114.999 16.4996L114.999 16.4997L115.999 16.4997ZM19.0647 1.35497C19.4291 2.31145 20.2406 3.05333 21.22 3.64417C22.2133 4.2434 23.4944 4.75655 24.9837 5.20614C27.9653 6.10622 31.9549 6.80186 36.5654 7.36645C45.7947 8.49664 57.7089 9.12335 69.4463 9.74784C81.2098 10.3737 92.7918 10.9972 101.433 12.1164C105.762 12.677 109.288 13.3545 111.71 14.1946C112.926 14.6163 113.794 15.0556 114.341 15.492C114.879 15.9221 114.999 16.2569 114.999 16.4996L116.999 16.4998C116.999 15.4301 116.4 14.5774 115.589 13.9294C114.786 13.2877 113.673 12.7583 112.366 12.305C109.742 11.395 106.049 10.6974 101.69 10.133C92.9569 9.00192 81.2891 8.37511 69.5526 7.75067C57.7901 7.12485 45.9543 6.50125 36.8085 5.38128C32.2314 4.82079 28.3771 4.14139 25.5617 3.29148C24.1526 2.86608 23.0469 2.4105 22.2531 1.93164C21.4453 1.44438 21.0692 0.998821 20.9336 0.642864L19.0647 1.35497ZM4.99854 31C4.99853 27.8918 5.89609 25.3768 7.42128 23.406C8.95281 21.4269 11.1603 19.942 13.8578 18.981C19.2711 17.0525 26.5467 17.2799 33.7357 19.7578C48.0737 24.6996 61.6892 38.4416 59.0054 60.88L60.9913 61.1175C63.8092 37.5572 49.4248 23.0498 34.3874 17.8669C26.8888 15.2824 19.1328 14.9787 13.1866 17.097C10.2043 18.1595 7.64992 19.8426 5.83959 22.1819C4.0229 24.5294 2.99853 27.4832 2.99854 31L4.99854 31ZM75.9764 33.5415C59.9197 37.7001 41.9517 40.7629 28.0345 40.823C21.0614 40.8531 15.2067 40.1277 11.1318 38.4779C9.10237 37.6562 7.57023 36.6274 6.55012 35.4018C5.54445 34.1935 4.99854 32.7503 4.99854 31L2.99854 31C2.99853 33.2105 3.7036 35.1081 5.01291 36.6812C6.30778 38.237 8.15463 39.4302 10.3812 40.3317C14.8183 42.1282 20.9838 42.8535 28.0432 42.823C42.1909 42.7619 60.3373 39.658 76.4779 35.4776L75.9764 33.5415ZM114.999 16.4997C114.999 16.9745 114.62 17.7571 113.398 18.8347C112.226 19.8684 110.471 21.0034 108.2 22.1995C103.668 24.587 97.2473 27.1303 89.7678 29.5485L90.3831 31.4515C97.9152 29.0163 104.456 26.4321 109.132 23.9691C111.466 22.74 113.378 21.519 114.721 20.3348C116.014 19.1947 116.999 17.8975 116.999 16.4997L114.999 16.4997Z" fill="#AC9AFF"/>
<path d="M76.3224 24.9653C76.4237 24.8535 76.5282 24.7436 76.636 24.6357C77.1194 24.1523 77.6442 23.7354 78.1988 23.385C77.8849 23.2984 77.6027 23.2472 77.3554 23.2285C76.7831 23.1854 76.5324 23.3213 76.4255 23.4282C76.3186 23.5351 76.1827 23.7857 76.2259 24.358C76.2397 24.5417 76.2716 24.7445 76.3224 24.9653ZM91.7257 33.2104C91.7873 33.3334 91.8463 33.4554 91.9028 33.5763C92.3793 34.5974 92.6941 35.5941 92.7616 36.49C92.8289 37.3816 92.656 38.3104 91.9819 38.9845C91.3077 39.6587 90.379 39.8315 89.4874 39.7643C88.7068 39.7054 87.8497 39.4589 86.9666 39.0812L86.964 39.0824C86.8109 39.0169 86.657 38.9475 86.5025 38.8743C84.4695 37.912 82.1435 36.2202 79.9599 34.0366C77.7785 31.8553 76.0881 29.5319 75.1252 27.5004C75.0518 27.3455 74.982 27.1912 74.9163 27.0377L74.9173 27.0355C74.5381 26.1502 74.2906 25.2909 74.2315 24.5085C74.1643 23.6168 74.3372 22.6881 75.0113 22.0139C75.6855 21.3398 76.6142 21.1669 77.5058 21.2342C78.4017 21.3018 79.3984 21.6165 80.4195 22.093C80.5425 22.1505 80.6667 22.2106 80.7918 22.2734C83.7623 21.5247 87.0404 22.3121 89.364 24.6357C91.6882 26.96 92.4755 30.2392 91.7257 33.2104ZM90.6128 35.8039C90.2627 36.3575 89.8465 36.8811 89.364 37.3636C89.257 37.4706 89.1479 37.5744 89.037 37.6749C89.2553 37.7249 89.456 37.7562 89.6378 37.7699C90.2101 37.8131 90.4608 37.6772 90.5677 37.5703C90.6746 37.4634 90.8105 37.2128 90.7673 36.6404C90.7488 36.3949 90.6982 36.1151 90.6128 35.8039ZM76.636 37.3636C74.3724 35.1 73.5667 31.9306 74.2188 29.0221C75.301 31.0029 76.9237 33.1218 78.8992 35.0973C80.8763 37.0744 82.9971 38.6982 84.9794 39.7805C82.0705 40.4334 78.9001 39.6278 76.636 37.3636Z" fill="#CEC3FF"/>
</svg>
