<svg width="97" height="32" viewBox="0 0 97 32" fill="none" xmlns="http://www.w3.org/2000/svg">
<g clip-path="url(#clip0_16070_398)">
<path d="M83.0077 32.0005C82.4914 32.0005 82.069 31.8597 81.7404 31.5781C81.4119 31.3199 81.2124 30.9679 81.142 30.522C81.0951 30.0761 81.1772 29.6067 81.3884 29.1139L83.7822 23.7983V25.6288L77.3753 10.8085C77.1641 10.2922 77.0937 9.81113 77.1641 9.36523C77.2345 8.91933 77.4457 8.5673 77.7977 8.30915C78.1732 8.02753 78.6778 7.88672 79.3115 7.88672C79.8512 7.88672 80.2854 8.0158 80.614 8.27395C80.9425 8.50863 81.2359 8.96627 81.494 9.64685L86.2464 21.5101H85.1903L90.0483 9.61165C90.3064 8.95453 90.6115 8.50863 90.9635 8.27395C91.3155 8.0158 91.7849 7.88672 92.3716 7.88672C92.8879 7.88672 93.2986 8.02753 93.6037 8.30915C93.9088 8.5673 94.0966 8.91933 94.167 9.36523C94.2374 9.78766 94.1552 10.257 93.9205 10.7733L85.3663 30.3108C85.0612 30.9679 84.7327 31.4138 84.3806 31.6485C84.0286 31.8832 83.571 32.0005 83.0077 32.0005Z" fill="#FEFDFF"/>
<path d="M68.023 25.6632C67.3189 25.6632 66.7674 25.4754 66.3685 25.0999C65.993 24.701 65.8052 24.1377 65.8052 23.4102V11.4765H64.1859C63.6227 11.4765 63.1885 11.3357 62.8834 11.0541C62.5783 10.749 62.4258 10.3383 62.4258 9.82201C62.4258 9.28223 62.5783 8.87154 62.8834 8.58992C63.1885 8.30829 63.6227 8.16748 64.1859 8.16748H67.0725L65.8052 9.32917V8.13228C65.8052 5.71504 66.4154 3.90797 67.6358 2.71108C68.8561 1.49072 70.6163 0.774936 72.9162 0.56372L74.113 0.458114C74.5824 0.411176 74.9579 0.493315 75.2395 0.704531C75.5211 0.892279 75.7089 1.15043 75.8028 1.47899C75.8966 1.78408 75.9084 2.1009 75.838 2.42946C75.7676 2.75802 75.615 3.05137 75.3803 3.30952C75.1691 3.54421 74.8875 3.67328 74.5355 3.69675L74.0426 3.73196C72.7049 3.82583 71.731 4.16612 71.1208 4.75283C70.5106 5.33954 70.2056 6.23134 70.2056 7.42823V8.73073L69.6423 8.16748H73.1978C73.761 8.16748 74.1952 8.30829 74.5003 8.58992C74.8054 8.87154 74.9579 9.28223 74.9579 9.82201C74.9579 10.3383 74.8054 10.749 74.5003 11.0541C74.1952 11.3357 73.761 11.4765 73.1978 11.4765H70.2056V23.4102C70.2056 24.9122 69.478 25.6632 68.023 25.6632Z" fill="#FEFDFF"/>
<path d="M57.3325 25.6275C56.6285 25.6275 56.0887 25.4163 55.7132 24.9939C55.3377 24.5714 55.15 23.9847 55.15 23.2337V10.3144C55.15 9.53991 55.3377 8.9532 55.7132 8.55423C56.0887 8.1318 56.6285 7.92059 57.3325 7.92059C58.0366 7.92059 58.5764 8.1318 58.9519 8.55423C59.3508 8.9532 59.5503 9.53991 59.5503 10.3144V23.2337C59.5503 23.9847 59.3625 24.5714 58.9871 24.9939C58.6116 25.4163 58.0601 25.6275 57.3325 25.6275ZM57.3325 4.64674C56.5111 4.64674 55.8658 4.44726 55.3964 4.0483C54.9505 3.62587 54.7275 3.05089 54.7275 2.32337C54.7275 1.57238 54.9505 0.997406 55.3964 0.598443C55.8658 0.199481 56.5111 0 57.3325 0C58.1774 0 58.8228 0.199481 59.2687 0.598443C59.7146 0.997406 59.9375 1.57238 59.9375 2.32337C59.9375 3.05089 59.7146 3.62587 59.2687 4.0483C58.8228 4.44726 58.1774 4.64674 57.3325 4.64674Z" fill="#FEFDFF"/>
<path d="M30.4023 2.49902C30.4023 1.77149 30.5901 1.21999 30.9656 0.844493C31.3411 0.468998 31.8809 0.28125 32.5849 0.28125C33.289 0.28125 33.8287 0.468998 34.2042 0.844493C34.6032 1.21999 34.8027 1.77149 34.8027 2.49902V11.6517V17.6007H30.4023V2.49902Z" fill="#FEFDFF"/>
<path d="M1.99572 25.6623C1.43248 25.6623 0.974842 25.5333 0.622815 25.2751C0.294258 25.017 0.0947763 24.6767 0.024371 24.2542C-0.0460342 23.8083 0.0361052 23.3155 0.270789 22.7757L9.56428 2.18219C9.86937 1.50161 10.2331 1.02051 10.6556 0.738884C11.1015 0.433795 11.606 0.28125 12.1693 0.28125C12.709 0.28125 13.1901 0.433795 13.6126 0.738884C14.0585 1.02051 14.434 1.50161 14.7391 2.18219L24.0678 22.7757C24.3259 23.3155 24.4198 23.8083 24.3494 24.2542C24.279 24.7001 24.0795 25.0522 23.7509 25.3103C23.4224 25.545 22.9882 25.6623 22.4484 25.6623C21.7913 25.6623 21.275 25.5098 20.8995 25.2047C20.5475 24.8761 20.2307 24.3833 19.9491 23.7262L17.6609 18.4106L19.5618 19.6427H4.70632L6.60726 18.4106L4.35429 23.7262C4.0492 24.4068 3.73238 24.8996 3.40382 25.2047C3.07526 25.5098 2.6059 25.6623 1.99572 25.6623ZM12.0989 5.45603L7.1705 17.1785L6.25523 16.052H18.0129L17.1328 17.1785L12.1693 5.45603H12.0989Z" fill="#FEFDFF"/>
<path d="M49.2298 16.7213C49.2298 19.211 48.2408 21.5987 46.4803 23.3592C44.7198 25.1197 42.3321 26.1087 39.8424 26.1087C37.3528 26.1087 34.965 25.1197 33.2046 23.3592C31.4441 21.5987 30.4551 19.211 30.4551 16.7213C30.4551 14.2317 31.4441 11.844 33.2046 10.0835C34.965 8.32301 37.3528 7.33398 39.8424 7.33398C42.3321 7.33398 44.7198 8.32301 46.4803 10.0835C48.2408 11.844 49.2298 14.2317 49.2298 16.7213Z" fill="#FEFDFF"/>
<path d="M46.5454 9.03909C47.7739 8.81262 48.8993 8.73517 49.8274 8.86073C50.731 8.98159 51.6298 9.32188 52.1226 10.1092C52.646 10.9471 52.4887 11.9187 52.1086 12.7588C51.7213 13.6131 51.0314 14.5178 50.1466 15.4201C48.3677 17.2354 45.6454 19.2056 42.4055 20.9317C39.1634 22.659 35.9576 23.8465 33.3773 24.3581C32.0924 24.6127 30.9154 24.7089 29.9473 24.5939C29.0086 24.4825 28.0699 24.1445 27.563 23.3325C27.0114 22.4501 27.2156 21.4198 27.6451 20.541C28.0851 19.6398 28.8561 18.6799 29.8417 17.7212L30.4554 17.2096C30.4554 17.4666 30.5528 18.0427 30.6526 18.5544C30.7054 18.8242 30.7582 19.0753 30.7969 19.2537C30.0318 20.0352 29.5085 20.7357 29.2257 21.3142C28.9007 21.9796 28.9816 22.2823 29.0555 22.3997C29.14 22.5358 29.4134 22.7575 30.155 22.8455C30.8697 22.9312 31.8448 22.8667 33.0358 22.6308C35.4061 22.1614 38.4488 21.0455 41.5783 19.3781C44.7078 17.7107 47.2694 15.8402 48.8887 14.1881C49.703 13.3584 50.2381 12.6227 50.5045 12.0337C50.7779 11.4293 50.7005 11.1536 50.6301 11.0433C50.5479 10.9119 50.2909 10.6983 49.5939 10.6044C48.9579 10.5199 48.1013 10.5563 47.0558 10.7359L45.5574 9.27729C45.954 9.15878 46.3295 9.07781 46.5454 9.03909Z" fill="#6444F4"/>
<path fill-rule="evenodd" clip-rule="evenodd" d="M49.8274 8.86073C48.8993 8.73517 47.7739 8.81262 46.5454 9.03909C46.3295 9.07781 45.954 9.15878 45.5574 9.27729L47.0558 10.7359C48.1013 10.5563 48.9579 10.5199 49.5939 10.6044C50.2909 10.6983 50.5479 10.9119 50.63 11.0433C50.7005 11.1536 50.7779 11.4293 50.5045 12.0337C50.2381 12.6227 49.703 13.3584 48.8887 14.1881C49.0798 14.8212 49.2309 16 49.2309 16.2937C49.5587 15.9997 49.8645 15.708 50.1466 15.4201C51.0314 14.5178 51.7213 13.6131 52.1086 12.7588C52.4887 11.9187 52.646 10.9471 52.1226 10.1092C51.6298 9.32188 50.731 8.98159 49.8274 8.86073ZM34.1554 24.1878C33.8797 23.9381 33.0155 23.0973 32.6178 22.7081C31.6153 22.88 30.7842 22.921 30.155 22.8456C29.4134 22.7575 29.14 22.5358 29.0555 22.3997C28.9816 22.2823 28.9007 21.9796 29.2257 21.3142C29.5085 20.7357 30.0318 20.0352 30.7969 19.2537C30.7582 19.0754 30.7054 18.8242 30.6526 18.5544C30.5528 18.0427 30.4554 17.4666 30.4554 17.2096L29.8417 17.7212C28.8561 18.6799 28.0851 19.6398 27.6451 20.541C27.2156 21.4198 27.0114 22.4501 27.563 23.3325C28.0699 24.1445 29.0086 24.4825 29.9473 24.5939C30.9154 24.7089 32.0924 24.6127 33.3772 24.3581C33.6308 24.3078 33.8904 24.251 34.1554 24.1878Z" fill="#FEFDFF"/>
<path d="M41.5783 19.3781C38.4488 21.0455 35.4061 22.1614 33.0358 22.6308C32.8934 22.659 32.754 22.6848 32.6178 22.7081C33.0155 23.0973 33.8797 23.9381 34.1554 24.1878C36.5879 23.6079 39.4819 22.4893 42.4055 20.9317C45.1316 19.4793 47.4914 17.8541 49.2309 16.2937C49.2309 16 49.0798 14.8212 48.8887 14.1881C47.2694 15.8402 44.7078 17.7107 41.5783 19.3781Z" fill="#6444F4"/>
<path d="M49.5674 10.8027C48.9587 10.7218 48.1241 10.7553 47.0897 10.933L46.9893 10.9502L46.9163 10.8792L45.4179 9.42061L45.1739 9.18314L45.5001 9.08566C45.9046 8.96479 46.2873 8.8822 46.5096 8.84231C47.7487 8.61394 48.8968 8.53307 49.8539 8.66249L49.5674 10.8027ZM49.5674 10.8027C50.2396 10.8932 50.4245 11.0917 50.4604 11.1493L50.4615 11.1509C50.4795 11.1791 50.5829 11.3752 50.3223 11.9512L50.3223 11.9513C50.0712 12.5066 49.559 13.2172 48.762 14.0316C48.7566 14.0371 48.7513 14.0425 48.746 14.048L48.7459 14.0481C48.7403 14.0537 48.7348 14.0593 48.7293 14.0649C47.1271 15.6946 44.5905 17.5465 41.4842 19.2016C38.3675 20.8622 35.3435 21.97 32.9969 22.4346L33.0358 22.6308L32.9969 22.4346C32.8561 22.4625 32.7185 22.4879 32.5841 22.511C31.5921 22.681 30.7819 22.7193 30.1788 22.647L30.1786 22.6469C29.46 22.5617 29.2622 22.3534 29.2255 22.2942L29.2248 22.293C29.2049 22.2615 29.0933 22.0408 29.4054 21.4021L49.5674 10.8027ZM30.8488 18.516C30.7479 17.9981 30.6554 17.4431 30.6554 17.2096V16.7825L30.3274 17.056L29.7137 17.5676L29.7078 17.5725L29.7023 17.5779C28.7085 18.5445 27.9196 19.5229 27.4654 20.4532C27.0245 21.3555 26.7872 22.4686 27.3934 23.4385C27.9484 24.3276 28.9633 24.6785 29.9238 24.7926M30.8488 18.516L33.3772 24.3581C33.5552 24.3228 33.7361 24.2843 33.9199 24.2426C33.9589 24.2791 33.993 24.3106 34.0211 24.3361L34.099 24.4066M30.8488 18.516C30.9013 18.7842 30.9539 19.034 30.9923 19.2113M30.8488 18.516L30.9923 19.2113M29.9238 24.7926C29.9238 24.7926 29.9238 24.7926 29.9238 24.7926L29.9473 24.5939L29.9238 24.7926ZM29.9238 24.7926C30.9206 24.911 32.1204 24.8111 33.4161 24.5543L33.4161 24.5543C33.6394 24.51 33.8672 24.4608 34.099 24.4066M34.099 24.4066L34.0992 24.4068L34.2018 24.3824C34.1674 24.3906 34.1332 24.3987 34.099 24.4066ZM49.3646 16.4425L49.4309 16.383V16.3828C49.7366 16.1064 50.0233 15.8317 50.2894 15.5602C51.1824 14.6494 51.89 13.7255 52.2907 12.8414L52.2908 12.8413C52.6828 11.9748 52.8673 10.9239 52.2923 10.0033L52.2922 10.0031C51.7526 9.14107 50.7806 8.7865 49.8542 8.66253L49.3646 16.4425ZM49.3646 16.4425C49.3646 16.4425 49.3645 16.4426 49.3645 16.4426C49.3645 16.4426 49.3644 16.4427 49.3644 16.4427L49.0309 16.7418V16.7361C47.3147 18.2179 45.0671 19.7403 42.4996 21.1082L42.4055 20.9317L42.4996 21.1082C39.7089 22.595 36.9413 23.6856 34.5682 24.2919L34.5709 24.2944L34.2018 24.3824L49.3646 16.4425ZM31.0152 19.3166L30.9398 19.3936C30.1826 20.1671 29.6752 20.8502 29.4054 21.402L31.0152 19.3166ZM31.0152 19.3166L30.9923 19.2113M31.0152 19.3166L30.9923 19.2113" stroke="#FEFDFF" stroke-width="0.4"/>
</g>
<defs>
<clipPath id="clip0_16070_398">
<rect width="96.1916" height="32" fill="white"/>
</clipPath>
</defs>
</svg>
