<svg width="48" height="48" viewBox="0 0 48 48" fill="none" xmlns="http://www.w3.org/2000/svg">
<rect width="48" height="48" rx="24" fill="#F0ECFF"/>
<path fill-rule="evenodd" clip-rule="evenodd" d="M23.9987 12C23.4117 12 22.8411 12.1937 22.3754 12.5511C21.9097 12.9084 21.5749 13.4095 21.423 13.9765C21.2711 14.5435 21.3105 15.1448 21.5351 15.6871C21.7597 16.2294 22.157 16.6825 22.6654 16.976V18.6667H18.6654C14.3987 18.6667 13.332 22.2227 13.332 24V33.3333C13.332 34.2227 13.8654 36 15.9987 36H17.332V30.6667C17.332 30.313 17.4725 29.9739 17.7226 29.7239C17.9726 29.4738 18.3117 29.3333 18.6654 29.3333H29.332C29.6857 29.3333 30.0248 29.4738 30.2748 29.7239C30.5249 29.9739 30.6654 30.313 30.6654 30.6667V36H31.9987C34.132 36 34.6654 34.2227 34.6654 33.3333V24C34.6654 19.7333 31.1094 18.6667 29.332 18.6667H25.332V16.976C25.8404 16.6825 26.2377 16.2294 26.4623 15.6871C26.6869 15.1448 26.7263 14.5435 26.5744 13.9765C26.4224 13.4095 26.0877 12.9084 25.622 12.5511C25.1563 12.1937 24.5857 12 23.9987 12ZM27.9987 36V32H25.332V36H27.9987ZM22.6654 36V32H19.9987V36H22.6654ZM35.9987 32V25.3333C36.888 25.3333 38.6654 25.8667 38.6654 28V29.3333C38.6654 30.2227 38.132 32 35.9987 32ZM11.9987 25.3333V32C9.86536 32 9.33203 30.2227 9.33203 29.3333V28C9.33203 25.8667 11.1094 25.3333 11.9987 25.3333ZM19.9987 24C19.6451 24 19.3059 24.1405 19.0559 24.3905C18.8058 24.6406 18.6654 24.9797 18.6654 25.3333C18.6654 25.687 18.8058 26.0261 19.0559 26.2761C19.3059 26.5262 19.6451 26.6667 19.9987 26.6667H20C20.3537 26.6667 20.6928 26.5262 20.9428 26.2761C21.1929 26.0261 21.3334 25.687 21.3334 25.3333C21.3334 24.9797 21.1929 24.6406 20.9428 24.3905C20.6928 24.1405 20.3537 24 20 24H19.9987ZM26.6654 25.3333C26.6654 24.9797 26.8058 24.6406 27.0559 24.3905C27.3059 24.1405 27.6451 24 27.9987 24H28C28.3537 24 28.6928 24.1405 28.9428 24.3905C29.1929 24.6406 29.3334 24.9797 29.3334 25.3333C29.3334 25.687 29.1929 26.0261 28.9428 26.2761C28.6928 26.5262 28.3537 26.6667 28 26.6667H27.9987C27.6451 26.6667 27.3059 26.5262 27.0559 26.2761C26.8058 26.0261 26.6654 25.687 26.6654 25.3333Z" fill="#6444F4"/>
</svg>
