<svg width="48" height="48" viewBox="0 0 48 48" fill="none" xmlns="http://www.w3.org/2000/svg">
<rect width="48" height="48" rx="24" fill="#F0ECFF"/>
<path d="M22.1525 31.7281L23.3227 29.0479C24.3641 26.6628 26.2385 24.7641 28.5767 23.7263L31.7976 22.2965C32.8216 21.842 32.8216 20.3522 31.7976 19.8977L28.6772 18.5126C26.2789 17.448 24.3709 15.4791 23.3473 13.0126L22.162 10.1563C21.7221 9.09634 20.2576 9.09634 19.8177 10.1563L18.6324 13.0125C17.6088 15.4791 15.7007 17.448 13.3025 18.5126L10.1821 19.8977C9.15805 20.3522 9.15805 21.842 10.1821 22.2965L13.4031 23.7263C15.7412 24.7641 17.6156 26.6628 18.657 29.0479L19.8272 31.7281C20.277 32.7583 21.7027 32.7583 22.1525 31.7281ZM33.8685 38.2539L34.1976 37.4996C34.7843 36.1548 35.8409 35.084 37.1593 34.4983L38.1732 34.0477C38.7216 33.8041 38.7216 33.0072 38.1732 32.7636L37.2161 32.3383C35.8637 31.7375 34.7881 30.6271 34.2115 29.2365L33.8736 28.4215C33.638 27.8535 32.8527 27.8535 32.6171 28.4215L32.2792 29.2365C31.7027 30.6271 30.6271 31.7375 29.2747 32.3383L28.3175 32.7636C27.7692 33.0072 27.7692 33.8041 28.3175 34.0477L29.3313 34.4983C30.6499 35.084 31.7064 36.1548 32.2931 37.4996L32.6223 38.2539C32.8631 38.806 33.6276 38.806 33.8685 38.2539Z" fill="#6444F4"/>
</svg>
