<svg width="48" height="48" viewBox="0 0 48 48" fill="none" xmlns="http://www.w3.org/2000/svg">
<rect width="48" height="48" rx="24" fill="#F0ECFF"/>
<path fill-rule="evenodd" clip-rule="evenodd" d="M17.3333 12C18.5159 11.9997 19.6651 12.3925 20.6001 13.1165C21.5352 13.8406 22.203 14.8549 22.4987 16H33.3333V18.6667H22.4987C22.171 19.9207 21.3982 21.0125 20.3244 21.7384C19.2507 22.4643 17.9495 22.7745 16.6637 22.6112C15.378 22.448 14.1956 21.8223 13.3374 20.851C12.4792 19.8798 12.0038 18.6294 12 17.3333C12 15.9188 12.5619 14.5623 13.5621 13.5621C14.5623 12.5619 15.9188 12 17.3333 12ZM17.3333 20C18.0406 20 18.7189 19.719 19.219 19.219C19.719 18.7189 20 18.0406 20 17.3333C20 16.6261 19.719 15.9478 19.219 15.4477C18.7189 14.9476 18.0406 14.6667 17.3333 14.6667C16.6261 14.6667 15.9478 14.9476 15.4477 15.4477C14.9476 15.9478 14.6667 16.6261 14.6667 17.3333C14.6667 18.0406 14.9476 18.7189 15.4477 19.219C15.9478 19.719 16.6261 20 17.3333 20ZM30.6667 34.6667C29.4841 34.667 28.3349 34.2742 27.3999 33.5501C26.4648 32.826 25.797 31.8117 25.5013 30.6667H14.6667V28H25.5013C25.829 26.746 26.6018 25.6541 27.6756 24.9283C28.7493 24.2024 30.0505 23.8921 31.3363 24.0554C32.6221 24.2187 33.8044 24.8444 34.6626 25.8156C35.5208 26.7869 35.9962 28.0373 36 29.3333C36 30.7478 35.4381 32.1044 34.4379 33.1046C33.4377 34.1048 32.0812 34.6667 30.6667 34.6667ZM30.6667 32C31.3739 32 32.0522 31.719 32.5523 31.219C33.0524 30.7189 33.3333 30.0406 33.3333 29.3333C33.3333 28.6261 33.0524 27.9478 32.5523 27.4477C32.0522 26.9476 31.3739 26.6667 30.6667 26.6667C29.9594 26.6667 29.2811 26.9476 28.781 27.4477C28.281 27.9478 28 28.6261 28 29.3333C28 30.0406 28.281 30.7189 28.781 31.219C29.2811 31.719 29.9594 32 30.6667 32Z" fill="#6444F4"/>
<path d="M30.6667 32C31.3739 32 32.0522 31.719 32.5523 31.219C33.0524 30.7189 33.3333 30.0406 33.3333 29.3333C33.3333 28.6261 33.0524 27.9478 32.5523 27.4477C32.0522 26.9476 31.3739 26.6667 30.6667 26.6667C29.9594 26.6667 29.2811 26.9476 28.781 27.4477C28.281 27.9478 28 28.6261 28 29.3333C28 30.0406 28.281 30.7189 28.781 31.219C29.2811 31.719 29.9594 32 30.6667 32Z" fill="#6444F4"/>
<path d="M17.3333 20C18.0406 20 18.7189 19.719 19.219 19.219C19.719 18.7189 20 18.0406 20 17.3333C20 16.6261 19.719 15.9478 19.219 15.4477C18.7189 14.9476 18.0406 14.6667 17.3333 14.6667C16.6261 14.6667 15.9478 14.9476 15.4477 15.4477C14.9476 15.9478 14.6667 16.6261 14.6667 17.3333C14.6667 18.0406 14.9476 18.7189 15.4477 19.219C15.9478 19.719 16.6261 20 17.3333 20Z" fill="#6444F4"/>
</svg>
