<svg width="48" height="48" viewBox="0 0 48 48" fill="none" xmlns="http://www.w3.org/2000/svg">
<rect width="48" height="48" rx="24" fill="#F0ECFF"/>
<path d="M25.332 9.33398L25.3334 13.4167C30.1576 14.0189 33.9812 17.8428 34.5828 22.6673H38.6654V25.334L34.5827 25.3353C33.9806 30.1592 30.1572 33.9825 25.3334 34.5847L25.332 38.6673H22.6654V34.5848C17.8409 33.9832 14.0169 30.1596 13.4147 25.3353L9.33203 25.334V22.6673H13.4146C14.0162 17.8424 17.8404 14.0181 22.6654 13.4165V9.33398H25.332ZM23.9987 21.334C22.5259 21.334 21.332 22.5279 21.332 24.0007C21.332 25.4734 22.5259 26.6673 23.9987 26.6673C25.4715 26.6673 26.6654 25.4734 26.6654 24.0007C26.6654 22.5279 25.4715 21.334 23.9987 21.334Z" fill="#6444F4"/>
</svg>
