<svg width="48" height="48" viewBox="0 0 48 48" fill="none" xmlns="http://www.w3.org/2000/svg">
<rect width="48" height="48" rx="24" fill="#F0ECFF"/>
<path d="M31.7867 28.8793L32.0214 29.1153L32.258 28.8793C33.4296 27.7077 35.3291 27.7077 36.5007 28.8793C37.6723 30.0509 37.6723 31.9504 36.5007 33.122L32.0224 37.6003L27.544 33.122C26.3724 31.9504 26.3724 30.0509 27.544 28.8793C28.7156 27.7077 30.6151 27.7077 31.7867 28.8793ZM23.9987 26.6673V37.334H13.332C13.332 31.5541 17.9292 26.848 23.6664 26.6724L23.9987 26.6673ZM23.9987 9.33398C28.4187 9.33398 31.9987 12.914 31.9987 17.334C31.9987 21.754 28.4187 25.334 23.9987 25.334C19.5787 25.334 15.9987 21.754 15.9987 17.334C15.9987 12.914 19.5787 9.33398 23.9987 9.33398Z" fill="#6444F4"/>
</svg>
