<svg width="48" height="48" viewBox="0 0 48 48" fill="none" xmlns="http://www.w3.org/2000/svg">
<rect width="48" height="48" rx="24" fill="#F0ECFF"/>
<path d="M33.6182 27.2744C35.4611 27.7046 36.835 29.3586 36.835 31.333V36.833H33.835V29.333C33.835 28.6275 33.7596 27.9385 33.6182 27.2744ZM24.001 23.166C27.4067 23.166 30.168 25.9273 30.168 29.333V36.833H17.835V29.333C17.835 25.9274 20.5954 23.1662 24.001 23.166ZM14.3838 27.2754C14.2425 27.9392 14.168 28.6279 14.168 29.333V36.833H11.168V31.333C11.168 29.3591 12.541 27.7055 14.3838 27.2754ZM15.335 19.166C16.8995 19.1662 18.1678 20.4345 18.168 21.999C18.168 23.5637 16.8996 24.8328 15.335 24.833C13.7702 24.833 12.501 23.5638 12.501 21.999C12.5012 20.4344 13.7703 19.166 15.335 19.166ZM32.668 19.166C34.2327 19.166 35.5008 20.4344 35.501 21.999C35.501 23.5638 34.2328 24.833 32.668 24.833C31.1032 24.833 29.835 23.5638 29.835 21.999C29.8351 20.4344 31.1033 19.166 32.668 19.166ZM24.001 11.166C26.6702 11.166 28.8348 13.3298 28.835 15.999C28.835 18.6684 26.6703 20.833 24.001 20.833C21.3317 20.8328 19.168 18.6683 19.168 15.999C19.1681 13.3299 21.3319 11.1662 24.001 11.166Z" fill="#6444F4" stroke="#6444F4"/>
</svg>
