<svg width="48" height="48" viewBox="0 0 48 48" fill="none" xmlns="http://www.w3.org/2000/svg">
<rect width="48" height="48" rx="24" fill="#F0ECFF"/>
<path d="M18.8 18.6667L19.2 20H28.8L29.2 18.6667H18.8ZM19.2 22.6667C18.6222 22.6667 18.1 22.4947 17.6333 22.1507C17.1667 21.8067 16.8444 21.3564 16.6667 20.8L16 18.6667H14.6667C13.9333 18.6667 13.3058 18.4058 12.784 17.884C12.2622 17.3622 12.0009 16.7342 12 16V12H36V16C36 16.7333 35.7391 17.3613 35.2173 17.884C34.6956 18.4067 34.0676 18.6676 33.3333 18.6667H32L31.1333 20.9333C30.9333 21.4444 30.6111 21.8613 30.1667 22.184C29.7222 22.5067 29.2222 22.6676 28.6667 22.6667H19.2ZM22.6 36L17.8667 31.2667L19.7667 29.4L22.6 32.2333L28.2333 26.5667L30.1333 28.4667L22.6 36Z" fill="#6444F4"/>
</svg>
