<svg width="48" height="48" viewBox="0 0 48 48" fill="none" xmlns="http://www.w3.org/2000/svg">
<rect width="48" height="48" rx="24" fill="#F0ECFF"/>
<path d="M32 18.6673H34.6667C35.4031 18.6673 36 19.2643 36 20.0007V36.0007C36 36.7371 35.4031 37.334 34.6667 37.334H13.3333C12.597 37.334 12 36.7371 12 36.0007V20.0007C12 19.2643 12.597 18.6673 13.3333 18.6673H16V17.334C16 12.9157 19.5817 9.33398 24 9.33398C28.4183 9.33398 32 12.9157 32 17.334V18.6673ZM22.6667 28.9772V32.0007H25.3333V28.9772C26.1304 28.5161 26.6667 27.6544 26.6667 26.6673C26.6667 25.1945 25.4728 24.0007 24 24.0007C22.5272 24.0007 21.3333 25.1945 21.3333 26.6673C21.3333 27.6544 21.8696 28.5161 22.6667 28.9772ZM29.3333 18.6673V17.334C29.3333 14.3885 26.9455 12.0007 24 12.0007C21.0545 12.0007 18.6667 14.3885 18.6667 17.334V18.6673H29.3333Z" fill="#6444F4"/>
</svg>
