<svg width="48" height="48" viewBox="0 0 48 48" fill="none" xmlns="http://www.w3.org/2000/svg">
<rect width="48" height="48" rx="24" fill="#F0ECFF"/>
<path d="M35.9993 12H11.9993C11.263 12 10.666 12.597 10.666 13.3333V34.6667C10.666 35.4031 11.263 36 11.9993 36H35.9993C36.7358 36 37.3327 35.4031 37.3327 34.6667V13.3333C37.3327 12.597 36.7358 12 35.9993 12ZM23.9993 29.3333C21.7901 29.3333 19.9993 27.5425 19.9993 25.3333H13.3327V14.6667H34.666V25.3333H27.9993C27.9993 27.5425 26.2085 29.3333 23.9993 29.3333ZM29.3327 22.6667H25.3327V26.6667H22.666V22.6667H18.666L23.9993 16.6667L29.3327 22.6667Z" fill="#6444F4"/>
</svg>
