<svg width="44" height="44" viewBox="0 0 44 44" fill="none" xmlns="http://www.w3.org/2000/svg">
<path d="M28.2377 38.5V25.7297H32.5136L33.1536 20.7653H28.2377V17.5957C28.2377 16.1583 28.6367 15.1788 30.6979 15.1788L33.3269 15.1776V10.7374C32.872 10.677 31.3117 10.5418 29.4961 10.5418C25.7057 10.5418 23.111 12.8553 23.111 17.1041V20.7653H18.8241V25.7297H23.111V38.5H7.33333C6.32082 38.5 5.5 37.6792 5.5 36.6667V7.33333C5.5 6.32082 6.32082 5.5 7.33333 5.5H36.6667C37.6792 5.5 38.5 6.32082 38.5 7.33333V36.6667C38.5 37.6792 37.6792 38.5 36.6667 38.5H28.2377Z" fill="#29138E"/>
</svg>
