<svg width="48" height="48" viewBox="0 0 48 48" fill="none" xmlns="http://www.w3.org/2000/svg">
<rect width="48" height="48" rx="24" fill="#F0ECFF"/>
<path d="M30.0003 15.3333C30.7076 15.3333 31.3858 15.0524 31.8859 14.5523C32.386 14.0522 32.667 13.3739 32.667 12.6667C32.667 11.9594 32.386 11.2811 31.8859 10.781C31.3858 10.281 30.7076 10 30.0003 10C29.2931 10 28.6148 10.281 28.1147 10.781C27.6146 11.2811 27.3337 11.9594 27.3337 12.6667C27.3337 13.3739 27.6146 14.0522 28.1147 14.5523C28.6148 15.0524 29.2931 15.3333 30.0003 15.3333ZM25.2003 33.8667L26.5337 28L29.3337 30.6667V38.6667H32.0003V28.6667L29.2003 26L30.0003 22C30.9139 23.0468 32.0411 23.8859 33.306 24.4609C34.5709 25.0359 35.9442 25.3333 37.3337 25.3333V22.6667C34.987 22.7067 32.8003 21.48 31.6003 19.4667L30.267 17.3333C29.787 16.5333 28.9337 16 28.0003 16C27.6003 16 27.3337 16.1333 26.9337 16.1333L20.0003 19.0667V25.3333H22.667V20.8L25.067 19.8667L22.9337 30.6667L16.4003 29.3333L15.867 32L25.2003 33.8667ZM13.3337 20C12.98 20 12.6409 19.8595 12.3908 19.6095C12.1408 19.3594 12.0003 19.0203 12.0003 18.6667C12.0003 18.313 12.1408 17.9739 12.3908 17.7239C12.6409 17.4738 12.98 17.3333 13.3337 17.3333H17.3337V20H13.3337ZM14.667 14.6667C14.3134 14.6667 13.9742 14.5262 13.7242 14.2761C13.4741 14.0261 13.3337 13.687 13.3337 13.3333C13.3337 12.9797 13.4741 12.6406 13.7242 12.3905C13.9742 12.1405 14.3134 12 14.667 12H21.3337V14.6667H14.667ZM12.0003 25.3333C11.6467 25.3333 11.3076 25.1929 11.0575 24.9428C10.8075 24.6928 10.667 24.3536 10.667 24C10.667 23.6464 10.8075 23.3072 11.0575 23.0572C11.3076 22.8071 11.6467 22.6667 12.0003 22.6667H17.3337V25.3333H12.0003Z" fill="#6444F4"/>
</svg>
