<svg width="48" height="48" viewBox="0 0 48 48" fill="none" xmlns="http://www.w3.org/2000/svg">
<rect width="48" height="48" rx="24" fill="#F0ECFF"/>
<path d="M33.4267 27.8393L36.16 30.5727L28.08 38.666H25.3333V35.9193L33.4267 27.8393ZM36.0533 25.506C36.24 25.506 36.4133 25.586 36.56 25.7327L38.2667 27.4394C38.56 27.7193 38.56 28.186 38.2667 28.466L36.9333 29.7994L34.2 27.066L35.5333 25.7327C35.68 25.586 35.8667 25.506 36.0533 25.506ZM36 19.9993H28V29.3327L25.3333 31.9993V29.3327H22.6667V37.3327H20V19.9993H12V17.3327H36V19.9993ZM24 10.666C25.4667 10.666 26.6667 11.866 26.6667 13.3327C26.6667 14.7993 25.4667 15.9993 24 15.9993C22.5333 15.9993 21.3333 14.7993 21.3333 13.3327C21.3333 11.866 22.5333 10.666 24 10.666Z" fill="#6444F4"/>
</svg>
