<svg width="44" height="44" viewBox="0 0 44 44" fill="none" xmlns="http://www.w3.org/2000/svg">
<path d="M23.8844 3.66797C25.9476 3.67138 26.9931 3.68231 27.8966 3.7092L28.2525 3.72082C28.6635 3.73544 29.069 3.75377 29.558 3.77669C31.5088 3.86683 32.8396 4.17544 34.0084 4.62919C35.2167 5.09516 36.2374 5.7246 37.2563 6.74364C38.2738 7.76266 38.9034 8.78627 39.3709 9.99169C39.823 11.1589 40.1317 12.4911 40.2234 14.4421C40.2452 14.931 40.2628 15.3365 40.2773 15.7476L40.2888 16.1035C40.3156 17.0068 40.3279 18.0525 40.3317 20.1158L40.3332 21.4828C40.3334 21.6498 40.3334 21.8221 40.3334 22L40.3332 22.5171L40.3321 23.8843C40.3286 25.9475 40.3178 26.9932 40.2909 27.8965L40.2791 28.2524C40.2646 28.6636 40.2463 29.0691 40.2234 29.5579C40.1332 31.5089 39.823 32.8395 39.3709 34.0083C38.9049 35.2168 38.2738 36.2374 37.2563 37.2564C36.2374 38.2739 35.2122 38.9033 34.0084 39.3708C32.8396 39.8231 31.5088 40.1316 29.558 40.2233C29.069 40.2451 28.6635 40.2629 28.2525 40.2772L27.8966 40.2887C26.9931 40.3157 25.9476 40.3278 23.8844 40.3318L22.5172 40.3333C22.3502 40.3333 22.1779 40.3333 22.0001 40.3333H21.4829L20.1158 40.332C18.0525 40.3287 17.0068 40.3177 16.1034 40.2908L15.7476 40.2792C15.3365 40.2645 14.931 40.2462 14.4421 40.2233C12.4911 40.1333 11.162 39.8231 9.99169 39.3708C8.78473 38.9049 7.76265 38.2739 6.74362 37.2564C5.7246 36.2374 5.09669 35.2122 4.62919 34.0083C4.17544 32.8395 3.86835 31.5089 3.77669 29.5579C3.75491 29.0691 3.73714 28.6636 3.72275 28.2524L3.71122 27.8965C3.6844 26.9932 3.67217 25.9475 3.66821 23.8843L3.66797 20.1158C3.67138 18.0525 3.68229 17.0068 3.70918 16.1035L3.72082 15.7476C3.73544 15.3365 3.75377 14.931 3.77669 14.4421C3.86681 12.4896 4.17544 11.1604 4.62919 9.99169C5.09515 8.78475 5.7246 7.76266 6.74362 6.74364C7.76265 5.7246 8.78627 5.09669 9.99169 4.62919C11.1604 4.17544 12.4896 3.86835 14.4421 3.77669C14.931 3.75492 15.3365 3.73716 15.7476 3.72277L16.1034 3.71124C17.0068 3.6844 18.0525 3.67217 20.1158 3.66821L23.8844 3.66797ZM22.0001 12.8334C16.9347 12.8334 12.8334 16.9392 12.8334 22C12.8334 27.0653 16.9392 31.1666 22.0001 31.1666C27.0654 31.1666 31.1667 27.0609 31.1667 22C31.1667 16.9347 27.0608 12.8334 22.0001 12.8334ZM22.0001 16.5C25.0377 16.5 27.5001 18.9616 27.5001 22C27.5001 25.0376 25.0384 27.5 22.0001 27.5C18.9624 27.5 16.5 25.0385 16.5 22C16.5 18.9623 18.9615 16.5 22.0001 16.5ZM31.6251 10.0834C30.3613 10.0834 29.3334 11.1099 29.3334 12.3735C29.3334 13.6371 30.3599 14.6652 31.6251 14.6652C32.8886 14.6652 33.9167 13.6387 33.9167 12.3735C33.9167 11.1099 32.8869 10.0818 31.6251 10.0834Z" fill="#29138E"/>
</svg>
