<svg width="44" height="44" viewBox="0 0 44 44" fill="none" xmlns="http://www.w3.org/2000/svg">
<path d="M33.6165 33.6215H28.7298V25.964C28.7298 24.138 28.6927 21.7882 26.1833 21.7882C23.6355 21.7882 23.2463 23.7752 23.2463 25.8293V33.6215H18.3595V17.875H23.0538V20.0213H23.117C23.773 18.7838 25.368 17.4776 27.7508 17.4776C32.7022 17.4776 33.618 20.7365 33.618 24.9783L33.6165 33.6215ZM12.8403 15.7204C11.2673 15.7204 10.0037 14.4471 10.0037 12.881C10.0037 11.3163 11.2687 10.0444 12.8403 10.0444C14.4078 10.0444 15.6783 11.3163 15.6783 12.881C15.6783 14.4471 14.4065 15.7204 12.8403 15.7204ZM15.2906 33.6215H10.3901V17.875H15.2906V33.6215ZM36.0613 5.5H7.93708C6.59095 5.5 5.50195 6.56425 5.50195 7.87738V36.1227C5.50195 37.437 6.59095 38.5 7.93708 38.5H36.0572C37.402 38.5 38.502 37.437 38.502 36.1227V7.87738C38.502 6.56425 37.402 5.5 36.0572 5.5H36.0613Z" fill="#29138E"/>
<path d="M12.8403 15.7204C11.2673 15.7204 10.0037 14.4471 10.0037 12.881C10.0037 11.3163 11.2687 10.0444 12.8403 10.0444C14.4078 10.0444 15.6783 11.3163 15.6783 12.881C15.6783 14.4471 14.4065 15.7204 12.8403 15.7204Z" fill="#FEFDFF"/>
<path d="M15.2906 33.6215H10.3901V17.875H15.2906V33.6215Z" fill="#FEFDFF"/>
<path d="M33.6165 33.6215H28.7298V25.964C28.7298 24.138 28.6927 21.7882 26.1833 21.7882C23.6355 21.7882 23.2463 23.7752 23.2463 25.8293V33.6215H18.3595V17.875H23.0538V20.0213H23.117C23.773 18.7838 25.368 17.4776 27.7508 17.4776C32.7022 17.4776 33.618 20.7365 33.618 24.9783L33.6165 33.6215Z" fill="#FEFDFF"/>
</svg>
