<svg width="48" height="48" viewBox="0 0 48 48" fill="none" xmlns="http://www.w3.org/2000/svg">
<rect width="48" height="48" rx="24" fill="#F0ECFF"/>
<path d="M10.7324 25.334H18.0363C18.275 29.6925 19.6765 33.7412 21.936 37.1753C15.9835 36.2503 11.3335 31.3877 10.7324 25.334ZM10.7324 22.6673C11.3335 16.6137 15.9835 11.7512 21.936 10.8262C19.6765 14.2602 18.275 18.309 18.0363 22.6673H10.7324ZM37.2675 22.6673H29.9635C29.7248 18.309 28.3233 14.2602 26.0639 10.8262C32.0164 11.7512 36.6664 16.6137 37.2675 22.6673ZM37.2675 25.334C36.6664 31.3877 32.0164 36.2503 26.0639 37.1753C28.3233 33.7412 29.7248 29.6925 29.9635 25.334H37.2675ZM20.7076 25.334H27.2923C27.0635 29.0445 25.8861 32.4984 23.9999 35.4561C22.1136 32.4984 20.9364 29.0445 20.7076 25.334ZM20.7076 22.6673C20.9364 18.9569 22.1136 15.5031 23.9999 12.5454C25.8861 15.5031 27.0635 18.9569 27.2923 22.6673H20.7076Z" fill="#6444F4"/>
</svg>
