<svg width="48" height="48" viewBox="0 0 48 48" fill="none" xmlns="http://www.w3.org/2000/svg">
<rect width="48" height="48" rx="24" fill="#F0ECFF"/>
<path d="M18.6663 12C16.191 12 13.817 12.9833 12.0667 14.7337C10.3163 16.484 9.33301 18.858 9.33301 21.3333C9.33301 23.8087 10.3163 26.1827 12.0667 27.933C13.817 29.6833 16.191 30.6667 18.6663 30.6667H20.093C19.9654 29.7824 19.9654 28.8843 20.093 28H18.6663C16.8982 28 15.2025 27.2976 13.9523 26.0474C12.7021 24.7971 11.9997 23.1014 11.9997 21.3333C11.9997 19.5652 12.7021 17.8695 13.9523 16.6193C15.2025 15.369 16.8982 14.6667 18.6663 14.6667H29.333C30.3217 14.6665 31.2981 14.8862 32.1914 15.3099C33.0847 15.7336 33.8725 16.3507 34.4979 17.1164C35.1233 17.8822 35.5705 18.7775 35.8072 19.7374C36.0439 20.6974 36.0641 21.698 35.8663 22.6667C36.6523 23.4365 37.296 24.3393 37.7677 25.3333C38.4425 23.9106 38.7465 22.3402 38.6512 20.7684C38.5558 19.1966 38.0644 17.6744 37.2225 16.3436C36.3807 15.0129 35.2158 13.9167 33.8363 13.1572C32.4569 12.3978 30.9077 11.9997 29.333 12H18.6663ZM22.6663 29.3333C22.6666 28.2939 22.9099 27.2689 23.3768 26.3402C23.8438 25.4115 24.5214 24.6049 25.3556 23.9848C26.1897 23.3646 27.1574 22.9481 28.1812 22.7685C29.205 22.5889 30.2567 22.6512 31.2521 22.9505C32.2476 23.2497 33.1593 23.7775 33.9144 24.4918C34.6695 25.2062 35.2471 26.0872 35.6011 27.0645C35.9551 28.0418 36.0757 29.0883 35.9532 30.1205C35.8307 31.1528 35.4686 32.142 34.8957 33.0093L38.2757 36.3907L36.3903 38.276L33.009 34.896C32.0042 35.5602 30.8381 35.9397 29.6349 35.9942C28.4316 36.0488 27.236 35.7763 26.1752 35.2057C25.1144 34.6352 24.2279 33.7879 23.6101 32.7539C22.9923 31.7199 22.6661 30.5378 22.6663 29.3333Z" fill="#6444F4"/>
</svg>
