<svg width="20" height="20" viewBox="0 0 20 20" fill="none" xmlns="http://www.w3.org/2000/svg">
<path d="M20 14.9996C20 15.5889 19.7659 16.1542 19.3491 16.5709C18.9324 16.9877 18.3671 17.2218 17.7778 17.2218H2.22222C1.63285 17.2218 1.06762 16.9877 0.650874 16.5709C0.234126 16.1542 0 15.5889 0 14.9996V4.99957C0 4.4102 0.234126 3.84496 0.650874 3.42822C1.06762 3.01147 1.63285 2.77734 2.22222 2.77734H17.7778C18.3671 2.77734 18.9324 3.01147 19.3491 3.42822C19.7659 3.84496 20 4.4102 20 4.99957V14.9996Z" fill="#006A4D"/>
<path d="M8.88889 13.6118C11.0367 13.6118 12.7778 11.8706 12.7778 9.72287C12.7778 7.5751 11.0367 5.83398 8.88889 5.83398C6.74111 5.83398 5 7.5751 5 9.72287C5 11.8706 6.74111 13.6118 8.88889 13.6118Z" fill="#F42A41"/>
</svg>
