<svg width="21" height="20" viewBox="0 0 21 20" fill="none" xmlns="http://www.w3.org/2000/svg">
<path d="M0.5 13.4375C0.5 15.3359 1.55406 16.875 3.625 16.875H17.375C18.985 16.875 19.9775 15.9431 20.3406 14.6369L0.5 10.6278V13.4375ZM20.5 6.5625C20.5 4.66406 19.4459 3.125 17.375 3.125H3.625C2.06281 3.125 1.07969 4.00125 0.690938 5.24656L20.5 9.24906V6.5625Z" fill="#F9CB38"/>
<path d="M0.5 8.07672L20.5 12.118V9.24859L0.690938 5.24609C0.564375 5.65141 0.5 6.09578 0.5 6.56203V8.07672Z" fill="#E6E7E8"/>
<path d="M20.5 12.1194L0.5 8.07812V10.6287L20.3406 14.6378C20.4479 14.2471 20.5015 13.8436 20.5 13.4384V12.1194Z" fill="#25333A"/>
<path fill-rule="evenodd" clip-rule="evenodd" d="M10.6177 6.94719C10.5983 6.94 10.5692 6.96969 10.5586 6.92969C10.5784 6.93531 10.5981 6.94115 10.6177 6.94719Z" fill="#D5D0A3"/>
<path fill-rule="evenodd" clip-rule="evenodd" d="M8.79775 8.79687C8.74173 8.89686 8.69688 9.0027 8.664 9.1125C8.52775 9.57625 8.56838 10.0303 8.75588 10.4712C8.91307 10.8422 9.16119 11.1384 9.51025 11.3466C9.73208 11.477 9.97952 11.5578 10.2356 11.5834C10.5318 11.6159 10.8228 11.5912 11.1059 11.4931C11.4971 11.3572 11.7984 11.1087 12.0203 10.7612C12.1894 10.497 12.294 10.1966 12.3256 9.88437C12.3659 9.51187 12.3153 9.1525 12.1378 8.81718C12.1349 8.81187 12.1337 8.80593 12.1315 8.79906C12.1862 8.78843 12.2396 8.77969 12.2924 8.76719C12.3134 8.76187 12.3243 8.77062 12.3381 8.78593C12.5101 8.97956 12.6422 9.20523 12.7268 9.45C12.831 9.74791 12.8749 10.0539 12.8587 10.3678C12.8287 10.9444 12.6446 11.4662 12.2681 11.9097C11.9221 12.3175 11.4803 12.5647 10.9537 12.6584C10.5159 12.7378 10.0812 12.7147 9.65807 12.5766C9.28613 12.4578 8.95317 12.2407 8.69432 11.9484C8.35713 11.5706 8.16307 11.1244 8.09244 10.6262C8.02713 10.1625 8.07275 9.71031 8.26494 9.27843C8.34354 9.0988 8.45077 8.9331 8.58244 8.78781C8.59432 8.77562 8.60182 8.76375 8.62307 8.76968C8.67869 8.78531 8.73494 8.79218 8.79775 8.79687Z" fill="#CE1126"/>
<path fill-rule="evenodd" clip-rule="evenodd" d="M10.947 8.9075C10.7682 8.89625 10.607 8.84094 10.4876 8.69813C10.4642 8.66813 10.4551 8.66687 10.4276 8.69406C10.3229 8.80156 10.1888 8.85 10.0435 8.87406C10.1095 8.8275 10.1776 8.78469 10.2326 8.72469L10.2501 8.70812C10.2601 8.69812 10.2707 8.6875 10.2588 8.67406C10.2454 8.66031 10.2335 8.67219 10.2254 8.68125C10.1863 8.72188 10.1442 8.75938 10.097 8.78875C9.93322 8.89469 9.75572 8.95656 9.55666 8.94344C9.54947 8.94344 9.53979 8.94406 9.5326 8.94156C9.50604 8.93094 9.46604 8.92563 9.46729 8.89094C9.46854 8.86094 9.50791 8.87094 9.52854 8.86688C9.66041 8.8375 9.79041 8.80281 9.91072 8.73875C9.9443 8.72084 9.97557 8.69891 10.0038 8.67344C10.0138 8.66531 10.0238 8.65406 10.0145 8.64C10.0032 8.62469 9.99135 8.63531 9.98135 8.64344C9.9026 8.71281 9.80729 8.75094 9.7101 8.78063C9.51534 8.84206 9.31244 8.87377 9.10822 8.87469C9.06345 8.87407 9.01933 8.86384 8.97885 8.84469C8.96072 8.83531 8.94041 8.82719 8.93166 8.79594C9.01229 8.79656 9.08885 8.79125 9.1676 8.78594C9.29697 8.77594 9.42479 8.75594 9.5476 8.7075C9.57815 8.6958 9.60704 8.68014 9.63354 8.66094C9.64416 8.65313 9.65822 8.64344 9.64541 8.62969C9.6376 8.61813 9.62416 8.62344 9.61541 8.63031C9.50479 8.70094 9.38135 8.72625 9.25479 8.73969C9.05291 8.75969 8.84885 8.78031 8.64572 8.73656C8.61985 8.73166 8.59508 8.72214 8.5726 8.70844C8.55979 8.69969 8.54104 8.69031 8.54572 8.67094C8.55197 8.64688 8.57447 8.65719 8.58791 8.65813C8.6826 8.67031 8.77854 8.6675 8.87322 8.6575C9.0354 8.64116 9.19549 8.60839 9.35104 8.55969C9.3651 8.55563 9.38885 8.55438 9.38166 8.53156C9.37385 8.50969 9.35385 8.52156 9.33822 8.52625C9.1176 8.58875 8.89447 8.63625 8.66385 8.62688C8.56491 8.62459 8.46677 8.6085 8.37229 8.57906C8.35385 8.57281 8.33447 8.56688 8.31791 8.55688C8.29166 8.54094 8.24885 8.5275 8.26041 8.49281C8.2701 8.45969 8.30604 8.48688 8.32822 8.49031C8.51041 8.51156 8.6901 8.49031 8.86947 8.46844C8.88416 8.46625 8.90416 8.46438 8.9026 8.44625C8.89854 8.41844 8.87322 8.42906 8.85791 8.43156C8.70662 8.45516 8.55343 8.46426 8.40041 8.45875C8.30729 8.45406 8.21729 8.43625 8.13916 8.38031C8.12947 8.37219 8.11791 8.365 8.10854 8.35563C8.09104 8.33906 8.06322 8.32375 8.07197 8.29688C8.08041 8.27094 8.11197 8.27156 8.13666 8.27156C8.25197 8.27094 8.36697 8.265 8.48166 8.27219C8.76635 8.29156 9.03291 8.22219 9.29791 8.13219C9.51572 8.05906 9.72791 7.97031 9.94666 7.89969C10.0704 7.85906 10.191 7.86094 10.307 7.91906C10.4135 7.97438 10.5135 7.975 10.6195 7.91656C10.7226 7.86063 10.8326 7.85969 10.9448 7.89531C11.1667 7.96406 11.3801 8.05594 11.5992 8.12938C11.7817 8.19 11.9667 8.24719 12.1576 8.26813C12.2295 8.27531 12.3023 8.27219 12.3748 8.27219C12.5082 8.27281 12.6417 8.27156 12.7748 8.27219C12.7995 8.27219 12.8301 8.27219 12.8379 8.29875C12.8445 8.32344 12.8185 8.33938 12.802 8.35406C12.7179 8.42875 12.6154 8.45469 12.5063 8.45938C12.3583 8.46475 12.21 8.45606 12.0635 8.43344L12.0342 8.43C12.0217 8.42875 12.0082 8.43 12.0054 8.44406C12.0029 8.46063 12.0182 8.46531 12.031 8.46656C12.2232 8.49125 12.416 8.51594 12.6113 8.48469C12.6238 8.48219 12.6413 8.47 12.6504 8.48688C12.6598 8.50563 12.6438 8.51688 12.631 8.52813C12.5832 8.56938 12.5251 8.58563 12.466 8.59875C12.2407 8.64875 12.0179 8.63094 11.7954 8.58344C11.7184 8.56669 11.642 8.54731 11.5663 8.52531C11.5517 8.52063 11.5348 8.51125 11.5292 8.53125C11.522 8.55125 11.5398 8.55594 11.5538 8.55938C11.8004 8.63 12.0476 8.68469 12.307 8.66C12.3242 8.65813 12.3517 8.64531 12.3588 8.67063C12.3679 8.69938 12.3395 8.70875 12.3195 8.71781C12.2764 8.73863 12.2295 8.75023 12.1817 8.75188C11.9151 8.76656 11.6498 8.76719 11.3913 8.67938C11.3587 8.66779 11.3275 8.65237 11.2985 8.63344C11.2879 8.62688 11.2732 8.61875 11.2642 8.63219C11.2513 8.64875 11.2673 8.65813 11.2807 8.66594C11.3701 8.72281 11.4698 8.74813 11.5729 8.76594C11.7048 8.78781 11.8395 8.79594 11.9838 8.79719C11.936 8.86 11.8745 8.87063 11.8132 8.87375C11.6407 8.88094 11.4726 8.85125 11.306 8.81031C11.1695 8.77719 11.0354 8.73719 10.926 8.64313C10.917 8.63531 10.9048 8.63031 10.8948 8.63969C10.8801 8.65313 10.8948 8.66313 10.9032 8.67188C10.9601 8.72781 11.031 8.75781 11.1026 8.78719C11.2038 8.82781 11.3092 8.85313 11.4151 8.87375C11.4254 8.87563 11.4423 8.87125 11.4423 8.88719C11.4423 8.89656 11.4351 8.91063 11.427 8.91656C11.4063 8.93307 11.3809 8.94259 11.3545 8.94375C11.1157 8.95594 10.9092 8.87719 10.7295 8.725C10.7142 8.71313 10.7013 8.69719 10.686 8.68375C10.677 8.67656 10.666 8.66188 10.6529 8.67313C10.6373 8.68625 10.6482 8.69906 10.6588 8.71031C10.7095 8.76344 10.7665 8.80833 10.8298 8.845C10.8673 8.86719 10.9073 8.88625 10.946 8.9075" fill="#CE1126"/>
<path fill-rule="evenodd" clip-rule="evenodd" d="M12.1491 12.8936C11.8823 13.2002 11.5732 13.4408 11.1726 13.5464C10.8254 13.6374 10.4735 13.6558 10.1163 13.6196C9.82414 13.5914 9.54914 13.5133 9.29633 13.3621C9.11789 13.2549 8.96633 13.1161 8.82852 12.9636C8.67664 12.7964 8.5032 12.6618 8.2832 12.5858C8.37039 12.5033 8.40195 12.3999 8.40914 12.2861C8.41383 12.2274 8.43602 12.1714 8.45633 12.1164C8.47883 12.0921 8.49227 12.0614 8.51852 12.0408C8.54633 12.0183 8.5682 12.0161 8.59414 12.0433C8.6407 12.0927 8.68977 12.1386 8.73758 12.1855C8.77227 12.1964 8.79383 12.2246 8.8182 12.2486C9.11883 12.5305 9.4632 12.7355 9.86195 12.8418C10.0995 12.9043 10.3426 12.9264 10.5851 12.9105C10.8276 12.8946 11.0641 12.8471 11.2904 12.7543C11.3191 12.7427 11.3479 12.7318 11.3791 12.728H11.3963C11.4223 12.7158 11.4482 12.723 11.4729 12.7293C11.497 12.7355 11.5201 12.7355 11.5438 12.7258C11.5563 12.7293 11.5532 12.7446 11.5626 12.7511C11.5645 12.7396 11.566 12.7286 11.5732 12.7189C11.5951 12.7118 11.5929 12.7321 11.5991 12.7424C11.6113 12.7608 11.6238 12.7589 11.6363 12.7443C11.657 12.7493 11.6798 12.7589 11.6857 12.7261C11.6998 12.7255 11.7054 12.7361 11.7104 12.7474C11.7145 12.7627 11.7088 12.7805 11.717 12.7946C11.7491 12.8558 11.7235 12.8977 11.672 12.9314C11.6701 12.9339 11.6679 12.9361 11.6666 12.9427C11.7048 12.9258 11.7404 12.9096 11.7826 12.9111C11.7938 12.9118 11.8073 12.9086 11.8085 12.8939C11.8113 12.8793 11.7951 12.8783 11.786 12.8733C11.7379 12.8471 11.7298 12.8318 11.7482 12.7933C11.8288 12.7986 11.9073 12.8164 11.9854 12.8386C12.0135 12.8633 11.9966 12.8893 11.9882 12.9155C11.9691 12.9661 11.9354 13.0086 11.9157 13.0593C11.9576 13.0133 11.9829 12.958 12.0035 12.9005C12.0098 12.8836 12.006 12.8633 12.0248 12.8527C12.0466 12.8539 12.0676 12.8486 12.0879 12.8436C12.0951 12.8539 12.106 12.8589 12.1188 12.8533C12.1332 12.8636 12.1504 12.8724 12.1491 12.8936Z" fill="#CE1226"/>
<path fill-rule="evenodd" clip-rule="evenodd" d="M13.3555 10.6397C13.3555 10.4341 13.3602 10.2288 13.3539 10.0219C13.3509 9.97428 13.36 9.92665 13.3804 9.88352C13.4009 9.84038 13.432 9.80316 13.4708 9.77536C13.6286 9.65473 13.7733 9.52129 13.892 9.36129C13.9196 9.32597 13.957 9.29956 13.9995 9.28536C14.053 9.26536 14.0795 9.28817 14.0683 9.34473C14.0545 9.40378 14.0287 9.45933 13.9923 9.50786C13.9158 9.61848 13.8889 9.74504 13.8608 9.87192C13.8583 9.88254 13.8595 9.89536 13.8602 9.90661C13.8602 9.91661 13.863 9.92786 13.8742 9.92911C13.8808 9.93036 13.8939 9.92567 13.8955 9.92036C13.9686 9.77661 14.1255 9.74036 14.2427 9.65504C14.2798 9.62692 14.3052 9.59817 14.312 9.55286C14.3314 9.43286 14.3839 9.32754 14.4614 9.23504C14.4736 9.22098 14.4827 9.20449 14.488 9.18665C14.4933 9.16882 14.4948 9.15006 14.4923 9.13161C14.4835 9.04901 14.5002 8.96568 14.5402 8.89286C14.5491 8.87732 14.5593 8.86258 14.5708 8.84879C14.5855 8.83192 14.6017 8.80754 14.6264 8.81629C14.6508 8.82473 14.6483 8.85536 14.6489 8.87692C14.6508 8.98411 14.6348 9.09036 14.6183 9.19567C14.5983 9.32629 14.5689 9.45379 14.5367 9.58098C14.4995 9.72911 14.4161 9.84567 14.3077 9.94817C14.2458 10.0063 14.1839 10.066 14.1195 10.1222C14.0792 10.156 14.0467 10.1981 14.0242 10.2456C14.0016 10.2931 13.9896 10.345 13.9889 10.3975C13.9817 10.696 13.9727 10.9932 13.9839 11.291C13.9855 11.3179 13.9761 11.3313 13.9527 11.3447C13.7608 11.4563 13.5661 11.4541 13.368 11.3619C13.3402 11.3491 13.3436 11.3319 13.3436 11.3107V10.6394L13.3555 10.6397ZM7.59765 10.6397C7.59765 10.8613 7.59609 11.0841 7.59828 11.3066C7.5989 11.3422 7.58578 11.3544 7.55421 11.3691C7.36234 11.4575 7.17609 11.4519 6.99171 11.3479C6.96484 11.3319 6.95578 11.3179 6.95703 11.2869C6.96546 10.9682 6.96703 10.6497 6.94421 10.3297C6.93962 10.2788 6.91868 10.2306 6.88453 10.1925C6.82508 10.1221 6.75871 10.0578 6.6864 10.0007C6.50453 9.85067 6.4064 9.65817 6.36609 9.42942C6.33515 9.25473 6.29921 9.08067 6.29203 8.90286C6.2914 8.87223 6.28484 8.82942 6.31546 8.81879C6.34921 8.80817 6.37203 8.84692 6.38859 8.87411C6.43796 8.95067 6.45859 9.03692 6.44859 9.12754C6.44582 9.14866 6.44777 9.17012 6.45431 9.19039C6.46085 9.21066 6.47181 9.22922 6.4864 9.24473C6.5589 9.33411 6.60921 9.43379 6.62765 9.54942C6.63421 9.59598 6.65578 9.63067 6.69921 9.65536C6.77859 9.70067 6.85578 9.75129 6.93453 9.79879C6.97515 9.82411 7.00765 9.85411 7.02921 9.89723C7.0364 9.91317 7.04578 9.93536 7.0664 9.92942C7.09109 9.92223 7.08453 9.89536 7.08046 9.87723C7.05453 9.75379 7.02984 9.62973 6.95671 9.52192C6.92015 9.46723 6.88578 9.41004 6.87328 9.34473C6.8614 9.28879 6.88859 9.26598 6.94203 9.28598C6.98756 9.30155 7.02711 9.33093 7.05515 9.37004C7.16828 9.52192 7.30453 9.65004 7.45421 9.76317C7.54296 9.82973 7.5914 9.91379 7.58703 10.0332C7.57984 10.235 7.58515 10.4379 7.58515 10.64L7.59765 10.6397ZM9.95546 10.046C10.158 10.0541 10.2008 10.2066 10.2655 10.3491C10.2795 10.2913 10.2892 10.2419 10.3033 10.1947C10.328 10.1047 10.3727 10.0254 10.4298 9.95223C10.4539 9.92286 10.4658 9.93098 10.4845 9.95348C10.557 10.0422 10.6017 10.1429 10.6273 10.2541L10.6511 10.351C10.7086 10.2069 10.7536 10.0604 10.9452 10.0491C10.813 10.1997 10.8323 10.3819 10.8183 10.5529C10.8051 10.7306 10.8004 10.9088 10.8042 11.0869C10.8042 11.1163 10.7983 11.14 10.7736 11.1588C10.7398 11.1857 10.7195 11.2247 10.693 11.2657C10.6748 11.2229 10.6589 11.1825 10.6423 11.1441C10.6045 11.0596 10.5492 10.9841 10.4802 10.9225C10.4598 10.9047 10.4495 10.9094 10.4323 10.9257C10.3495 11.0015 10.2875 11.0974 10.2523 11.2041C10.2452 11.2241 10.2377 11.2444 10.2298 11.2694C10.1945 11.2107 10.1589 11.16 10.1061 11.1247C10.088 11.1122 10.0961 11.091 10.0955 11.0741C10.0945 10.881 10.0967 10.6885 10.0927 10.4963C10.0892 10.3988 10.088 10.3022 10.058 10.2085C10.0373 10.1469 10.0021 10.0912 9.95546 10.046Z" fill="#CE1126"/>
<path fill-rule="evenodd" clip-rule="evenodd" d="M10.6353 9.4656C10.6944 9.32747 10.7631 9.2156 10.9056 9.17435C10.8044 9.28435 10.8097 9.42341 10.7984 9.55685C10.7844 9.71091 10.7838 9.86528 10.7844 10.0193C10.7844 10.0465 10.7784 10.0659 10.7572 10.084C10.7144 10.1193 10.6881 10.1675 10.6609 10.2218C10.6309 10.1353 10.6034 10.0537 10.5516 9.98466C10.5322 9.9581 10.5109 9.93278 10.4909 9.90653C10.4663 9.87466 10.4509 9.87122 10.4222 9.90466C10.3424 9.99654 10.2851 10.1058 10.255 10.2237C10.2191 10.1625 10.1869 10.1084 10.1403 10.0643C10.1325 10.0578 10.1356 10.0365 10.1356 10.0218C10.1356 9.8206 10.135 9.6206 10.1144 9.42122C10.1053 9.33403 10.0822 9.2531 10.0244 9.18403C10.1613 9.2206 10.2097 9.34403 10.2816 9.45872C10.2963 9.40935 10.3084 9.37153 10.3181 9.33278C10.3388 9.25685 10.3744 9.1881 10.4175 9.12466C10.45 9.07591 10.4616 9.07685 10.4963 9.12653C10.555 9.2106 10.5903 9.30591 10.6169 9.40466L10.6353 9.4656ZM9.83594 7.5031C9.83532 7.36591 9.87813 7.24122 9.94188 7.12185C9.95938 7.08997 9.97532 7.06778 10.0206 7.09528C10.0788 7.1306 10.1488 7.13528 10.2159 7.14122C10.4153 7.15872 10.6138 7.1631 10.8109 7.12372C10.8416 7.11994 10.8711 7.10972 10.8975 7.09372C10.9328 7.06903 10.9481 7.08716 10.9628 7.11372C11.0203 7.2156 11.0603 7.32435 11.0741 7.4431C11.0813 7.5056 11.0813 7.56685 11.0669 7.62841C11.0628 7.6431 11.0597 7.66372 11.0403 7.66653C11.0213 7.66841 11.0109 7.65247 11.0016 7.63997C10.9684 7.58997 10.955 7.53122 10.935 7.47622C10.9228 7.44372 10.9222 7.39403 10.8775 7.39403C10.8319 7.39278 10.8347 7.44341 10.8234 7.47622C10.8081 7.51966 10.8016 7.56622 10.7781 7.60622C10.7541 7.64872 10.7331 7.65091 10.7091 7.6081C10.6784 7.55653 10.6656 7.49872 10.6453 7.44278C10.6372 7.42091 10.6334 7.38685 10.6053 7.38685C10.5828 7.38685 10.5772 7.41903 10.5688 7.44028C10.5513 7.48372 10.5372 7.52685 10.5175 7.56841C10.5047 7.59497 10.4906 7.62966 10.4534 7.62903C10.4181 7.62903 10.4053 7.59591 10.3928 7.57028C10.3709 7.52497 10.3541 7.47622 10.3347 7.42903C10.3275 7.41153 10.3213 7.3856 10.2994 7.38622C10.2791 7.38685 10.2728 7.41216 10.2663 7.43028C10.2463 7.48778 10.2309 7.54747 10.2022 7.60091C10.1944 7.61622 10.1869 7.63747 10.1663 7.6381C10.1431 7.6381 10.1319 7.6181 10.1256 7.59997C10.1088 7.55341 10.0956 7.50591 10.0797 7.45935C10.0706 7.43278 10.0678 7.39403 10.0319 7.39278C9.99126 7.39153 9.98938 7.43341 9.97938 7.4606C9.96376 7.50185 9.95407 7.54591 9.94063 7.5881C9.93386 7.6119 9.92203 7.63397 9.90594 7.65278C9.88469 7.67622 9.86751 7.67403 9.85469 7.64341C9.83657 7.59747 9.83594 7.54966 9.83594 7.5031Z" fill="#CE1126"/>
<path fill-rule="evenodd" clip-rule="evenodd" d="M12.7938 13.0046C12.722 13.0218 12.6616 13.0621 12.601 13.1024C12.4885 13.1796 12.3885 13.2749 12.2632 13.3315C12.0601 13.4249 11.8454 13.4396 11.626 13.4162C11.626 13.4162 11.6182 13.4112 11.6113 13.4059C11.722 13.3415 11.8241 13.2655 11.9185 13.1821C11.9261 13.1758 11.9353 13.1716 11.9451 13.1702C12.1741 13.1287 12.3598 13.0015 12.5382 12.8615C12.591 12.8202 12.6401 12.7737 12.6813 12.719C12.696 12.6987 12.7135 12.6771 12.7135 12.649C12.7235 12.6405 12.7004 12.6284 12.7201 12.6174C12.8016 12.5709 12.862 12.503 12.9176 12.4199C12.9357 12.4553 12.9431 12.4951 12.9388 12.5346C12.9348 12.5836 12.9279 12.6323 12.9182 12.6805C12.9054 12.7421 12.9088 12.749 12.9707 12.7546C13.1247 12.7704 13.2483 12.8399 13.3416 12.963C13.3485 12.9726 13.355 12.9824 13.361 12.9924L13.3673 13.0109C13.2966 12.9924 13.2248 12.9789 13.1523 12.9705C13.031 12.9593 12.9098 12.9559 12.7938 13.0046Z" fill="#CD1226"/>
<path fill-rule="evenodd" clip-rule="evenodd" d="M11.6365 12.7452C11.6359 12.7552 11.6534 12.7733 11.6312 12.7746C11.6149 12.7758 11.5952 12.7733 11.5877 12.7533C11.583 12.7421 11.5893 12.7274 11.5771 12.7189C11.5624 12.7089 11.559 12.7327 11.5465 12.7283C11.5365 12.748 11.5246 12.7571 11.499 12.7496C11.4665 12.7386 11.4312 12.7339 11.3965 12.7283C11.5852 12.6333 11.7665 12.5267 11.9305 12.3936C12.0518 12.2946 12.1637 12.1858 12.2755 12.0764C12.3527 12.0008 12.3837 12.0049 12.4415 12.0967C12.494 12.1783 12.5021 12.2724 12.5146 12.3646C12.5259 12.4486 12.5612 12.5211 12.6249 12.5792C12.6243 12.5884 12.6198 12.5948 12.6115 12.5983C12.4368 12.6527 12.2909 12.7527 12.1646 12.8839C12.1599 12.8889 12.1543 12.8902 12.1487 12.8939C12.1415 12.8777 12.1171 12.8752 12.118 12.8533C12.1046 12.8367 12.113 12.818 12.1193 12.8021C12.1435 12.7345 12.1409 12.6603 12.1121 12.5946C12.0996 12.5695 12.0945 12.5414 12.0974 12.5135C12.1004 12.4857 12.1112 12.4593 12.1287 12.4374C12.144 12.4158 12.154 12.391 12.158 12.3649C12.1619 12.3388 12.1597 12.3121 12.1515 12.2871C12.1493 12.2799 12.1468 12.2708 12.1359 12.2717C12.1615 12.3602 12.1615 12.3608 12.0946 12.4408C12.0797 12.4563 12.0698 12.476 12.0665 12.4972C12.0631 12.5185 12.0664 12.5402 12.0759 12.5596C12.0887 12.5917 12.108 12.6208 12.1187 12.6527C12.1306 12.685 12.1341 12.7198 12.1289 12.7539C12.1236 12.788 12.1098 12.8201 12.0887 12.8474C12.0718 12.8664 12.0527 12.878 12.0299 12.8552C12.0102 12.8274 12.018 12.7955 12.0199 12.7655C12.0256 12.7025 12.0087 12.6396 11.9721 12.588C11.9534 12.5617 11.9274 12.5496 11.8949 12.5602C11.8634 12.5689 11.8393 12.5874 11.8374 12.6283C11.8634 12.6233 11.8734 12.6014 11.8909 12.5924C11.9204 12.5757 11.9377 12.5841 11.9427 12.6177C11.9515 12.6764 11.9074 12.7189 11.8465 12.7071C11.8486 12.7327 11.8603 12.7481 11.8818 12.7533C11.9037 12.7589 11.9152 12.7408 11.9259 12.7267C11.9393 12.708 11.9477 12.6867 11.964 12.6702C11.9752 12.6574 11.988 12.6524 12.0027 12.6664C12.0309 12.6939 12.024 12.8164 11.9912 12.8471C11.9079 12.8349 11.8253 12.818 11.744 12.7964C11.7127 12.7952 11.7209 12.7611 11.7049 12.748L11.6849 12.7283C11.6618 12.738 11.6509 12.7174 11.6349 12.7077C11.6312 12.7214 11.6412 12.7324 11.6365 12.7452Z" fill="#CC1126"/>
<path fill-rule="evenodd" clip-rule="evenodd" d="M10.2337 11.3827C10.2771 11.2464 10.3068 11.1255 10.3877 11.028C10.4643 10.9352 10.4555 10.9414 10.5274 11.0255C10.6102 11.1236 10.6468 11.2433 10.6849 11.3842C10.7487 11.197 10.8534 11.0864 11.0537 11.1198C11.059 11.1295 11.0487 11.137 11.0427 11.1436C10.9721 11.232 10.9474 11.337 10.9449 11.4477C10.944 11.4886 10.9327 11.5083 10.8893 11.5173C10.6048 11.5757 10.3113 11.5742 10.0274 11.513C9.99148 11.5052 9.97555 11.4917 9.97492 11.452C9.97148 11.3311 9.94023 11.2177 9.85148 11.1217C10.0621 11.0861 10.169 11.1927 10.2337 11.3827ZM11.1149 6.92766C10.9927 6.91578 10.8915 6.87172 10.7974 6.81641C10.7109 6.76484 10.6234 6.73109 10.523 6.74047C10.4977 6.74297 10.4877 6.73422 10.4877 6.70797C10.4862 6.56859 10.4849 6.42859 10.4812 6.28859C10.4812 6.25984 10.4918 6.25391 10.5187 6.25391C10.6384 6.25391 10.7477 6.28734 10.8374 6.36578C10.949 6.46516 11.0705 6.53391 11.2359 6.51984C11.193 6.57453 11.1418 6.60391 11.0959 6.63984C11.0637 6.66453 11.0112 6.68172 11.0059 6.71641C11.0002 6.74703 11.0374 6.78578 11.0552 6.81984C11.0727 6.85359 11.0918 6.88641 11.1149 6.92766ZM13.6618 11.9683C13.5605 11.962 13.4587 11.9483 13.3602 11.9089C13.325 11.8957 13.2935 11.8743 13.2684 11.8464C13.2465 11.8195 13.249 11.7895 13.2677 11.7636C13.2846 11.7383 13.3071 11.7377 13.3365 11.7495C13.5655 11.8517 13.7949 11.8452 14.0243 11.7455C14.0424 11.7377 14.0609 11.7195 14.0824 11.7408C14.1018 11.7611 14.109 11.7864 14.1018 11.8133C14.0912 11.858 14.0599 11.8814 14.0196 11.8989C13.9062 11.9498 13.7865 11.9627 13.6618 11.9683ZM7.27398 11.9683C7.15523 11.962 7.03586 11.9505 6.92461 11.9008C6.89829 11.8914 6.87498 11.8751 6.85711 11.8536C6.83398 11.8195 6.82586 11.7839 6.85305 11.7483C6.87992 11.7114 6.90711 11.742 6.93117 11.7517C7.1543 11.8445 7.37773 11.8489 7.60117 11.7511C7.62992 11.7383 7.65586 11.7358 7.6743 11.7642C7.69242 11.793 7.69398 11.823 7.66805 11.8502C7.63305 11.8895 7.58555 11.9095 7.53742 11.9255C7.45176 11.9508 7.36325 11.9651 7.27398 11.9683Z" fill="#CE1126"/>
<path fill-rule="evenodd" clip-rule="evenodd" d="M7.26067 11.7857C7.14293 11.7827 7.02711 11.7551 6.92067 11.7047C6.86296 11.6766 6.83692 11.6368 6.84255 11.5853C6.84817 11.5397 6.87005 11.5285 6.91005 11.5488C7.14255 11.6641 7.37661 11.6725 7.61192 11.5603C7.63223 11.55 7.65317 11.5403 7.66848 11.5616C7.68911 11.5882 7.69255 11.6197 7.6713 11.6488C7.6471 11.6798 7.61551 11.7041 7.57942 11.7197C7.47848 11.766 7.37161 11.7807 7.26067 11.7857ZM13.6838 11.7857C13.5669 11.78 13.4616 11.765 13.3632 11.7197C13.3264 11.7045 13.2943 11.6801 13.2697 11.6488C13.26 11.6362 13.255 11.6206 13.2555 11.6047C13.2561 11.5888 13.2621 11.5736 13.2725 11.5616C13.2925 11.5353 13.3154 11.555 13.3385 11.5647C13.5716 11.671 13.8022 11.6635 14.0313 11.5488C14.0716 11.5288 14.0938 11.5397 14.0985 11.5853C14.1043 11.6347 14.0801 11.6736 14.026 11.7019C13.9432 11.7429 13.8538 11.769 13.7619 11.7788C13.7332 11.7819 13.7038 11.7841 13.6838 11.7857Z" fill="#CE1126"/>
<path fill-rule="evenodd" clip-rule="evenodd" d="M13.6709 11.5996C13.5609 11.5996 13.4644 11.585 13.3744 11.5415C13.3427 11.5271 13.3137 11.5074 13.2884 11.4834C13.2691 11.4634 13.245 11.4412 13.2603 11.4109C13.2759 11.3809 13.3084 11.3878 13.335 11.3909C13.385 11.3987 13.4269 11.4275 13.4744 11.4409C13.6203 11.4812 13.7622 11.4781 13.9006 11.4096C13.9316 11.3943 13.9631 11.3803 13.9941 11.365C14.0266 11.3487 14.0566 11.3528 14.0769 11.3834C14.0975 11.415 14.0975 11.4493 14.0669 11.4768C13.9931 11.5421 13.9019 11.5703 13.8078 11.5887C13.7629 11.5986 13.7169 11.6023 13.6709 11.5996ZM7.27813 11.5996C7.14126 11.599 7.01032 11.5753 6.89532 11.4943C6.87782 11.4825 6.86001 11.469 6.8547 11.4471C6.84813 11.4203 6.85063 11.394 6.87282 11.374C6.89407 11.3542 6.91824 11.3511 6.94532 11.3646C6.98188 11.3828 7.01907 11.3984 7.05657 11.4162C7.20626 11.4868 7.35782 11.48 7.51095 11.4246C7.55157 11.41 7.59032 11.3843 7.63751 11.39C7.68626 11.3962 7.69938 11.4225 7.67001 11.4637C7.64284 11.4966 7.60853 11.5229 7.5697 11.5406C7.47849 11.5829 7.37861 11.6031 7.27813 11.5996ZM13.9119 9.82183C13.9222 9.70058 13.9984 9.63527 14.0969 9.58996C14.1094 9.58513 14.1204 9.5773 14.1292 9.56716C14.1379 9.55702 14.144 9.54489 14.1469 9.53183C14.1819 9.4159 14.2325 9.30715 14.3228 9.2234C14.3403 9.20808 14.3434 9.19183 14.3428 9.17121C14.3398 9.09909 14.3464 9.02689 14.3625 8.95652C14.3697 8.92263 14.3848 8.89093 14.4066 8.86402C14.4206 8.84808 14.4369 8.82871 14.4613 8.84058C14.4853 8.8534 14.4994 8.87871 14.4894 8.90277C14.4572 8.98607 14.4453 9.07584 14.4547 9.16465C14.4569 9.18277 14.4434 9.19402 14.4334 9.20746C14.3516 9.30678 14.2967 9.42548 14.2741 9.55215C14.2719 9.5658 14.2666 9.57879 14.2588 9.59019C14.251 9.60159 14.2407 9.61112 14.2288 9.61808C14.1253 9.68777 14.01 9.7384 13.9119 9.82183ZM7.02907 9.82183C6.93063 9.7384 6.81626 9.68777 6.71345 9.61933C6.68813 9.60058 6.67126 9.58058 6.66626 9.54996C6.64513 9.42621 6.59153 9.31028 6.51095 9.21402C6.50152 9.20384 6.49447 9.19168 6.49031 9.17844C6.48615 9.1652 6.48498 9.15121 6.48688 9.13746C6.4938 9.065 6.48374 8.99192 6.45751 8.92402C6.45126 8.90808 6.44626 8.89402 6.45126 8.87683C6.4622 8.83683 6.49407 8.82683 6.5247 8.85496C6.55125 8.88236 6.56928 8.91688 6.57657 8.95433C6.59595 9.02496 6.59845 9.09715 6.59782 9.16902C6.5972 9.1884 6.5972 9.20652 6.6147 9.22246C6.70813 9.3084 6.76126 9.41902 6.79438 9.53965C6.80251 9.56777 6.8172 9.5784 6.84095 9.58902C6.94001 9.63371 7.01657 9.69777 7.02907 9.82183ZM10.4553 6.12996C10.3613 6.12996 10.2881 6.06058 10.2875 5.9734C10.2879 5.95159 10.2925 5.93007 10.3012 5.91008C10.3099 5.89008 10.3225 5.872 10.3382 5.85687C10.3539 5.84175 10.3725 5.82987 10.3928 5.82193C10.4131 5.81398 10.4348 5.81013 10.4566 5.81058C10.5481 5.81058 10.6253 5.88371 10.6259 5.96933C10.6269 6.05933 10.5516 6.13058 10.4553 6.12996ZM7.60095 11.9403C7.61438 12.0496 7.6022 12.0737 7.50032 12.0965C7.32627 12.1356 7.14519 12.1302 6.97376 12.0809C6.91251 12.064 6.90813 12.0484 6.91751 11.939C7.14438 12.0196 7.37282 12.025 7.60095 11.9403ZM14.0241 11.9371C14.0259 12.055 14.0547 12.0609 13.9128 12.0943C13.7631 12.1287 13.6094 12.1287 13.4575 12.1015C13.3475 12.0818 13.3316 12.0575 13.3375 11.9393C13.559 12.0224 13.8032 12.0217 14.0241 11.9371ZM10.8928 7.05683C10.6013 7.14027 10.3116 7.13277 10.0113 7.06308C10.0553 7.01715 10.1303 6.99246 10.2219 6.98715C10.2491 6.9859 10.275 6.98652 10.3019 6.98433C10.3331 6.98183 10.3588 6.9809 10.3713 7.02308C10.3844 7.06371 10.4288 7.06715 10.4688 7.06621C10.5072 7.06496 10.5388 7.05152 10.5547 7.01308C10.5594 7.00183 10.5553 6.98433 10.575 6.98433C10.685 6.98558 10.7953 6.98715 10.8928 7.05683Z" fill="#CE1126"/>
<path fill-rule="evenodd" clip-rule="evenodd" d="M13.974 9.60325C14.0484 9.51544 14.0794 9.40325 14.1378 9.30732C14.1669 9.25729 14.1806 9.19978 14.1772 9.142C14.1729 9.0656 14.1954 8.9901 14.2409 8.92857C14.249 8.91845 14.2576 8.90885 14.2669 8.89981C14.2809 8.887 14.2972 8.87388 14.3156 8.88513C14.3337 8.89732 14.3362 8.91732 14.3297 8.93825C14.31 9.01013 14.3028 9.08357 14.3044 9.15763C14.3044 9.17513 14.3028 9.18919 14.2897 9.20232C14.2069 9.28419 14.1569 9.38544 14.119 9.49356C14.1069 9.52763 14.0972 9.55482 14.0578 9.567C14.0312 9.57482 14.0084 9.597 13.9837 9.61232C13.9808 9.60896 13.9776 9.60592 13.974 9.60325ZM6.96405 9.6045C6.92061 9.59388 6.89092 9.56325 6.85155 9.55232C6.83905 9.54825 6.83623 9.53763 6.83217 9.52575C6.79342 9.4045 6.74061 9.29044 6.64811 9.19857C6.63467 9.18638 6.63686 9.17263 6.63686 9.15732C6.63855 9.08332 6.62971 9.00945 6.61061 8.93794C6.60405 8.91731 6.60686 8.89731 6.62623 8.88544C6.64436 8.87419 6.65998 8.88732 6.67405 8.90013C6.72873 8.95263 6.76467 9.02138 6.75998 9.09357C6.74936 9.26013 6.85061 9.38357 6.91311 9.52138C6.92623 9.55075 6.94686 9.57732 6.96405 9.6045Z" fill="#CE1126"/>
<path fill-rule="evenodd" clip-rule="evenodd" d="M10.3991 6.58715C10.3991 6.4634 10.4013 6.33715 10.3984 6.21278C10.3984 6.1759 10.4072 6.15996 10.445 6.16809C10.4613 6.17059 10.4781 6.16809 10.4944 6.16746C10.5113 6.16496 10.5175 6.17153 10.5184 6.18965C10.5184 6.20621 10.5156 6.2209 10.495 6.21684C10.4403 6.20621 10.4431 6.23871 10.4438 6.27684C10.4469 6.42934 10.4489 6.58215 10.4497 6.73528C10.4497 6.76746 10.4547 6.78653 10.4919 6.78059C10.5178 6.77653 10.52 6.79371 10.5194 6.81403C10.5194 6.86778 10.5188 6.92278 10.52 6.97653C10.5225 7.02121 10.4953 7.02871 10.4609 7.02871C10.4256 7.02871 10.3988 7.02153 10.3994 6.97653C10.3996 6.84673 10.3995 6.71694 10.3991 6.58715Z" fill="#CD1126"/>
<path fill-rule="evenodd" clip-rule="evenodd" d="M10.5528 9.13627C10.4566 9.01283 10.4566 9.01283 10.3638 9.13315V9.04033C10.3638 8.98971 10.3697 8.93783 10.3616 8.88783C10.3497 8.81377 10.3869 8.77315 10.4403 8.73596C10.4532 8.72815 10.4585 8.72877 10.4691 8.73721C10.5238 8.78315 10.5666 8.83033 10.5541 8.91377C10.5441 8.98158 10.5528 9.05283 10.5528 9.13627Z" fill="#CE1126"/>
<path fill-rule="evenodd" clip-rule="evenodd" d="M10.3917 7.64594C10.4558 7.67812 10.4626 7.6775 10.5198 7.64062C10.5333 7.67813 10.5251 7.71469 10.5264 7.75125C10.5276 7.78344 10.5264 7.81719 10.5264 7.84937C10.5264 7.92531 10.5208 7.92937 10.4464 7.9275C10.4048 7.92469 10.3889 7.91062 10.3908 7.8675C10.3945 7.79437 10.3917 7.7225 10.3917 7.64594Z" fill="#CC1125"/>
<path fill-rule="evenodd" clip-rule="evenodd" d="M14.0297 9.21755C14.0425 9.11568 14.0516 9.01818 14.1044 8.93349C14.1282 8.89568 14.1529 8.89568 14.176 8.93037C14.185 8.94224 14.1832 8.95287 14.1766 8.96505C14.1444 9.02849 14.1394 9.09693 14.1372 9.1663C14.1372 9.18505 14.1366 9.2063 14.131 9.22505C14.1263 9.24255 14.1191 9.27849 14.1085 9.27224C14.0819 9.25951 14.0559 9.24554 14.0307 9.23037C14.0269 9.22818 14.0297 9.21755 14.0297 9.21755ZM6.9091 9.2088C6.91379 9.23099 6.90754 9.23943 6.89035 9.24162C6.8841 9.24162 6.87817 9.24568 6.87223 9.24755C6.82098 9.27224 6.80754 9.26568 6.8041 9.20162C6.79942 9.11818 6.80004 9.03505 6.75942 8.95787C6.74723 8.9338 6.7691 8.92193 6.78379 8.91068C6.80379 8.89537 6.81848 8.91068 6.82942 8.92443C6.8766 8.99318 6.88879 9.07255 6.90192 9.15193C6.90629 9.17224 6.90754 9.19349 6.9091 9.2088Z" fill="#CD1126"/>
<path fill-rule="evenodd" clip-rule="evenodd" d="M7.99531 12.4121C8.04875 12.4968 8.1075 12.5618 8.18406 12.6093C8.18875 12.6137 8.19531 12.6187 8.19656 12.624C8.22469 12.7534 8.32938 12.8209 8.42125 12.8949C8.56531 13.0099 8.72188 13.1093 8.90406 13.154C8.96438 13.1687 9.01188 13.1934 9.05656 13.234C9.13219 13.3021 9.21781 13.3587 9.31063 13.4152C9.19813 13.4371 9.09219 13.4218 8.98469 13.4174C8.73125 13.4052 8.53594 13.2705 8.3475 13.1227C8.15469 12.9734 7.93813 12.9374 7.70344 12.9802C7.65406 12.9896 7.60406 12.9999 7.54688 13.0118C7.59156 12.9274 7.65469 12.8696 7.73094 12.8249C7.79927 12.7843 7.87396 12.7609 7.955 12.7546C8.00813 12.7509 8.01375 12.7421 8.00125 12.6902C7.97906 12.6012 7.96875 12.5127 7.99531 12.4121Z" fill="#CE1326"/>
<path fill-rule="evenodd" clip-rule="evenodd" d="M12.6739 12.6285C12.6811 12.6598 12.6636 12.6819 12.6452 12.7038C12.5414 12.8276 12.4108 12.9194 12.2723 13.001C12.2025 13.0447 12.1277 13.0798 12.0495 13.1057C12.033 13.1113 12.017 13.1191 11.9961 13.1082C12.1695 12.9319 12.3302 12.7426 12.5695 12.6504C12.603 12.6376 12.6373 12.6244 12.6739 12.6285ZM8.92141 13.1216C8.81078 13.0979 8.7136 13.0435 8.61797 12.986C8.49853 12.9163 8.38953 12.83 8.29422 12.7298C8.26953 12.7023 8.22547 12.6644 8.24516 12.6376C8.26891 12.6048 8.31766 12.6357 8.35235 12.651C8.49641 12.7157 8.62422 12.8023 8.73297 12.9179C8.79641 12.9844 8.86422 13.0457 8.9311 13.1098L8.92141 13.1216Z" fill="#CE1126"/>
<path fill-rule="evenodd" clip-rule="evenodd" d="M9.87823 12.0321V12.0864C9.87823 12.1199 9.89698 12.1371 9.9273 12.1446C9.96011 12.1539 9.99198 12.1614 10.0126 12.1227C10.0315 12.0899 10.0514 12.0577 10.0723 12.0261C10.081 12.0121 10.0929 11.9955 10.111 12.0014C10.131 12.0074 10.1257 12.0268 10.1267 12.0427C10.1279 12.0843 10.1117 12.128 10.1532 12.1624C10.1979 12.2008 10.2317 12.198 10.262 12.1496C10.2773 12.1233 10.2892 12.0971 10.3039 12.0708C10.3101 12.0602 10.3173 12.0439 10.3326 12.0483C10.3495 12.053 10.3414 12.0702 10.342 12.0821C10.3442 12.1536 10.3645 12.1771 10.4214 12.1855C10.4692 12.1921 10.4832 12.1624 10.4973 12.1274C10.5079 12.1018 10.5057 12.0571 10.5339 12.0593C10.5632 12.0614 10.5473 12.1033 10.5532 12.128C10.5626 12.1621 10.5773 12.1799 10.6151 12.1861C10.6773 12.1968 10.736 12.1855 10.7945 12.1721C10.8292 12.1649 10.841 12.1433 10.8239 12.1093C10.8173 12.0971 10.8126 12.083 10.8042 12.0702C10.7876 12.0377 10.797 12.0133 10.827 11.9949C10.871 11.9683 10.9201 11.9536 10.9707 11.9477C11.0104 11.9427 11.027 11.9664 11.0176 12.0068C11.0152 12.0181 11.0115 12.0291 11.0067 12.0396C10.9989 12.0599 10.9935 12.0808 11.0139 12.0977C11.0235 12.1068 11.0359 12.1126 11.0491 12.1143C11.0623 12.1159 11.0757 12.1133 11.0873 12.1068C11.1083 12.0939 11.1262 12.0766 11.1398 12.0561C11.172 12.0146 11.2026 11.9721 11.2354 11.9311C11.2773 11.8761 11.332 11.8614 11.3973 11.8836L11.4826 11.9105C11.5014 11.9171 11.521 11.9218 11.5367 11.9043C11.552 11.8877 11.5485 11.8671 11.5414 11.848C11.5238 11.8037 11.5013 11.7616 11.4742 11.7224C11.4473 11.6808 11.4179 11.6402 11.3904 11.5996C11.3834 11.5908 11.378 11.5809 11.3745 11.5702C11.3682 11.5455 11.3451 11.5152 11.3773 11.4986C11.406 11.4839 11.422 11.5161 11.4332 11.5352C11.5092 11.6568 11.582 11.7799 11.5785 11.9321C11.5779 11.9777 11.5592 12.0052 11.516 12.0121C11.4754 12.0161 11.4523 12.0402 11.4332 12.0733C11.4201 12.1002 11.4007 12.1236 11.3767 12.1414C11.3373 12.1686 11.2907 12.1621 11.2495 12.1189C11.2192 12.0864 11.1945 12.0836 11.1629 12.1146C11.141 12.1358 11.1142 12.1539 11.092 12.1752C11.0535 12.2102 11.0176 12.2074 10.976 12.1799C10.9007 12.1299 10.9001 12.1321 10.8539 12.2068L10.8492 12.2146C10.8014 12.2824 10.5901 12.2905 10.5407 12.2236C10.5154 12.1911 10.496 12.1911 10.4692 12.2199C10.4592 12.2306 10.4484 12.2407 10.437 12.2499C10.3898 12.2883 10.3485 12.2836 10.3192 12.2302C10.2964 12.1868 10.277 12.1874 10.2467 12.2205C10.2269 12.2428 10.2005 12.258 10.1714 12.2639C10.1242 12.2699 10.0926 12.253 10.0745 12.2064C10.057 12.1571 10.0479 12.1564 10.0051 12.1864C9.98386 12.2011 9.96667 12.2224 9.93854 12.2258C9.85979 12.2346 9.8373 12.2199 9.8148 12.1411C9.80966 12.1222 9.80276 12.1038 9.79417 12.0861C9.78698 12.0708 9.78636 12.058 9.79761 12.0449C9.8182 12.0235 9.83229 11.9968 9.83823 11.9677C9.84073 11.9561 9.84823 11.9464 9.86198 11.9471C9.87948 11.9477 9.87667 11.9618 9.87667 11.973C9.87792 11.9932 9.87844 12.0129 9.87823 12.0321ZM12.5476 10.9121C12.542 10.9445 12.5318 10.976 12.5173 11.0055C12.506 11.0314 12.5054 11.0555 12.522 11.0799C12.5495 11.1196 12.5395 11.1574 12.5154 11.1946C12.4957 11.2227 12.4748 11.2318 12.4401 11.2177C12.3735 11.1914 12.3748 11.198 12.3573 11.2646C12.3232 11.3996 12.2756 11.5309 12.2154 11.6564C12.207 11.6743 12.1907 11.6924 12.1689 11.6814C12.1482 11.6705 12.1514 11.6489 12.1589 11.6289C12.1785 11.5827 12.2117 11.5455 12.2389 11.5046C12.2742 11.4464 12.2664 11.4246 12.2004 11.4099C12.1523 11.3999 12.107 11.3346 12.101 11.2658C12.0998 11.2546 12.101 11.2427 12.1004 11.2311C12.0998 11.2068 12.106 11.1858 12.1304 11.1743C12.1545 11.1627 12.1764 11.1711 12.1945 11.1858C12.2157 11.203 12.2345 11.2249 12.2535 11.2449C12.2657 11.2571 12.2782 11.2696 12.297 11.263C12.3139 11.2558 12.316 11.2383 12.3189 11.2224C12.3267 11.1783 12.3304 11.1339 12.3267 11.0889C12.3242 11.0449 12.3442 11.0143 12.3817 10.9927C12.4098 10.9761 12.4382 10.9599 12.4651 10.9396C12.5051 10.9102 12.5085 10.8768 12.4789 10.8383C12.4757 10.8343 12.4717 10.8311 12.4692 10.8271C12.4539 10.8043 12.4145 10.7755 12.4382 10.7571C12.4582 10.7408 12.4854 10.7821 12.5017 10.8055C12.5242 10.8377 12.552 10.868 12.5476 10.9121ZM9.10042 11.1818C9.0123 11.2368 8.94167 11.3058 8.85573 11.3539C8.76511 11.4033 8.67323 11.3758 8.62511 11.2861C8.60792 11.2502 8.58386 11.2333 8.54448 11.2349C8.50523 11.2365 8.46594 11.237 8.42667 11.2361C8.39261 11.2361 8.36667 11.2221 8.36792 11.1849C8.36948 11.1533 8.37073 11.1158 8.41855 11.1146C8.43136 11.1139 8.44448 11.1089 8.45667 11.1068C8.5023 11.0939 8.51417 11.0714 8.49792 11.0255C8.4873 10.9961 8.4748 10.9674 8.46542 10.9383C8.46011 10.9205 8.45573 10.9018 8.47667 10.8908C8.49081 10.8839 8.50638 10.8804 8.52213 10.8806C8.53788 10.8808 8.55336 10.8847 8.5673 10.8921C8.58698 10.9036 8.5673 10.9224 8.56417 10.9364C8.54448 11.003 8.56042 11.0264 8.62792 11.0258C8.66261 11.0258 8.69667 11.0202 8.73136 11.0196C8.75386 11.0189 8.78605 11.008 8.79105 11.0427C8.79667 11.0786 8.80386 11.1208 8.7573 11.1402C8.73932 11.1486 8.72012 11.1541 8.70042 11.1564C8.66104 11.1596 8.65855 11.1814 8.66823 11.2108C8.68315 11.2531 8.70864 11.2909 8.7423 11.3205C8.77167 11.3446 8.80042 11.3352 8.82948 11.3189C8.88698 11.2871 8.93136 11.2383 8.98198 11.1961C9.01542 11.1671 9.05261 11.1574 9.10042 11.1818ZM8.23917 10.4877C8.23917 10.5552 8.25167 10.6136 8.29167 10.6624C8.30636 10.6811 8.32261 10.6983 8.35042 10.6921C8.37605 10.6858 8.37854 10.6624 8.38448 10.6433C8.39011 10.6252 8.39292 10.608 8.39792 10.5899C8.41448 10.5318 8.44511 10.5093 8.50667 10.5146C8.56698 10.5202 8.62105 10.5427 8.65542 10.5983C8.67209 10.6258 8.67793 10.6586 8.67181 10.6902C8.66569 10.7218 8.64804 10.75 8.62229 10.7693C8.60323 10.7827 8.58011 10.7921 8.56292 10.7796C8.5423 10.7633 8.56511 10.7436 8.57354 10.7289C8.58709 10.7091 8.5948 10.6859 8.59579 10.6619C8.59679 10.638 8.59103 10.6142 8.57917 10.5933C8.56761 10.5696 8.54573 10.5539 8.51917 10.5586C8.49386 10.5636 8.49042 10.5886 8.48823 10.6099C8.47355 10.7174 8.43292 10.7455 8.32823 10.7233C8.28305 10.7135 8.24191 10.6902 8.21027 10.6565C8.17863 10.6228 8.15797 10.5803 8.15104 10.5346C8.13917 10.4468 8.14917 10.3605 8.19667 10.2818C8.24917 10.1958 8.3498 10.2005 8.42198 10.2405C8.43042 10.2458 8.44073 10.2533 8.43605 10.2646C8.43042 10.2805 8.42011 10.2693 8.41198 10.2658C8.34823 10.2446 8.30073 10.2646 8.27073 10.3286C8.24636 10.3805 8.24229 10.4368 8.23917 10.4877Z" fill="#FCD014"/>
<path fill-rule="evenodd" clip-rule="evenodd" d="M9.63421 11.9239C9.63952 11.8946 9.6364 11.8727 9.60265 11.8671C9.57046 11.8624 9.56421 11.8852 9.55734 11.9086C9.55201 11.9292 9.55145 11.9508 9.55572 11.9716C9.55998 11.9925 9.56895 12.0121 9.58194 12.0289C9.59494 12.0458 9.61161 12.0594 9.63069 12.0689C9.64977 12.0783 9.67075 12.0832 9.69203 12.0833C9.69984 12.0833 9.70952 12.0821 9.71671 12.0833C9.73452 12.088 9.76515 12.0705 9.76921 12.1021C9.77328 12.133 9.74265 12.1371 9.72202 12.1427C9.6714 12.1561 9.62296 12.1586 9.5814 12.1152C9.55703 12.0902 9.52484 12.0827 9.49077 12.0833C9.42484 12.0852 9.35828 12.0886 9.29421 12.0739C9.27296 12.0686 9.23109 12.0718 9.24203 12.0327C9.25015 12.0011 9.28171 11.9886 9.31484 12.0005C9.34203 12.0093 9.3689 12.023 9.39546 12.0355C9.46734 12.0708 9.49077 12.0574 9.49296 11.9774C9.49424 11.9403 9.50694 11.9046 9.52932 11.8751C9.55169 11.8455 9.58266 11.8236 9.61796 11.8124C9.6639 11.7983 9.68078 11.8255 9.69328 11.8602C9.70953 11.9024 9.69484 11.9543 9.66452 11.9649C9.64077 11.9733 9.63202 11.9605 9.63421 11.9239Z" fill="#FCCF14"/>
<path fill-rule="evenodd" clip-rule="evenodd" d="M11.7741 11.5574C11.7972 11.6277 11.8472 11.6374 11.906 11.629C11.9413 11.6257 11.9752 11.6132 12.0042 11.5927C12.0332 11.5723 12.0563 11.5446 12.0713 11.5124C12.0926 11.469 12.0854 11.4549 12.0397 11.4427C12.0236 11.4398 12.0083 11.4335 11.9947 11.4243C11.9812 11.415 11.9698 11.403 11.9613 11.389C11.9541 11.3749 11.9485 11.3602 11.9576 11.3474C11.9685 11.3321 11.9832 11.339 11.9979 11.3427C12.039 11.3555 12.0737 11.3835 12.0949 11.421C12.116 11.4586 12.122 11.5028 12.1116 11.5446C12.0863 11.6458 11.9757 11.7333 11.8857 11.7224C11.8076 11.7127 11.7594 11.649 11.7741 11.5574Z" fill="#FCD014"/>
<path fill-rule="evenodd" clip-rule="evenodd" d="M9.16282 11.239C9.10814 11.3024 9.04751 11.349 8.99157 11.4012C8.9697 11.4218 8.94814 11.4418 8.93282 11.4665C8.92471 11.4782 8.91956 11.4916 8.91782 11.5057C8.91608 11.5198 8.91779 11.5341 8.92282 11.5474C8.92614 11.5585 8.93261 11.5683 8.94143 11.5758C8.95026 11.5832 8.96106 11.5879 8.97251 11.5893C8.99532 11.5921 9.00782 11.5768 9.01845 11.5577C9.03189 11.5359 9.04251 11.5109 9.06407 11.4937C9.08126 11.4784 9.10626 11.4734 9.12282 11.4877C9.13876 11.5018 9.12282 11.5202 9.1122 11.5349C9.0937 11.5624 9.06895 11.585 9.04 11.601C9.01105 11.6171 8.97871 11.626 8.94564 11.6271C8.89209 11.6284 8.85345 11.6035 8.8297 11.5524C8.80564 11.5052 8.83189 11.4737 8.86282 11.4443C8.93376 11.379 9.0022 11.3084 9.08689 11.2596C9.10689 11.2484 9.1272 11.2337 9.16282 11.239ZM9.30564 11.9374C9.20157 11.944 9.11157 11.8521 9.07876 11.7687C9.0722 11.753 9.07095 11.7355 9.08157 11.7209C9.10862 11.6814 9.1453 11.6494 9.18814 11.628C9.1947 11.624 9.20376 11.6184 9.21001 11.6262C9.21876 11.6352 9.2122 11.644 9.20532 11.6512C9.15064 11.728 9.15064 11.7421 9.21251 11.814C9.25314 11.8615 9.30657 11.8884 9.37001 11.8977C9.40126 11.9021 9.41595 11.8899 9.41782 11.8587C9.41845 11.8412 9.41845 11.8227 9.42189 11.8046C9.42657 11.778 9.44376 11.7634 9.47032 11.7693C9.4972 11.7746 9.49314 11.7987 9.49001 11.8171C9.47595 11.894 9.40814 11.9374 9.30564 11.9374ZM12.3353 10.2559C12.4206 10.2752 12.5041 10.2959 12.5875 10.3118C12.6215 10.3181 12.6536 10.3318 12.6816 10.3519C12.7097 10.3721 12.7329 10.3982 12.7497 10.4284C12.7706 10.4643 12.7763 10.4952 12.7397 10.5271C12.71 10.5484 12.6891 10.5799 12.6809 10.6155C12.6778 10.6352 12.6584 10.6418 12.6516 10.6212C12.6397 10.5884 12.6131 10.5784 12.5856 10.5671C12.575 10.5624 12.5638 10.5565 12.5669 10.5418C12.5697 10.5302 12.5822 10.5296 12.5909 10.5284C12.6041 10.5252 12.6169 10.5252 12.63 10.5237C12.6628 10.5196 12.6928 10.5118 12.7025 10.4752C12.7125 10.4412 12.6966 10.4143 12.6719 10.3921C12.6266 10.3543 12.5734 10.3415 12.5166 10.3371C12.4528 10.3321 12.3881 10.3268 12.3294 10.2996C12.3178 10.2937 12.2991 10.2918 12.3019 10.2755C12.3047 10.258 12.3234 10.2587 12.3353 10.2559Z" fill="#FCCF14"/>
<path fill-rule="evenodd" clip-rule="evenodd" d="M11.7081 11.8368C11.6113 11.728 11.5556 11.5927 11.4688 11.4668C11.55 11.4987 11.6997 11.7312 11.7081 11.8368Z" fill="#FBCD14"/>
<path fill-rule="evenodd" clip-rule="evenodd" d="M12.2134 10.5306C12.2281 10.5228 12.2416 10.5306 12.2541 10.5366C12.3694 10.5872 12.4881 10.6316 12.5987 10.6916C12.6075 10.6957 12.6157 10.701 12.6234 10.7075C12.6281 10.7116 12.6319 10.7188 12.6312 10.7234C12.6284 10.7328 12.6172 10.7334 12.6106 10.7297C12.49 10.6531 12.3441 10.6297 12.2234 10.5519C12.2175 10.5475 12.2109 10.5406 12.2134 10.5306Z" fill="#FBCC14"/>
<path fill-rule="evenodd" clip-rule="evenodd" d="M12.756 10.271C12.6276 10.2151 12.492 10.1951 12.3535 10.1951C12.4316 10.1451 12.676 10.1885 12.756 10.271Z" fill="#FBCB14"/>
<path fill-rule="evenodd" clip-rule="evenodd" d="M12.256 10.685C12.2653 10.6884 12.2813 10.6937 12.2966 10.6975C12.3281 10.7053 12.35 10.7144 12.3081 10.7416C12.2772 10.7616 12.2885 10.785 12.306 10.8091C12.3113 10.8178 12.3247 10.8284 12.3131 10.8394C12.3006 10.8503 12.2885 10.8384 12.2806 10.8284C12.2551 10.7964 12.2349 10.7604 12.221 10.7219C12.2116 10.6975 12.216 10.6781 12.256 10.685Z" fill="#FBCC14"/>
<path fill-rule="evenodd" clip-rule="evenodd" d="M8.38682 10.8922C8.37964 10.9166 8.35932 10.9141 8.34682 10.9069C8.3046 10.8841 8.27053 10.8487 8.24932 10.8056C8.24214 10.7919 8.24714 10.7806 8.26245 10.775C8.28089 10.7688 8.30651 10.7666 8.30995 10.7856C8.31714 10.8313 8.34245 10.8575 8.37839 10.8806C8.38307 10.8831 8.3837 10.8888 8.38682 10.8922ZM12.7056 10.6406C12.7246 10.6764 12.7334 10.7167 12.7309 10.7572C12.7281 10.7706 12.7209 10.7837 12.7062 10.7844C12.6881 10.7859 12.6856 10.7691 12.6843 10.7578C12.6787 10.7206 12.6759 10.6819 12.7056 10.6406Z" fill="#FBCB14"/>
<path fill-rule="evenodd" clip-rule="evenodd" d="M9.82617 11.8728C9.83023 11.8469 9.84211 11.8303 9.86836 11.8322C9.88023 11.8322 9.88961 11.8412 9.88367 11.8553C9.87523 11.8766 9.86555 11.9012 9.83961 11.9022C9.82148 11.9037 9.8293 11.8822 9.82617 11.8728Z" fill="#F9C415"/>
<path fill-rule="evenodd" clip-rule="evenodd" d="M8.88073 11.6739C8.85042 11.7048 8.82261 11.7042 8.79261 11.6873C8.7848 11.6826 8.78198 11.6717 8.7898 11.6676C8.82011 11.6485 8.84948 11.6554 8.88073 11.6739Z" fill="#F9C315"/>
<path fill-rule="evenodd" clip-rule="evenodd" d="M9.3679 11.6984C9.35727 11.6977 9.35103 11.6912 9.35446 11.6821C9.35919 11.6693 9.36694 11.6578 9.37706 11.6487C9.38719 11.6396 9.39938 11.633 9.41259 11.6296C9.42321 11.6262 9.42602 11.6362 9.42384 11.6443C9.41571 11.674 9.39384 11.688 9.3679 11.6984Z" fill="#FAC915"/>
<path fill-rule="evenodd" clip-rule="evenodd" d="M11.8757 11.4477C11.8285 11.4258 11.8188 11.3983 11.8232 11.3555C11.8532 11.3798 11.8638 11.4061 11.8757 11.4477Z" fill="#FAC615"/>
<path fill-rule="evenodd" clip-rule="evenodd" d="M9.83214 13.3106C9.79277 13.3143 9.75621 13.3143 9.72558 13.2849C9.71902 13.2787 9.70683 13.2727 9.69902 13.2734C9.63089 13.2849 9.59027 13.2484 9.55277 13.1996C9.52965 13.1696 9.49215 13.169 9.45746 13.1715C9.39058 13.1771 9.32683 13.1715 9.26621 13.1384C9.20746 13.1059 9.17496 13.0606 9.17683 12.9921C9.17777 12.9396 9.16902 12.9299 9.11964 12.9468C8.99558 12.9915 8.90808 12.9256 8.82246 12.8534C8.81246 12.8462 8.79839 12.8356 8.80402 12.8215C8.81058 12.8052 8.82965 12.8121 8.84433 12.8143C8.87333 12.8196 8.90096 12.8306 8.92558 12.8468C8.97621 12.8749 9.01277 12.8693 9.05621 12.8315C9.1209 12.7727 9.12215 12.6962 9.11246 12.6174C9.11027 12.5971 9.10152 12.5781 9.1309 12.5715C9.16183 12.5649 9.16902 12.5868 9.17183 12.6074C9.17954 12.6768 9.16285 12.7466 9.12465 12.8049C9.10652 12.8309 9.0859 12.854 9.06777 12.8796C9.05933 12.8893 9.0484 12.9009 9.05527 12.9149C9.06371 12.9309 9.08183 12.924 9.09527 12.9221C9.1259 12.9196 9.14433 12.8987 9.16465 12.8787C9.21308 12.8318 9.26058 12.7837 9.30933 12.7371C9.31996 12.7268 9.33371 12.7071 9.34996 12.7218C9.36246 12.734 9.3484 12.7499 9.34121 12.7618C9.31465 12.8074 9.28308 12.8499 9.26558 12.899C9.23465 12.9812 9.25152 13.0343 9.32371 13.0812C9.37089 13.1131 9.42433 13.1287 9.48027 13.1368C9.49766 13.1393 9.51539 13.1364 9.53109 13.1286C9.54679 13.1207 9.5597 13.1082 9.56808 13.0927C9.57312 13.0844 9.57854 13.0762 9.58433 13.0684C9.59402 13.0556 9.59965 13.0331 9.61808 13.0415C9.64215 13.0509 9.62808 13.0715 9.62152 13.0874C9.59465 13.1481 9.60402 13.1646 9.66371 13.1921C9.70496 13.2118 9.72402 13.1909 9.74308 13.1615C9.75215 13.1468 9.75965 13.1187 9.77746 13.124C9.80215 13.1315 9.78871 13.1577 9.78871 13.1762C9.78933 13.2293 9.8084 13.2518 9.85058 13.2512C9.88433 13.2506 9.89183 13.2246 9.9034 13.2006C9.90996 13.1852 9.90996 13.1615 9.93402 13.1621C9.95871 13.1634 9.9559 13.1881 9.9609 13.2043C9.96933 13.2321 9.97339 13.2624 9.99089 13.2868C10.0128 13.3184 10.045 13.3262 10.0781 13.3174C10.1068 13.309 10.104 13.2777 10.1018 13.2543C10.0993 13.1849 10.0909 13.1165 10.094 13.0477C10.0946 13.024 10.0887 12.9937 10.1268 12.9924C10.1671 12.9915 10.1646 13.0218 10.164 13.0477C10.1612 13.1084 10.1612 13.1699 10.1525 13.2296C10.1434 13.2943 10.1153 13.3499 10.0481 13.3731C10.0106 13.3865 9.97121 13.3896 9.94465 13.3531C9.91496 13.314 9.87683 13.3046 9.83214 13.3106Z" fill="#FCD014"/>
<path fill-rule="evenodd" clip-rule="evenodd" d="M8.8277 12.7471C8.7577 12.7471 8.72863 12.7258 8.72426 12.6583C8.72176 12.6164 8.69895 12.5986 8.66551 12.5924C8.58378 12.5785 8.51003 12.535 8.45832 12.4702C8.4452 12.4554 8.43387 12.4392 8.42457 12.4217C8.41457 12.4055 8.40551 12.3874 8.42832 12.3752C8.44738 12.3655 8.46645 12.3667 8.48176 12.3842C8.48984 12.3947 8.49656 12.4061 8.50176 12.4183C8.5552 12.5296 8.64988 12.5702 8.76707 12.5702C8.81113 12.5702 8.85551 12.5639 8.89895 12.5767C8.95957 12.5955 8.9752 12.638 8.9377 12.6892C8.92429 12.7059 8.90761 12.7196 8.88869 12.7296C8.86977 12.7395 8.84901 12.7455 8.8277 12.7471ZM11.9914 12.8464C12.0043 12.7952 12.0155 12.7439 12.0043 12.6921C12.0014 12.6805 12.0008 12.6658 11.9861 12.6652C11.9755 12.6646 11.9721 12.6758 11.9668 12.6849C11.9527 12.7067 11.9393 12.7296 11.9246 12.7508C11.9111 12.7696 11.8939 12.7827 11.8699 12.7661C11.8439 12.7496 11.8233 12.7267 11.828 12.6946C11.8311 12.6721 11.8474 12.6752 11.8599 12.6899C11.8852 12.7186 11.9008 12.6958 11.9139 12.6786C11.9327 12.6539 11.9421 12.6246 11.9274 12.5942C11.9221 12.5858 11.9093 12.5911 11.9014 12.5974C11.8886 12.6077 11.878 12.6199 11.8649 12.6302C11.8543 12.6389 11.8464 12.6611 11.8314 12.6536C11.8127 12.6436 11.8196 12.6199 11.8243 12.6039C11.8336 12.5699 11.8624 12.5517 11.8952 12.5417C11.9277 12.5314 11.9539 12.5446 11.9739 12.568C12.0098 12.6093 12.0304 12.6617 12.0321 12.7164C12.0333 12.7624 12.0305 12.8092 12.0305 12.8542C12.0125 12.9296 11.9799 13.0008 11.9346 13.0636C11.9264 13.0758 11.9146 13.0983 11.8993 13.0883C11.8799 13.0771 11.8958 13.0558 11.9046 13.0411C11.9264 13.0011 11.9521 12.9624 11.9736 12.9217C11.9867 12.8989 11.9928 12.8727 11.9914 12.8464ZM11.308 13.0702C11.3233 13.0902 11.3177 13.1061 11.3221 13.1196C11.3318 13.1689 11.3633 13.1961 11.4133 13.2014C11.4833 13.2063 11.5531 13.1901 11.6137 13.1548C11.6744 13.1195 11.723 13.0669 11.7533 13.0036C11.7639 12.9811 11.768 12.953 11.7927 12.9349C11.8252 12.968 11.8199 13.008 11.798 13.0367C11.7039 13.1627 11.5933 13.2658 11.4236 13.2714C11.3465 13.2739 11.3054 13.2361 11.3002 13.158C11.2974 13.1302 11.2933 13.103 11.308 13.0702Z" fill="#FCCF14"/>
<path fill-rule="evenodd" clip-rule="evenodd" d="M12.0889 12.8466C12.1226 12.7582 12.1273 12.6738 12.0754 12.5873C12.0307 12.5135 12.0395 12.4841 12.0948 12.4201C12.1082 12.4048 12.1201 12.3895 12.1336 12.3748C12.1548 12.3495 12.1573 12.3254 12.1295 12.3029C12.1145 12.2923 12.1036 12.281 12.112 12.2613C12.1146 12.2561 12.1186 12.2518 12.1236 12.2487C12.1286 12.2457 12.1343 12.2441 12.1401 12.2441C12.1626 12.2448 12.1626 12.2666 12.1651 12.2807C12.1751 12.3398 12.1801 12.3985 12.1379 12.4501C12.1048 12.4901 12.0967 12.5323 12.1204 12.5813C12.1661 12.672 12.152 12.7626 12.1179 12.8526C12.1117 12.8616 12.1045 12.8707 12.0923 12.8873C12.0914 12.8688 12.0895 12.8579 12.0889 12.8466Z" fill="#FCCE14"/>
<path fill-rule="evenodd" clip-rule="evenodd" d="M10.8311 13.3802C10.8136 13.379 10.7923 13.3837 10.7876 13.359C10.7836 13.3365 10.8048 13.329 10.8207 13.3237C10.8551 13.314 10.8914 13.3071 10.9261 13.2993C10.9501 13.2937 10.9748 13.2852 10.9823 13.2577C10.9889 13.2309 10.9654 13.2177 10.9495 13.2015C10.9298 13.1812 10.9032 13.1709 10.8795 13.1574C10.8536 13.1421 10.8407 13.1209 10.8554 13.0915C10.8717 13.0596 10.8964 13.0802 10.9142 13.0874C10.9807 13.1168 11.0207 13.1859 11.0073 13.244C10.9983 13.2836 10.9758 13.3189 10.9437 13.3438C10.9115 13.3686 10.8717 13.3815 10.8311 13.3802Z" fill="#FCCF14"/>
<path fill-rule="evenodd" clip-rule="evenodd" d="M10.1152 13.4488C10.1434 13.4329 10.1715 13.437 10.1952 13.4395C10.2502 13.4466 10.3034 13.4404 10.3568 13.4363C10.4559 13.4279 10.5121 13.3704 10.5196 13.271C10.5215 13.2523 10.5162 13.231 10.533 13.2129C10.5696 13.2463 10.5662 13.2845 10.5524 13.3241C10.5177 13.4195 10.4062 13.4857 10.2852 13.4807C10.229 13.4791 10.1721 13.4785 10.1152 13.4488Z" fill="#FACB16"/>
<path fill-rule="evenodd" clip-rule="evenodd" d="M10.6802 13.4257C10.6668 13.4204 10.6684 13.4073 10.669 13.397C10.6683 13.3047 10.6548 13.213 10.629 13.1245C10.6246 13.1089 10.622 13.0928 10.6212 13.0767C10.6206 13.0638 10.6231 13.0485 10.6384 13.0454C10.6524 13.0423 10.6584 13.0551 10.6631 13.0651C10.6806 13.1045 10.6899 13.1473 10.694 13.1888C10.7012 13.257 10.7187 13.3248 10.7002 13.3935C10.6956 13.4073 10.6971 13.4204 10.6802 13.4257Z" fill="#FBCD14"/>
<path fill-rule="evenodd" clip-rule="evenodd" d="M10.3824 13.1997C10.3774 13.246 10.3924 13.3047 10.3724 13.3604C10.369 13.3722 10.3671 13.3904 10.3499 13.3863C10.3358 13.3841 10.3405 13.3676 10.3411 13.3576C10.344 13.2869 10.3427 13.2169 10.3315 13.146C10.3296 13.1265 10.3296 13.1068 10.3315 13.0872C10.3349 13.0622 10.3461 13.0297 10.3699 13.0313C10.3918 13.0329 10.3815 13.0666 10.3821 13.086C10.383 13.1204 10.3824 13.156 10.3824 13.1997Z" fill="#FCCE14"/>
<path fill-rule="evenodd" clip-rule="evenodd" d="M11.7057 12.748C11.7394 12.748 11.7276 12.7846 11.7447 12.7965C11.7469 12.8337 11.7629 12.8593 11.8022 12.8655C11.8176 12.868 11.8329 12.8715 11.8338 12.8899C11.8338 12.9099 11.8176 12.9234 11.8029 12.9234C11.752 12.9231 11.702 12.9366 11.6582 12.9624C11.6523 12.9642 11.6459 12.9638 11.6404 12.9612C11.6322 12.9534 11.6394 12.9465 11.6451 12.9405C11.6497 12.9359 11.6529 12.9299 11.6588 12.9265C11.7144 12.8946 11.7397 12.8527 11.7022 12.7902C11.6929 12.7752 11.7041 12.7618 11.7057 12.748Z" fill="#FBCE14"/>
<path fill-rule="evenodd" clip-rule="evenodd" d="M11.6371 12.7449C11.6205 12.7255 11.6093 12.7059 11.6318 12.6777C11.6443 12.7021 11.6639 12.7162 11.6858 12.7277L11.6864 12.7468C11.6864 12.7596 11.6886 12.7755 11.6736 12.7796C11.6564 12.7849 11.6577 12.7649 11.6518 12.7555C11.648 12.7512 11.6418 12.7484 11.6371 12.7449Z" fill="#F8BF15"/>
<path fill-rule="evenodd" clip-rule="evenodd" d="M11.79 13.1902C11.786 13.2065 11.7732 13.2121 11.7585 13.2127C11.7438 13.2137 11.7253 13.2162 11.7247 13.1959C11.7232 13.1774 11.7394 13.1721 11.7547 13.1721C11.7697 13.1715 11.7844 13.1706 11.79 13.1902Z" fill="#FAC915"/>
<path fill-rule="evenodd" clip-rule="evenodd" d="M11.6677 13.209C11.6874 13.2112 11.6942 13.2237 11.6949 13.2399C11.6955 13.253 11.6914 13.2671 11.6752 13.2671C11.6577 13.2671 11.6511 13.2521 11.6486 13.2362C11.6471 13.2215 11.6558 13.2137 11.6677 13.209Z" fill="#F9C215"/>
<path fill-rule="evenodd" clip-rule="evenodd" d="M11.5469 12.7268C11.5547 12.7196 11.56 12.7012 11.5775 12.7174V12.7268C11.5763 12.7421 11.5841 12.7671 11.5647 12.7687C11.5403 12.7699 11.5509 12.7424 11.5469 12.7268Z" fill="#F8BE16"/>
<path fill-rule="evenodd" clip-rule="evenodd" d="M12.2334 12.4023C12.26 12.4305 12.2656 12.457 12.2481 12.4858C12.2434 12.4923 12.2341 12.4983 12.2287 12.488C12.2215 12.4747 12.218 12.4596 12.2189 12.4445C12.2197 12.4294 12.2247 12.4148 12.2334 12.4023Z" fill="#F5B516"/>
<path fill-rule="evenodd" clip-rule="evenodd" d="M11.2715 12.0296C11.2715 11.9737 11.3015 11.9365 11.3431 11.9355C11.3825 11.9355 11.4118 11.9612 11.4112 11.9959C11.4106 12.044 11.36 12.1046 11.3221 12.1046C11.2884 12.1052 11.2706 12.0771 11.2715 12.0296Z" fill="#CF1326"/>
<path fill-rule="evenodd" clip-rule="evenodd" d="M12.2005 11.252C12.2311 11.2526 12.2493 11.2641 12.2505 11.2929C12.2518 11.3223 12.2324 11.3326 12.2058 11.3332C12.1783 11.3341 12.1536 11.3229 12.1524 11.2941C12.1511 11.2626 12.1793 11.2566 12.2005 11.252Z" fill="#CF1625"/>
<path fill-rule="evenodd" clip-rule="evenodd" d="M12.4674 11.0982C12.4633 11.1231 12.4449 11.1325 12.4221 11.1341C12.4014 11.1347 12.3939 11.1188 12.3946 11.1013C12.3958 11.0763 12.4146 11.0685 12.4352 11.0685C12.4539 11.0672 12.4661 11.0772 12.4674 11.0982Z" fill="#D11D25"/>
<path fill-rule="evenodd" clip-rule="evenodd" d="M8.67648 11.1264C8.64398 11.1276 8.63086 11.1192 8.63305 11.0983C8.63586 11.0758 8.64367 11.0554 8.67242 11.0567C8.69242 11.0579 8.70836 11.0695 8.70836 11.0901C8.70816 11.099 8.70486 11.1074 8.69903 11.1141C8.6932 11.1207 8.68521 11.1251 8.67648 11.1264Z" fill="#D11E25"/>
<path fill-rule="evenodd" clip-rule="evenodd" d="M8.48215 11.1972C8.4709 11.1957 8.45559 11.1938 8.45965 11.1791C8.46622 11.1516 8.48715 11.135 8.51372 11.1291C8.5284 11.1272 8.53434 11.1388 8.53247 11.151C8.52497 11.1766 8.5109 11.1938 8.48215 11.1972ZM8.8334 12.6063C8.85809 12.6147 8.88465 12.6244 8.88622 12.6522C8.88684 12.6788 8.86153 12.6922 8.83903 12.6935C8.80965 12.6941 8.8109 12.6669 8.80965 12.6457C8.80965 12.6282 8.80809 12.6094 8.8334 12.6063Z" fill="#D11B25"/>
</svg>
