<svg width="21" height="20" viewBox="0 0 21 20" fill="none" xmlns="http://www.w3.org/2000/svg">
<path d="M20.5 14.9996C20.5 15.5889 20.2659 16.1542 19.8491 16.5709C19.4324 16.9877 18.8671 17.2218 18.2778 17.2218H2.72222C2.13285 17.2218 1.56762 16.9877 1.15087 16.5709C0.734126 16.1542 0.5 15.5889 0.5 14.9996V4.99957C0.5 4.4102 0.734126 3.84496 1.15087 3.42822C1.56762 3.01147 2.13285 2.77734 2.72222 2.77734H18.2778C18.8671 2.77734 19.4324 3.01147 19.8491 3.42822C20.2659 3.84496 20.5 4.4102 20.5 4.99957V14.9996Z" fill="#DE2910"/>
<path d="M6.68662 4.98776L7.09551 5.18554L7.42273 4.87109L7.36107 5.32109L7.76107 5.53554L7.3144 5.61554L7.2344 6.0622L7.01996 5.6622L6.56996 5.72387L6.8844 5.39665L6.68662 4.98776ZM9.27829 6.62165L9.08051 7.02998L9.39496 7.35776L8.94551 7.29554L8.73107 7.69609L8.65107 7.24887L8.20385 7.16887L8.6044 6.95443L8.54218 6.50498L8.86996 6.81943L9.27829 6.62165ZM8.74662 8.72109L8.89551 9.14998L9.3494 9.15943L8.98773 9.43332L9.1194 9.86832L8.74662 9.60887L8.37385 9.86832L8.50496 9.43332L8.14329 9.15943L8.59718 9.14998L8.74662 8.72109ZM6.68662 10.5433L7.09551 10.7411L7.42273 10.4266L7.36107 10.8766L7.76107 11.0911L7.3144 11.1711L7.2344 11.6178L7.01996 11.2178L6.56996 11.2794L6.8844 10.9522L6.68662 10.5433ZM4.38885 6.08443L4.90496 7.56832L6.47496 7.60054L5.22329 8.54943L5.67829 10.0528L4.38885 9.15554L3.0994 10.0528L3.5544 8.54943L2.30273 7.60054L3.87273 7.56832L4.38885 6.08443Z" fill="#FFDE02"/>
</svg>
