<svg width="21" height="20" viewBox="0 0 21 20" fill="none" xmlns="http://www.w3.org/2000/svg">
<path d="M0.5 7.14532C0.5 5.65415 1.70883 4.44531 3.2 4.44531H17.8C19.2912 4.44531 20.5 5.65414 20.5 7.14531V12.3009C20.5 13.792 19.2912 15.0009 17.8 15.0009H3.2C1.70883 15.0009 0.5 13.792 0.5 12.3009V7.14532Z" fill="#F1B31C"/>
<g clip-path="url(#clip0_16134_17756)">
<path d="M0.5 6.38954C0.5 6.08272 0.748731 5.83398 1.05556 5.83398H19.9444C20.2513 5.83398 20.5 6.08272 20.5 6.38954C20.5 6.69636 20.2513 6.9451 19.9444 6.9451H1.05556C0.748731 6.9451 0.5 6.69636 0.5 6.38954ZM0.5 8.61176C0.5 8.30494 0.748731 8.05621 1.05556 8.05621H19.9444C20.2513 8.05621 20.5 8.30494 20.5 8.61176C20.5 8.91859 20.2513 9.16732 19.9444 9.16732H1.05556C0.748731 9.16732 0.5 8.91859 0.5 8.61176ZM0.5 10.834C0.5 10.5272 0.748731 10.2784 1.05556 10.2784H19.9444C20.2513 10.2784 20.5 10.5272 20.5 10.834C20.5 11.1408 20.2513 11.3895 19.9444 11.3895H1.05556C0.748731 11.3895 0.5 11.1408 0.5 10.834ZM0.5 13.0562C0.5 12.7494 0.748731 12.5007 1.05556 12.5007H19.9444C20.2513 12.5007 20.5 12.7494 20.5 13.0562C20.5 13.363 20.2513 13.6118 19.9444 13.6118H1.05556C0.748731 13.6118 0.5 13.363 0.5 13.0562Z" fill="#D22F27"/>
</g>
<defs>
<clipPath id="clip0_16134_17756">
<rect x="0.5" y="4.44531" width="20" height="10.5556" rx="2.7" fill="white"/>
</clipPath>
</defs>
</svg>
