<svg width="21" height="21" viewBox="0 0 21 21" fill="none" xmlns="http://www.w3.org/2000/svg">
<path d="M10.6427 10.5101L1.78516 16.8288C2.26578 17.1745 2.87859 17.377 3.62578 17.377H17.3758C19.4467 17.377 20.5008 15.8379 20.5008 13.9395V10.502H10.6308L10.6427 10.5101Z" fill="#EC1C24"/>
<path d="M17.3755 3.625H3.62547C2.93766 3.625 2.36297 3.79781 1.90234 4.09375L10.6305 10.5H20.5005V7.0625C20.5005 5.16406 19.4464 3.625 17.3755 3.625Z" fill="#E6E7E8"/>
<path d="M10.63 10.5L1.90188 4.09375C0.972813 4.68969 0.5 5.79437 0.5 7.0625V13.9375C0.5 15.1509 0.932813 16.2153 1.78438 16.8269L10.6419 10.5084L10.63 10.5Z" fill="#1B75BB"/>
</svg>
