<svg width="25" height="24" viewBox="0 0 25 24" fill="none" xmlns="http://www.w3.org/2000/svg">
<path d="M24.5 18.0007C24.5 18.7079 24.219 19.3862 23.719 19.8863C23.2189 20.3864 22.5406 20.6673 21.8333 20.6673H16.5V3.33398H21.8333C22.5406 3.33398 23.2189 3.61494 23.719 4.11503C24.219 4.61513 24.5 5.29341 24.5 6.00065V18.0007Z" fill="#ED2939"/>
<path d="M3.16667 3.33398C2.45942 3.33398 1.78115 3.61494 1.28105 4.11503C0.780952 4.61513 0.5 5.29341 0.5 6.00065L0.5 18.0007C0.5 18.7079 0.780952 19.3862 1.28105 19.8863C1.78115 20.3864 2.45942 20.6673 3.16667 20.6673H8.5V3.33398H3.16667Z" fill="#002495"/>
<path d="M8.5 3.33398H16.5V20.6673H8.5V3.33398Z" fill="#EEEEEE"/>
</svg>
