<svg width="25" height="24" viewBox="0 0 25 24" fill="none" xmlns="http://www.w3.org/2000/svg">
<path d="M0.5 18.0007C0.5 18.7079 0.780952 19.3862 1.28105 19.8863C1.78115 20.3864 2.45942 20.6673 3.16667 20.6673H21.8333C22.5406 20.6673 23.2189 20.3864 23.719 19.8863C24.219 19.3862 24.5 18.7079 24.5 18.0007V15.334H0.5V18.0007Z" fill="#FFCD05"/>
<path d="M0.5 9.33398H24.5V15.334H0.5V9.33398Z" fill="#ED1F24"/>
<path d="M21.8333 3.33398H3.16667C2.45942 3.33398 1.78115 3.61494 1.28105 4.11503C0.780952 4.61513 0.5 5.29341 0.5 6.00065L0.5 9.33398H24.5V6.00065C24.5 5.29341 24.219 4.61513 23.719 4.11503C23.2189 3.61494 22.5406 3.33398 21.8333 3.33398Z" fill="#141414"/>
</svg>
