<svg width="20" height="20" viewBox="0 0 20 20" fill="none" xmlns="http://www.w3.org/2000/svg">
<path d="M3.12492 16.875H16.8749C18.1909 16.875 19.0943 16.2525 19.5793 15.3125H0.419922C0.904922 16.2531 1.80836 16.875 3.1243 16.875M19.578 4.6875C19.0927 3.74687 18.1896 3.125 16.8737 3.125H7.81117V4.6875H19.578Z" fill="#194992"/>
<path d="M0.420625 15.3125H19.58C19.8159 14.8556 19.9475 14.3222 19.9844 13.75H0.0165625C0.0534375 14.3222 0.185 14.8556 0.420938 15.3125M7.8125 6.25H19.9838C19.9469 5.67781 19.8153 5.14437 19.5794 4.6875H7.8125V6.25ZM7.8125 9.0625H20V7.76438L7.8125 7.77656V9.0625ZM0 10.625V12.1875H20V10.625H7.8125H0Z" fill="#E6E7E8"/>
<path d="M19.9838 6.25H7.8125V7.8125H20V6.5625C20 6.45625 19.9903 6.35375 19.9838 6.25ZM0 13.4375C0 13.5437 0.0096875 13.6462 0.01625 13.75H19.9838C19.9903 13.6462 20 13.5437 20 13.4375V12.1875H0V13.4375ZM7.8125 9.0625H20V10.625H7.8125V9.0625ZM3.125 3.125C1.80906 3.125 0.905625 3.7475 0.420625 4.6875C0.184687 5.14438 0.053125 5.67781 0.01625 6.25C0.0096875 6.35375 0 6.45625 0 6.5625V10.625H7.8125V3.125H3.125Z" fill="#194992"/>
<path d="M4.6875 3.125H3.125V6.25H0.01625C0.0096875 6.35375 0 6.45625 0 6.5625V7.8125H3.125V10.625H4.6875V7.8125H7.8125V6.25H4.6875V3.125Z" fill="#E6E7E8"/>
</svg>
