<svg width="21" height="21" viewBox="0 0 21 21" fill="none" xmlns="http://www.w3.org/2000/svg">
<path d="M0.5 7.375H20.5V13.625H0.5V7.375Z" fill="#E6E7E8"/>
<path fill-rule="evenodd" clip-rule="evenodd" d="M12.822 9.14406C12.7341 9.295 12.6545 9.43313 12.5741 9.5725C12.4141 9.84844 12.2563 10.125 12.0945 10.4C12.0654 10.4494 12.0641 10.4862 12.0938 10.5372C12.3248 10.9316 12.5532 11.3281 12.782 11.7244C12.7929 11.7441 12.8038 11.7662 12.8191 11.7959H12.7388C12.2784 11.7964 11.8181 11.7956 11.3579 11.7937C11.3063 11.7937 11.2804 11.8113 11.2557 11.855C11.0257 12.255 10.7949 12.6553 10.5632 13.0559C10.5529 13.0747 10.5407 13.0922 10.5254 13.1169C10.5101 13.0944 10.4979 13.0769 10.487 13.0584C10.257 12.66 10.0263 12.2631 9.79914 11.8644C9.77039 11.8128 9.74039 11.7934 9.6807 11.7934C9.22539 11.7969 8.76977 11.7956 8.31352 11.7956H8.22883C8.24539 11.7659 8.25633 11.7434 8.26883 11.7216C8.49758 11.3234 8.72727 10.9247 8.95977 10.5281C8.98445 10.4834 8.98445 10.4519 8.95789 10.4087C8.72914 10.0159 8.50195 9.62031 8.27414 9.22625C8.2607 9.20156 8.24789 9.1775 8.22852 9.14375H8.31008C8.76539 9.14375 9.22258 9.1425 9.67664 9.14437C9.73539 9.14437 9.76727 9.12938 9.79695 9.07781C10.0235 8.68 10.2541 8.28375 10.4823 7.88844C10.4932 7.86812 10.5073 7.84719 10.5229 7.82031C10.5395 7.84656 10.5526 7.865 10.5641 7.885C10.7935 8.28094 11.0226 8.67594 11.2488 9.07344C11.2801 9.12781 11.3141 9.14437 11.3738 9.14437C11.8273 9.1425 12.2801 9.14375 12.7348 9.14375L12.822 9.14406ZM10.521 11.3828C10.6776 11.3828 10.8335 11.3822 10.9904 11.3841C11.032 11.3841 11.0579 11.3725 11.0798 11.3347C11.2363 11.0619 11.3923 10.7891 11.552 10.5175C11.572 10.4834 11.572 10.4566 11.5513 10.4216C11.392 10.1487 11.2357 9.87656 11.0791 9.60312C11.0595 9.56844 11.0366 9.55375 10.9957 9.55531C10.6801 9.55625 10.3645 9.55625 10.052 9.55531C10.0104 9.55375 9.98852 9.57031 9.9682 9.60469C9.8132 9.87594 9.6582 10.1469 9.49945 10.4162C9.47633 10.4566 9.47695 10.4847 9.49945 10.5237C9.65862 10.7935 9.81487 11.0643 9.9682 11.3359C9.98883 11.3703 10.0116 11.3844 10.052 11.3844C10.2098 11.3822 10.3645 11.3828 10.521 11.3828ZM9.23101 10.8834C9.1332 11.055 9.04195 11.2122 8.94789 11.3769H9.51602C9.42039 11.2119 9.33133 11.0556 9.23101 10.8834ZM11.817 10.8834C11.7176 11.0559 11.6282 11.2128 11.5332 11.3769H12.1026L11.817 10.8834ZM8.94539 9.56063C9.04289 9.72875 9.13414 9.88594 9.2307 10.0553L9.51633 9.56063H8.94539ZM11.5323 9.56063L11.8176 10.0553C11.9163 9.88312 12.0073 9.72531 12.1026 9.56063H11.5323ZM10.2385 9.13812H10.8095C10.7126 8.97219 10.622 8.81344 10.5241 8.64469C10.4254 8.81531 10.3354 8.9725 10.2385 9.13812ZM10.2373 11.7978C10.3357 11.9675 10.4263 12.1256 10.5241 12.295C10.6241 12.1225 10.7145 11.9647 10.8095 11.7978H10.2373Z" fill="#1B75BB"/>
<path d="M3.62461 17.375H17.3746C18.8312 17.375 19.7824 16.6122 20.2199 15.5H0.779297C1.2168 16.6122 2.16805 17.375 3.62461 17.375ZM17.3746 3.625H3.62461C2.16805 3.625 1.2168 4.38781 0.779297 5.5H20.2199C19.7821 4.38781 18.8312 3.625 17.3746 3.625Z" fill="#E6E7E8"/>
<path d="M20.5 7.0625C20.5 6.49906 20.4047 5.96937 20.2203 5.5H0.779687C0.595313 5.96937 0.5 6.49906 0.5 7.0625V7.375H20.5V7.0625ZM20.5 13.625H0.5V13.9375C0.5 14.5009 0.595313 15.0306 0.779687 15.5H20.2203C20.4044 15.0306 20.4997 14.5009 20.4997 13.9375L20.5 13.625Z" fill="#1B75BB"/>
</svg>
