<svg width="20" height="20" viewBox="0 0 20 20" fill="none" xmlns="http://www.w3.org/2000/svg">
<path d="M20.0007 14.9996C20.0007 15.5889 19.7665 16.1542 19.3498 16.5709C18.933 16.9877 18.3678 17.2218 17.7784 17.2218H13.334V2.77734H17.7784C18.3678 2.77734 18.933 3.01147 19.3498 3.42822C19.7665 3.84496 20.0007 4.4102 20.0007 4.99957V14.9996Z" fill="#CE2B37"/>
<path d="M2.22222 2.77734C1.63285 2.77734 1.06762 3.01147 0.650874 3.42822C0.234126 3.84496 0 4.4102 0 4.99957L0 14.9996C0 15.5889 0.234126 16.1542 0.650874 16.5709C1.06762 16.9877 1.63285 17.2218 2.22222 17.2218H6.66667V2.77734H2.22222Z" fill="#009246"/>
<path d="M6.66602 2.77734H13.3327V17.2218H6.66602V2.77734Z" fill="#EEEEEE"/>
</svg>
