<svg width="24" height="24" viewBox="0 0 24 24" fill="none" xmlns="http://www.w3.org/2000/svg">
<path d="M24 18.0007C24 18.7079 23.719 19.3862 23.219 19.8863C22.7189 20.3864 22.0406 20.6673 21.3333 20.6673H2.66667C1.95942 20.6673 1.28115 20.3864 0.781049 19.8863C0.280952 19.3862 0 18.7079 0 18.0007V6.00065C0 5.29341 0.280952 4.61513 0.781049 4.11503C1.28115 3.61494 1.95942 3.33398 2.66667 3.33398H21.3333C22.0406 3.33398 22.7189 3.61494 23.219 4.11503C23.719 4.61513 24 5.29341 24 6.00065V18.0007Z" fill="#EEEEEE"/>
<path d="M12.0007 16.6673C14.578 16.6673 16.6673 14.578 16.6673 12.0007C16.6673 9.42332 14.578 7.33398 12.0007 7.33398C9.42332 7.33398 7.33398 9.42332 7.33398 12.0007C7.33398 14.578 9.42332 16.6673 12.0007 16.6673Z" fill="#ED1B2F"/>
</svg>
