<svg width="21" height="20" viewBox="0 0 21 20" fill="none" xmlns="http://www.w3.org/2000/svg">
<path d="M1.1025 15.625H19.8962C20.0841 15.3462 20.2259 15.0297 20.3259 14.6875H0.671875C0.771875 15.0297 0.91375 15.3462 1.10156 15.625" fill="#EC1C24"/>
<path d="M8.3125 5.3125H20.3269C20.2269 4.97031 20.085 4.65375 19.8972 4.375H8.31281L8.3125 5.3125Z" fill="#E6E7E8"/>
<path d="M8.3125 6.25H20.4891C20.47 5.93244 20.4156 5.618 20.3269 5.3125H8.3125V6.25Z" fill="#EC1C24"/>
<path d="M20.4891 6.25H8.3125V7.1875H20.5V6.5625C20.5 6.45687 20.4953 6.35313 20.4891 6.25Z" fill="#E6E7E8"/>
<path d="M8.3125 7.1875H20.5V8.125H8.3125V7.1875Z" fill="#EC1C24"/>
<path d="M8.3125 8.125H20.5V9.0625H8.3125V8.125Z" fill="#E6E7E8"/>
<path d="M8.3125 9.0625H20.5V10H8.3125V9.0625Z" fill="#EC1C24"/>
<path d="M8.3125 10H20.5V10.9375H8.3125V10Z" fill="#E6E7E8"/>
<path d="M0.5 10.9375V11.875H20.5V10.9375H8.3125H0.5Z" fill="#EC1C24"/>
<path d="M0.5 11.875H20.5V12.8125H0.5V11.875Z" fill="#E6E7E8"/>
<path d="M0.5 13.4375C0.5 13.5431 0.504688 13.6469 0.510937 13.75H20.4891C20.4953 13.6469 20.5 13.5431 20.5 13.4375V12.8125H0.5V13.4375Z" fill="#EC1C24"/>
<path d="M0.673906 14.6875H20.328C20.4164 14.3819 20.4708 14.0675 20.4902 13.75H0.511719C0.531038 14.0675 0.585432 14.3819 0.673906 14.6875Z" fill="#E6E7E8"/>
<path d="M19.8969 4.375C19.3822 3.61156 18.5391 3.125 17.375 3.125H8.3125V4.375H19.8969Z" fill="#EC1C24"/>
<path d="M3.62539 16.875H17.3754C18.5401 16.875 19.3829 16.3884 19.8973 15.625H1.10352C1.6182 16.3884 2.46102 16.875 3.62539 16.875Z" fill="#E6E7E8"/>
<path d="M3.62469 3.125C2.46 3.125 1.61719 3.61156 1.10281 4.375C0.915 4.65375 0.773125 4.97031 0.673125 5.3125C0.584651 5.61806 0.530257 5.93247 0.510937 6.25C0.504688 6.35313 0.5 6.45688 0.5 6.5625V10.9375H8.3125V3.125H3.625" fill="#2B3990"/>
<path fill-rule="evenodd" clip-rule="evenodd" d="M5.13823 8.31784C4.72604 8.96222 3.86573 9.36784 2.96511 9.10597C2.11761 8.85691 1.53417 8.03409 1.58292 7.14784C1.62979 6.25597 2.29792 5.49909 3.16792 5.34472C4.08979 5.18003 4.82948 5.67472 5.14573 6.19159C4.77167 5.82378 4.33511 5.65784 3.82573 5.71628C3.42604 5.76159 3.09136 5.94222 2.83011 6.24753C2.31854 6.84284 2.33792 7.73597 2.87229 8.29878C3.17792 8.62066 3.55511 8.78878 4.00073 8.79284C4.44479 8.79659 4.82261 8.62847 5.13823 8.31784Z" fill="#F9CB38"/>
<path fill-rule="evenodd" clip-rule="evenodd" d="M5.62391 7.73664C5.42557 7.84039 5.22734 7.94341 5.02922 8.0457C5.02672 8.04352 5.02578 8.04102 5.02328 8.03914C5.17109 7.87445 5.31766 7.70883 5.46578 7.54258C5.46495 7.5384 5.46369 7.53431 5.46203 7.53039C5.24078 7.53758 5.01672 7.54695 4.79422 7.55445C4.7938 7.5507 4.79297 7.54768 4.79172 7.54539C4.99484 7.46008 5.19953 7.37258 5.40328 7.2882C5.40307 7.28404 5.40349 7.27987 5.40453 7.2757L4.78516 7.01164C4.7862 7.00997 4.78661 7.00768 4.78641 7.00477C5.0112 7.01414 5.23609 7.0232 5.46109 7.03195C5.46203 7.02883 5.46484 7.02477 5.46672 7.01977L5.03016 6.5257C5.03141 6.52258 5.03307 6.51966 5.03516 6.51695C5.23203 6.62039 5.43016 6.7232 5.64078 6.83352L5.46234 6.18477C5.46516 6.18227 5.46703 6.18133 5.46984 6.17914C5.60172 6.35633 5.73422 6.53195 5.86672 6.70945H5.88016C5.9212 6.49424 5.96245 6.27924 6.00391 6.06445H6.01359C6.05328 6.27945 6.09484 6.4932 6.13859 6.7232L6.54922 6.17914L6.55578 6.18227C6.49672 6.39414 6.43641 6.6057 6.37828 6.81758C6.38047 6.82102 6.38391 6.82445 6.38547 6.82758C6.58255 6.72654 6.77911 6.62529 6.97516 6.52383C6.97734 6.52727 6.98078 6.52852 6.98266 6.53164C6.83807 6.69518 6.69349 6.8582 6.54891 7.0207C6.54891 7.02445 6.55109 7.02852 6.55109 7.03289C6.77276 7.02518 6.99401 7.01706 7.21484 7.00852C7.21609 7.01164 7.21714 7.01529 7.21797 7.01945C7.01464 7.10466 6.81193 7.19018 6.60984 7.27602C6.60859 7.2806 6.60807 7.28456 6.60828 7.28789C6.8162 7.37685 7.02391 7.46539 7.23141 7.55352L7.22922 7.56008C7.00422 7.55049 6.77859 7.54112 6.55234 7.53195C6.55089 7.5357 6.54901 7.53987 6.54672 7.54445C6.69359 7.70945 6.83984 7.87602 6.98641 8.04133C6.98531 8.044 6.98332 8.04621 6.98078 8.04758L6.38734 7.7382L6.37578 7.74477C6.43391 7.95664 6.49234 8.1682 6.55109 8.37945C6.54839 8.38154 6.54578 8.3832 6.54328 8.38445L6.14578 7.85383C6.14141 7.85445 6.13859 7.8557 6.13359 7.85633C6.09172 8.07164 6.05016 8.28883 6.00922 8.50414C6.00589 8.50497 6.00328 8.50529 6.00141 8.50508C5.95995 8.28841 5.91911 8.07195 5.87891 7.8557L5.86672 7.85258L5.46609 8.38445C5.46234 8.38289 5.46016 8.38289 5.45859 8.38039C5.51734 8.16831 5.57682 7.95643 5.63703 7.74477L5.62391 7.73664Z" fill="#F9CB38"/>
</svg>
