<svg width="20" height="20" viewBox="0 0 20 20" fill="none" xmlns="http://www.w3.org/2000/svg">
<path d="M3.125 3.125C1.05406 3.125 0 4.66406 0 6.5625V13.4375C0 15.3359 1.05406 16.875 3.125 16.875H6.25V3.125H3.125Z" fill="#E6E7E8"/>
<path d="M16.875 3.125H6.25V16.875H16.875C18.9459 16.875 20 15.3359 20 13.4375V6.5625C20 4.66406 18.9459 3.125 16.875 3.125Z" fill="#006838"/>
<path d="M13.9095 6.72656L14.617 7.38313L15.5576 7.17344L15.152 8.05031L15.6426 8.88156L14.6823 8.76469L14.0435 9.48938L13.8582 8.5425L12.9707 8.15781L13.8145 7.68719L13.9095 6.72656Z" fill="#E6E7E8"/>
<path d="M16.3654 11.0398C15.0213 12.3841 12.8429 12.3841 11.4985 11.0398C10.1541 9.69539 10.1541 7.51695 11.4985 6.17289C11.5913 6.08039 11.6882 5.9957 11.7882 5.91602C11.0989 6.09077 10.4696 6.44834 9.96664 6.95102C8.41477 8.5032 8.41477 11.0198 9.96664 12.572C11.5195 14.1238 14.0354 14.1238 15.5876 12.572C16.0903 12.069 16.4478 11.4397 16.6226 10.7504C16.5419 10.8512 16.456 10.9478 16.3654 11.0398Z" fill="#E6E7E8"/>
</svg>
