<svg width="20" height="20" viewBox="0 0 20 20" fill="none" xmlns="http://www.w3.org/2000/svg">
<path d="M17.7778 2.77734H2.22222C1.63285 2.77734 1.06762 3.01147 0.650874 3.42822C0.234126 3.84496 0 4.4102 0 4.99957L0 14.9996C0 15.5889 0.234126 16.1542 0.650874 16.5709C1.06762 16.9877 1.63285 17.2218 2.22222 17.2218H17.7778C18.3671 17.2218 18.9324 16.9877 19.3491 16.5709C19.7659 16.1542 20 15.5889 20 14.9996V4.99957C20 4.4102 19.7659 3.84496 19.3491 3.42822C18.9324 3.01147 18.3671 2.77734 17.7778 2.77734Z" fill="#006C35"/>
<path d="M4.95453 7.8052C5.30564 7.83854 5.11175 7.21131 5.23898 7.09743C5.26286 7.04131 5.30731 7.04076 5.31064 7.11187V7.64409C5.30731 7.81743 5.4212 7.86798 5.50953 7.90409C5.60175 7.89687 5.66286 7.9002 5.69898 7.98965L5.74231 8.91076C5.74231 8.91076 5.95564 8.97187 5.96564 8.39243C5.9762 8.05243 5.89786 7.76798 5.94398 7.70187C5.94564 7.63687 6.02842 7.63298 6.0862 7.66465C6.17786 7.72909 6.21898 7.80909 6.3612 7.77743C6.57842 7.71798 6.70842 7.61243 6.71175 7.44576C6.69898 7.28743 6.6812 7.12909 6.61286 6.97076C6.62231 6.94187 6.5712 6.86743 6.58064 6.83854C6.61953 6.89965 6.67898 6.89465 6.69231 6.83854C6.65564 6.71687 6.59842 6.6002 6.50509 6.54965C6.42842 6.48187 6.3162 6.49576 6.27509 6.63687C6.2562 6.79909 6.33398 6.99243 6.45175 7.14965C6.47675 7.21131 6.51231 7.31354 6.49675 7.40576C6.43398 7.44132 6.37064 7.42687 6.31842 7.37131C6.31842 7.37131 6.14564 7.24187 6.14564 7.21298C6.19175 6.91965 6.1562 6.88631 6.13064 6.8052C6.11286 6.69298 6.05953 6.65687 6.0162 6.5802C5.97286 6.53465 5.91453 6.53465 5.88675 6.5802C5.81009 6.71243 5.84564 6.99687 5.9012 7.12409C5.94064 7.24076 6.00175 7.31465 5.97286 7.31465C5.94898 7.38076 5.90009 7.3652 5.86453 7.28909C5.81342 7.13132 5.80342 6.89631 5.80342 6.7902C5.78786 6.65909 5.7712 6.37854 5.68509 6.30743C5.63231 6.23576 5.55398 6.2702 5.52675 6.33631C5.5212 6.46631 5.52009 6.59687 5.53509 6.71743C5.59398 6.92798 5.61286 7.11354 5.64175 7.32965C5.64953 7.61909 5.47453 7.4552 5.48231 7.31187C5.52286 7.12576 5.51231 6.83243 5.4762 6.75798C5.44786 6.68409 5.41398 6.6652 5.34509 6.67743C5.29064 6.67298 5.14953 6.82743 5.10953 7.08298C5.10953 7.08298 5.07564 7.21465 5.0612 7.33187C5.04175 7.46409 4.95509 7.55743 4.89398 7.31354C4.8412 7.13631 4.80898 6.69909 4.72064 6.80131C4.69509 7.14298 4.66453 7.74409 4.95453 7.8052Z" fill="white"/>
<path d="M5.4831 8.05469C5.19421 8.06024 4.77143 8.43413 4.75977 8.64135C5.06421 8.49469 5.36365 8.35358 5.67366 8.20247C5.62366 8.12747 5.67088 8.06024 5.4831 8.05469Z" fill="white"/>
<path d="M7.07548 9.176C7.20936 8.72989 7.05381 8.401 7.12659 8.40266C7.28048 8.56877 7.49603 8.42489 7.54325 8.36711C7.56381 8.33822 7.61436 8.31933 7.64992 8.35711C7.77048 8.44377 7.9827 8.40266 8.02659 8.25044C8.05439 8.09756 8.07147 7.94292 8.0777 7.78766C7.97936 7.81822 7.90603 7.83877 7.89936 7.87933L7.87881 8.01155C7.87048 8.05433 7.78548 8.056 7.78214 8.00155C7.74492 7.83211 7.59048 7.80988 7.49714 8.07266C7.43436 8.12377 7.32103 8.13377 7.30881 8.05766C7.32381 7.88155 7.2527 7.85766 7.11048 7.94044C7.06492 7.591 7.01881 7.25711 6.97325 6.90766C7.0327 6.906 7.08714 6.94989 7.14103 6.88211C7.08159 6.69711 6.95603 6.31933 6.88659 6.29211C6.8527 6.251 6.82381 6.27655 6.77992 6.28711C6.70548 6.311 6.63603 6.37544 6.6577 6.50044C6.74603 7.03655 6.80381 7.44488 6.89159 7.981C6.90492 8.04377 6.8527 8.12655 6.78492 8.11822C6.66992 8.04044 6.64103 7.88266 6.44436 7.88933C6.30159 7.891 6.13881 8.04544 6.11881 8.19488C6.09492 8.31322 6.08659 8.44211 6.11881 8.546C6.21881 8.666 6.33936 8.65433 6.44436 8.62711C6.53048 8.59155 6.60214 8.50488 6.63214 8.52544C6.6527 8.55044 6.63714 8.83544 6.22548 9.05433C5.97603 9.166 5.7777 9.19155 5.67103 8.98822C5.60492 8.861 5.67603 8.37766 5.51325 8.48988C5.03159 9.73155 6.64103 9.90377 6.82103 8.541C6.83825 8.48488 6.90603 8.42877 6.9177 8.52044C6.88048 9.75488 5.6727 9.83988 5.4677 9.45155C5.41659 9.35988 5.40159 9.15655 5.39659 9.03433C5.36603 8.79155 5.23881 8.88488 5.21881 9.12544C5.19825 9.25933 5.20381 9.29711 5.20381 9.42544C5.2677 10.4004 6.82325 9.98155 7.07548 9.176ZM6.47548 8.33266C6.46548 8.35155 6.42159 8.34377 6.38936 8.34377C6.3527 8.34211 6.33548 8.336 6.31325 8.30655C6.30325 8.27322 6.33436 8.24155 6.34825 8.21655C6.36548 8.18711 6.45825 8.15655 6.49103 8.23877C6.49698 8.2544 6.49868 8.27133 6.49594 8.28782C6.49321 8.30432 6.48615 8.31979 6.47548 8.33266Z" fill="white"/>
<path d="M7.5569 7.22824C7.65357 7.19269 8.1119 6.6688 8.1119 6.6688C8.08801 6.64824 8.0669 6.63324 8.04301 6.61269C8.01746 6.59046 8.02024 6.56824 8.04301 6.54657C8.15635 6.48046 8.12024 6.33546 8.06079 6.26935C8.02228 6.2507 7.97999 6.2412 7.9372 6.24158C7.89441 6.24197 7.85229 6.25223 7.81413 6.27157C7.73468 6.34769 7.71579 6.46991 7.77857 6.54657C7.83968 6.57546 7.90079 6.63713 7.86024 6.67102C7.67301 6.87102 7.15968 7.21602 7.21913 7.22824C7.2319 7.24491 7.5469 7.24435 7.5569 7.22824ZM7.89635 6.40546C7.92579 6.39824 7.96357 6.42435 7.98135 6.46324C7.99913 6.50213 7.98968 6.53935 7.96079 6.54657H7.95968C7.93079 6.5538 7.89301 6.52769 7.87524 6.4888C7.85801 6.44935 7.86746 6.41269 7.89635 6.40546ZM4.92357 9.5888C4.84801 9.74269 4.81635 9.63713 4.80968 9.55102C4.80121 9.4064 4.80847 9.26129 4.83135 9.11824C4.85024 8.99602 4.83135 9.03324 4.79246 9.08269C4.62079 9.35602 4.60579 9.76491 4.70079 9.88657C4.75079 9.94435 4.83357 9.96991 4.89524 9.95102C5.00301 9.90435 5.05024 9.68546 5.02468 9.60602C4.98801 9.54991 4.95968 9.54102 4.92357 9.5888ZM10.5797 6.69546C10.7775 6.96102 10.9652 7.23157 11.1491 7.50713C11.1854 7.74528 11.2113 7.97991 11.2269 8.21102C11.2575 8.65769 11.2663 9.14102 11.2386 9.61157C11.3219 9.61491 11.4569 9.47602 11.5036 9.27324C11.5341 8.99269 11.4925 8.49324 11.4897 8.32769C11.486 8.22392 11.481 8.12021 11.4747 8.01657C11.6936 8.37435 11.9069 8.7488 12.1152 9.16491C12.1913 9.12935 12.1747 8.7038 12.1302 8.6438C11.9636 8.28657 11.7341 7.93324 11.6608 7.79769C11.6336 7.74769 11.5408 7.60546 11.4302 7.44269C11.4204 7.31281 11.4048 7.18342 11.3836 7.05491C11.3491 6.81713 11.4819 7.08102 11.4636 6.94269C11.4208 6.70491 11.2886 6.54435 11.1341 6.32657C11.0841 6.25602 11.0858 6.24157 11.0086 6.3438C10.9818 6.4052 10.9693 6.47186 10.9719 6.5388C10.9475 6.50356 10.9217 6.46927 10.8947 6.43602L10.6419 6.22046C10.5858 6.18046 10.4491 6.10824 10.4247 6.22824C10.4139 6.31238 10.418 6.39776 10.4369 6.48046C10.4513 6.53991 10.5375 6.6388 10.5797 6.69546ZM10.9908 6.68213C11.0013 6.72824 11.0125 6.77435 11.0197 6.82157L11.028 6.86657C11.0046 6.83407 10.9804 6.80221 10.9552 6.77102C10.8641 6.66324 10.9397 6.68657 10.9908 6.68213Z" fill="white"/>
<path d="M12.1777 9.27371C11.9844 9.47537 11.7055 9.72371 11.4021 9.83871C11.3694 9.87537 11.4833 10.0326 11.6299 10.0326C11.876 10.0037 12.0927 9.86537 12.2933 9.50148C12.3471 9.41704 12.4416 9.23537 12.4438 9.09426C12.4621 8.26871 12.4027 7.62593 12.2788 7.02926C12.2705 6.98139 12.2728 6.93228 12.2855 6.88537C12.301 6.86648 12.3555 6.88537 12.3844 6.83871C12.426 6.79537 12.2727 6.43982 12.1849 6.30315C12.1538 6.24204 12.1433 6.20093 12.0916 6.31037C12.0371 6.39926 12.001 6.55426 12.0055 6.69871C12.1227 7.51148 12.1588 8.22315 12.2355 9.03593C12.2416 9.11426 12.2299 9.22871 12.1777 9.27371ZM15.4166 7.2126C15.4083 7.15482 15.3827 7.02037 15.3927 7.00315C15.4083 6.96204 15.4888 7.0076 15.5177 6.96037C15.5599 6.9176 15.3099 6.59648 15.2227 6.45982C15.191 6.39871 15.1805 6.3576 15.1288 6.46704C15.0744 6.55593 15.0555 6.71537 15.0771 6.85537C15.2077 7.73815 15.3049 8.40148 15.3249 9.18426C15.3133 9.25871 15.311 9.29871 15.276 9.39204C15.1988 9.49093 15.1138 9.61426 15.0333 9.67426C14.9533 9.73371 14.7827 9.79093 14.7266 9.83482C14.5505 9.93759 14.5499 10.0548 14.6933 10.0587C14.9388 10.0298 15.2299 10.0098 15.4305 9.70648C15.4844 9.62204 15.5483 9.3926 15.551 9.25148C15.5694 8.42593 15.5405 7.80926 15.4166 7.2126ZM13.5549 7.89982C13.5571 7.78648 13.5677 7.63648 13.5738 7.5426C13.5766 7.5076 13.5849 7.46815 13.6183 7.45926C13.6521 7.45037 13.7121 7.49371 13.7127 7.45704C13.706 7.38537 13.6916 7.27871 13.651 7.22815C13.5955 7.14593 13.4483 7.16593 13.4221 7.29482C13.4227 7.34259 13.4444 7.36815 13.4405 7.41148C13.4338 7.43593 13.4083 7.4526 13.3477 7.42371C13.3577 7.41482 13.3083 7.34648 13.3083 7.34648C13.261 7.3176 13.1977 7.34815 13.1571 7.37426C13.1426 7.40233 13.134 7.43305 13.1317 7.46456C13.1294 7.49607 13.1335 7.52773 13.1438 7.5576C13.2105 7.68371 13.4433 7.8976 13.5549 7.89982Z" fill="white"/>
<path d="M13.4758 6.93361L13.9719 7.54083C14.008 7.99972 14.0174 8.37528 14.053 8.83417C14.048 9.02861 13.988 9.19806 13.9308 9.2225C13.9308 9.2225 13.8447 9.2725 13.7869 9.2175C13.7447 9.20028 13.5763 8.93695 13.5763 8.93695C13.4902 8.85806 13.4336 8.88028 13.3724 8.93695C13.2036 9.09972 13.1274 9.40528 13.013 9.61528C12.983 9.6625 12.8997 9.7025 12.8069 9.61195C12.5719 9.29028 12.7097 8.83306 12.6808 8.95083C12.4713 9.18694 12.5636 9.5775 12.6108 9.66195C12.6797 9.79972 12.7358 9.88861 12.8702 9.95695C12.9924 10.0469 13.088 9.99028 13.1402 9.9275C13.2636 9.79917 13.2652 9.47417 13.323 9.40861C13.363 9.29028 13.4658 9.31028 13.5152 9.36306C13.5609 9.42661 13.6208 9.47856 13.6902 9.51472C13.8052 9.61639 13.9424 9.63472 14.0774 9.54195C14.1697 9.49028 14.2302 9.42306 14.2841 9.29028C14.3441 9.13028 14.3113 8.39472 14.2991 7.95361C14.3852 8.06472 14.4691 8.18083 14.5541 8.29695C14.5913 8.66528 14.6124 9.03194 14.6002 9.40639C14.5913 9.48139 14.8613 9.18417 14.8591 9.04306V8.72861C14.9891 8.92417 15.1158 9.12583 15.2347 9.33917C15.3091 9.30028 15.2847 8.88083 15.2374 8.82306C15.1002 8.59306 14.9174 8.35361 14.7913 8.1825C14.783 8.16083 14.7786 8.13639 14.7686 8.11583C14.718 7.99861 14.7497 7.90417 14.7258 7.77972C14.7024 7.65472 14.7086 7.46806 14.6724 7.31972C14.6624 7.26195 14.6324 7.07639 14.6413 7.05917C14.6558 7.0175 14.7113 7.06028 14.7386 7.0125C14.7791 6.96806 14.598 6.49861 14.5058 6.36417C14.4724 6.30417 14.4124 6.32472 14.338 6.4225C14.2697 6.48695 14.2952 6.63361 14.3213 6.77306C14.3863 7.11083 14.4408 7.43472 14.4874 7.75528C14.3875 7.62246 14.2866 7.49042 14.1847 7.35917L14.1802 7.33472C14.1802 7.32861 14.1652 7.04361 14.1519 6.97583C14.1497 6.94861 14.143 6.94028 14.1719 6.94361C14.2024 6.96917 14.2063 6.97083 14.2258 6.97972C14.2569 6.98528 14.2841 6.9325 14.2658 6.88417L13.9786 6.35528C13.9558 6.3325 13.9258 6.30806 13.8897 6.36139C13.8671 6.38088 13.8491 6.40503 13.8368 6.43218C13.8245 6.45933 13.8183 6.48882 13.8186 6.51861C13.8274 6.64361 13.8491 6.77139 13.8574 6.89695L13.8697 6.96472C13.8569 6.94972 13.8413 6.93083 13.8347 6.92417C13.5908 6.6675 13.9469 6.8825 13.788 6.68417C13.6536 6.53639 13.6147 6.49028 13.4991 6.40139C13.4413 6.36417 13.4063 6.29306 13.3874 6.41417C13.3785 6.5204 13.3758 6.62706 13.3791 6.73361C13.3791 6.78472 13.4308 6.87806 13.4758 6.93361ZM8.53077 7.53306C8.67077 7.59083 8.76022 7.32417 8.818 7.03195C8.85688 6.94972 8.88688 6.94083 8.90688 6.98306C8.90188 7.37195 8.93466 7.45806 9.03466 7.57639C9.25744 7.74861 9.44188 7.59806 9.45688 7.58361L9.63022 7.41028C9.66855 7.36972 9.72022 7.36695 9.77466 7.40306C9.82799 7.45083 9.82077 7.53417 9.93411 7.59195C10.0297 7.63028 10.2341 7.60083 10.2813 7.51861C10.3452 7.40972 10.3608 7.37195 10.3897 7.33083C10.4352 7.27028 10.513 7.2975 10.513 7.31639C10.5058 7.35028 10.4602 7.38417 10.4913 7.44472C10.5458 7.48528 10.558 7.45917 10.5902 7.45028C10.7036 7.39583 10.788 7.15028 10.788 7.15028C10.793 7.05861 10.7419 7.06639 10.7086 7.08528C10.6652 7.11139 10.6624 7.12028 10.6191 7.14695C10.5636 7.15528 10.4563 7.19195 10.4036 7.10972C10.3491 7.01083 10.348 6.87306 10.3069 6.77361C10.3069 6.76639 10.2347 6.61639 10.3019 6.60694C10.3358 6.61306 10.4074 6.63195 10.4191 6.57195C10.4541 6.51306 10.343 6.34528 10.2674 6.26028C10.2013 6.18806 10.1097 6.17917 10.0213 6.25306C9.95911 6.31028 9.96799 6.37361 9.95577 6.43417C9.94532 6.47688 9.94516 6.52146 9.9553 6.56425C9.96544 6.60703 9.9856 6.6468 10.0141 6.68028C10.0758 6.80194 10.1886 6.95917 10.1513 7.17917C10.1513 7.17917 10.0858 7.28361 9.97077 7.27028C9.923 7.25972 9.84522 7.23917 9.80411 6.93361C9.773 6.70195 9.81188 6.37806 9.71355 6.22639C9.678 6.13472 9.65244 6.04639 9.56577 6.20306C9.54244 6.26472 9.44244 6.35806 9.51522 6.55083C9.57466 6.6725 9.59855 6.87083 9.57188 7.09195C9.53077 7.15472 9.52188 7.17583 9.46799 7.23861C9.39244 7.31972 9.31077 7.29917 9.24799 7.26861C9.18911 7.22917 9.14355 7.20861 9.11688 7.08306C9.12188 6.88306 9.133 6.55528 9.09633 6.48583C9.04244 6.37806 8.95355 6.41694 8.91522 6.44972C8.73244 6.61694 8.64244 6.89861 8.58744 7.1225C8.53688 7.28583 8.48299 7.23917 8.44522 7.17306C8.35299 7.08639 8.34688 6.41028 8.23522 6.52194C8.05577 7.02972 8.33633 7.5875 8.53077 7.53306Z" fill="white"/>
<path d="M11.1873 8.62469L11.134 8.59414L10.089 8.58914C10.0351 8.56858 10.0512 8.5508 10.089 8.53636C10.3384 8.50247 10.7823 8.43025 10.8118 8.00414C10.8068 7.78247 10.7162 7.63691 10.444 7.59691C10.2445 7.61247 10.1018 7.80636 10.1245 8.01914C10.1151 8.07691 10.1434 8.18914 10.0851 8.20191C9.70121 8.23691 9.28288 8.47691 9.26899 8.64914C9.24566 8.66525 9.19344 8.61858 9.2001 8.54525C9.18149 8.23158 9.09122 7.92635 8.93621 7.65303C8.8151 7.53191 8.85288 7.57191 8.77177 7.62914C8.71955 7.68914 8.7101 7.73025 8.71288 7.84969C8.71288 7.85414 8.81066 8.12691 8.89344 8.31803C8.94844 8.51414 9.0001 8.73803 8.96288 8.94969C8.83399 9.22969 8.57455 9.4808 8.32455 9.61691C8.19566 9.65858 8.0851 9.64358 8.05788 9.61469C7.97844 9.56136 7.98233 9.46303 7.98844 9.46136C8.19899 9.31414 8.4401 9.1958 8.62899 8.79969C8.68455 8.64858 8.70121 8.55691 8.64621 8.32303C8.63133 8.24047 8.59339 8.16381 8.53677 8.10191C8.57066 8.07969 8.66788 8.15358 8.68288 8.10969C8.6548 7.98164 8.59105 7.86414 8.49899 7.7708C8.42399 7.70247 8.34233 7.69469 8.27344 7.75747C8.19566 7.8008 8.17899 7.95525 8.21621 8.0908C8.25733 8.19303 8.36899 8.21025 8.44899 8.41525C8.44899 8.41969 8.47788 8.56858 8.43677 8.62691C8.40399 8.72914 7.97899 9.06303 7.95566 9.07803C7.94399 9.09247 7.94899 9.0708 7.94733 9.01525C7.94455 8.94747 7.97455 8.78747 7.96621 8.78636C7.82788 8.8758 7.78177 9.14969 7.75677 9.2308C7.40677 9.47247 7.01066 9.65247 6.78177 9.89803C6.66233 10.0841 7.60288 9.68414 7.71233 9.6358C7.73677 9.65358 7.73399 9.73747 7.79955 9.81247C7.89733 9.94469 8.10399 10.0264 8.30677 9.9758C8.64566 9.85303 8.84177 9.62191 9.04066 9.3658C9.06899 9.32414 9.11344 9.29247 9.15455 9.32414C9.29122 9.63025 9.68621 9.84691 10.1957 9.86969C10.314 9.7258 10.2568 9.65636 10.209 9.62636C10.209 9.62191 9.95733 9.52636 9.91899 9.4308C9.89566 9.34414 9.95233 9.26803 10.0657 9.21025C10.3929 9.1708 10.7145 9.12691 11.0262 9.02691C11.0295 8.92247 11.0901 8.7658 11.1318 8.69803C11.1718 8.62914 11.1934 8.64969 11.1873 8.62469ZM10.3279 7.97358C10.3434 7.94747 10.3951 7.94858 10.4434 7.97691C10.4918 8.00525 10.519 8.04914 10.5029 8.07525C10.4873 8.10191 10.4351 8.10025 10.3868 8.07191C10.3384 8.04358 10.3123 8.00025 10.3279 7.97358ZM9.90733 9.02914C9.7951 9.06747 9.68733 9.09747 9.68733 9.25969C9.72899 9.48525 9.6301 9.40803 9.57177 9.37691C9.50288 9.32747 9.30899 9.20803 9.28121 8.95025C9.27677 8.88858 9.3251 8.83691 9.40233 8.83691C9.51844 8.86858 9.6901 8.8708 9.83899 8.88636C9.96066 8.89414 10.0212 8.98969 9.90733 9.02914ZM6.03677 6.52636C6.15677 6.58414 6.38344 6.55969 6.37344 6.36525C6.37344 6.34803 6.36899 6.29025 6.36733 6.27469C6.34288 6.21747 6.27622 6.23136 6.26066 6.2908C6.25566 6.31025 6.26899 6.34136 6.25177 6.35136C6.24177 6.36136 6.20344 6.35525 6.2051 6.30191C6.2051 6.28469 6.19233 6.26636 6.1851 6.2558C6.17733 6.2508 6.17288 6.24914 6.15899 6.24914C6.14233 6.24969 6.14233 6.25414 6.13344 6.26858C6.12955 6.28247 6.12399 6.29691 6.12399 6.31303C6.12177 6.33191 6.11455 6.33858 6.10066 6.34191C6.0851 6.34191 6.08844 6.34358 6.07622 6.33525C6.06844 6.32691 6.05899 6.32358 6.05899 6.30969C6.05874 6.29347 6.05612 6.27738 6.05122 6.26191C6.04418 6.25377 6.03436 6.2484 6.02177 6.2458C5.95622 6.2458 5.95177 6.3208 5.95566 6.34969C5.94955 6.35469 5.94733 6.48914 6.03677 6.52636Z" fill="white"/>
<path d="M9.72903 7.7929C9.72903 7.77567 9.71626 7.7579 9.70903 7.74678C9.70126 7.74178 9.69681 7.74012 9.68292 7.74012C9.66626 7.74067 9.66681 7.74512 9.65737 7.75956C9.65348 7.77401 9.64792 7.7879 9.64792 7.80401C9.64626 7.82345 9.63848 7.83012 9.62459 7.8329C9.60903 7.8329 9.61237 7.83456 9.59959 7.82678C9.59181 7.81845 9.58237 7.81512 9.58237 7.80123C9.58211 7.78501 9.57949 7.76891 9.57459 7.75345C9.56755 7.7453 9.55774 7.74012 9.54514 7.7379C9.47959 7.7379 9.47514 7.8129 9.47848 7.84123C9.47348 7.84678 9.4707 7.98067 9.56014 8.01845C9.6807 8.07567 9.96681 8.04234 9.89681 7.85734C9.89561 7.82692 9.89357 7.79654 9.8907 7.76623C9.86626 7.70901 9.79903 7.72345 9.78403 7.78234C9.77959 7.80178 9.79292 7.8329 9.77514 7.8429C9.76626 7.8529 9.72737 7.84678 9.72903 7.7929ZM11.6163 7.40012C11.7363 7.4579 11.9624 7.43345 11.9524 7.23956C11.9512 7.20914 11.9491 7.17876 11.9463 7.14845C11.9218 7.09123 11.8551 7.10567 11.8401 7.16456C11.8351 7.18401 11.8485 7.21512 11.8307 7.22512C11.8207 7.23512 11.7824 7.22956 11.784 7.17567C11.784 7.15845 11.7713 7.14012 11.764 7.12956C11.7563 7.12456 11.7518 7.1229 11.7374 7.1229C11.7207 7.12401 11.7213 7.1279 11.7118 7.14234C11.7079 7.15678 11.7024 7.17067 11.7024 7.18678C11.7001 7.20623 11.6929 7.2129 11.679 7.21567C11.6635 7.21567 11.6668 7.21734 11.654 7.20956C11.6463 7.20123 11.6374 7.1979 11.6374 7.18401C11.6372 7.1676 11.6345 7.15131 11.6296 7.13567C11.6222 7.12753 11.6122 7.12234 11.5996 7.12012C11.534 7.12012 11.5296 7.19512 11.5335 7.22345C11.5296 7.22901 11.5268 7.3629 11.6163 7.40012ZM11.6974 6.64901C11.7401 6.76901 11.6646 6.88345 11.7096 6.90012C11.7501 6.91901 11.8079 6.77623 11.829 6.64456C11.854 6.5379 11.7779 6.31956 11.6701 6.27456C11.6046 6.25901 11.5113 6.2979 11.5413 6.38567C11.5263 6.4279 11.6735 6.57123 11.6974 6.64901ZM12.8057 9.46234C12.8896 9.4629 12.9863 9.27067 13.0274 9.08012C13.0501 8.8179 13.0118 8.65845 13.0051 8.50401C12.9985 8.34956 12.8313 7.17512 12.7968 7.05845C12.7563 6.8379 12.9596 7.02901 12.9374 6.90067C12.8668 6.73901 12.6918 6.50401 12.6363 6.36345C12.6029 6.30345 12.6174 6.25012 12.5429 6.3479C12.4746 6.5729 12.4507 6.75623 12.4768 6.89623C12.6535 7.81845 12.8346 8.58512 12.8057 9.46234ZM14.8924 7.05123C14.9118 7.11123 14.8629 7.30512 14.9035 7.3229C14.9407 7.3429 14.9929 7.18901 15.0124 7.04623C15.0229 6.9679 14.9657 6.69456 14.8674 6.64567C14.8074 6.62901 14.7224 6.67067 14.7501 6.76623C14.7363 6.81234 14.8707 6.96678 14.8924 7.05123ZM7.60403 9.08234C7.64014 9.09734 7.68959 8.98401 7.70848 8.87901C7.71903 8.82123 7.66348 8.62067 7.56959 8.58456C7.51181 8.57234 7.43292 8.5879 7.45737 8.67345C7.45459 8.71956 7.58514 8.77512 7.59292 8.88234C7.61181 8.92678 7.56514 9.06956 7.60403 9.08234ZM5.07292 6.51845C5.09126 6.56456 5.05459 6.71178 5.09292 6.72567C5.12792 6.74123 5.17737 6.62345 5.1957 6.51512C5.20626 6.45512 5.19792 6.25178 5.05903 6.21012C5.00181 6.19734 4.92237 6.22901 4.94848 6.30178C4.93514 6.33623 5.05237 6.45401 5.07292 6.51845ZM7.79626 7.17012C7.69014 7.2279 7.64848 7.39901 7.71514 7.49845C7.77681 7.58678 7.87459 7.55401 7.88792 7.55401C7.99237 7.56678 8.05403 7.35845 8.05403 7.35845C8.05403 7.35845 8.05737 7.30012 7.93348 7.41067C7.88126 7.42067 7.87459 7.40123 7.86181 7.37123C7.84933 7.31685 7.85499 7.25987 7.87792 7.20901C7.8957 7.15734 7.8557 7.13456 7.79626 7.17012ZM8.59737 6.52956C8.61442 6.5189 8.62906 6.5048 8.64035 6.48815C8.65164 6.4715 8.65933 6.45268 8.66292 6.4329C8.67903 6.35178 8.57681 6.47123 8.56403 6.38067C8.54126 6.29678 8.60681 6.26234 8.66903 6.18123C8.67126 6.12512 8.67014 6.08567 8.59403 6.13123C8.5407 6.16734 8.43403 6.27734 8.4307 6.40401C8.42737 6.47567 8.41403 6.47512 8.46126 6.52067C8.49514 6.57012 8.52903 6.56512 8.59737 6.52956ZM9.31903 6.5729C9.38792 6.38623 9.38792 6.30734 9.39292 6.2279C9.37181 6.10734 9.29014 6.11123 9.23626 6.24512C9.21292 6.29567 9.1857 6.56178 9.19014 6.56178C9.17181 6.64123 9.27292 6.67512 9.31903 6.5729ZM13.8579 7.89678C13.8579 7.89678 13.3007 8.2929 13.2874 8.30678C13.2318 8.35567 13.2596 8.52901 13.2874 8.50901C13.3268 8.52456 13.8874 8.14401 13.8763 8.09956C13.9024 8.10067 13.9151 7.87678 13.8579 7.89678ZM13.7896 8.97123C13.8268 8.99123 13.9251 8.86956 13.9213 8.7179C13.9324 8.63956 13.8929 8.35234 13.7951 8.30345C13.7351 8.28678 13.6551 8.3379 13.6829 8.4329C13.669 8.47845 13.7518 8.6379 13.7735 8.72234C13.7929 8.7829 13.749 8.95345 13.7896 8.97123ZM10.634 9.80234C10.634 9.80734 10.6813 9.8479 10.7368 9.81567C10.8535 9.77067 10.9268 9.72734 11.0901 9.69123C11.1329 9.69067 11.1301 9.57567 11.0624 9.57178C10.974 9.57623 10.8918 9.58067 10.8035 9.65067C10.749 9.6629 10.7401 9.63012 10.7279 9.60012C10.7146 9.52623 10.7585 9.47512 10.749 9.42012C10.7524 9.42345 10.6985 9.37401 10.6435 9.40178C10.6407 9.40178 10.5207 9.4829 10.4824 9.53956C10.4585 9.5579 10.4613 9.57345 10.4685 9.60401C10.4868 9.64623 10.5196 9.63345 10.5563 9.61345C10.6051 9.60679 10.6285 9.63901 10.6246 9.69734C10.6013 9.77123 10.634 9.79845 10.634 9.80234ZM14.2735 9.89456C14.2551 9.92623 14.2429 9.97401 14.2996 9.98901C14.404 10.0185 14.6446 9.86178 14.6446 9.85901C14.6835 9.82956 14.6707 9.77456 14.6674 9.77456C14.6446 9.74845 14.5935 9.76345 14.559 9.75956C14.5429 9.75956 14.4885 9.75123 14.5146 9.70345C14.5329 9.67769 14.5475 9.64944 14.5579 9.61956C14.574 9.58345 14.5601 9.55956 14.5013 9.54012C14.4418 9.52901 14.4179 9.53456 14.3518 9.54012C14.3163 9.5479 14.304 9.56345 14.2974 9.60678C14.3001 9.67234 14.3396 9.66901 14.3807 9.69512C14.4046 9.72567 14.4201 9.75345 14.379 9.8029C14.3401 9.83901 14.3129 9.85901 14.2735 9.89456ZM14.1668 12.7779H13.3335V12.5001C13.3335 12.4264 13.3042 12.3558 13.2521 12.3037C13.2 12.2516 13.1294 12.2223 13.0557 12.2223C12.982 12.2223 12.9114 12.2516 12.8593 12.3037C12.8072 12.3558 12.7779 12.4264 12.7779 12.5001V12.7779H6.11126C6.11126 12.7779 6.11126 13.3335 7.77792 13.3335H12.7779V13.6112C12.7779 13.6849 12.8072 13.7556 12.8593 13.8076C12.9114 13.8597 12.982 13.889 13.0557 13.889C13.1294 13.889 13.2 13.8597 13.2521 13.8076C13.3042 13.7556 13.3335 13.6849 13.3335 13.6112V13.3335H13.889V13.6112C13.889 13.6849 13.9183 13.7556 13.9704 13.8076C14.0225 13.8597 14.0931 13.889 14.1668 13.889C14.2405 13.889 14.3111 13.8597 14.3632 13.8076C14.4153 13.7556 14.4446 13.6849 14.4446 13.6112V13.0557C14.4446 12.982 14.4153 12.9113 14.3632 12.8593C14.3111 12.8072 14.2405 12.7779 14.1668 12.7779Z" fill="white"/>
</svg>
