<svg width="20" height="20" viewBox="0 0 20 20" fill="none" xmlns="http://www.w3.org/2000/svg">
<path d="M16.875 17.1875H3.125C1.05406 17.1875 0 15.6484 0 13.75V10.3125H20V13.75C20 15.6484 18.9459 17.1875 16.875 17.1875Z" fill="#E6E7E8"/>
<path d="M0 6.875C0 4.97656 1.05406 3.4375 3.125 3.4375H16.875C18.9459 3.4375 20 4.97656 20 6.875V10.3125H0V6.875Z" fill="#EC1C24"/>
<path d="M3.38234 6.91301C3.38229 6.28227 3.62612 5.67594 4.06282 5.22084C4.49952 4.76574 5.09527 4.49711 5.72547 4.47113C5.33555 4.33479 4.91865 4.29382 4.50965 4.35164C4.10065 4.40946 3.71145 4.56439 3.37461 4.80348C3.03776 5.04256 2.76308 5.35885 2.57354 5.72586C2.384 6.09287 2.28511 6.49994 2.28516 6.91301C2.28507 7.25273 2.35192 7.58915 2.48187 7.90303C2.61182 8.21692 2.80233 8.50214 3.04252 8.74239C3.28271 8.98264 3.56788 9.17322 3.88174 9.30325C4.1956 9.43327 4.53199 9.5002 4.87172 9.5002C5.17078 9.5002 5.45859 9.44988 5.72547 9.35582C5.09511 9.32984 4.49922 9.06108 4.06249 8.60578C3.62577 8.15047 3.38205 7.54391 3.38234 6.91301Z" fill="white"/>
<path d="M6.85273 5.23555L6.37055 5.23617L6.22055 4.74805L6.07211 5.23617L5.58898 5.23555L5.98086 5.53273L5.82836 6.01773L6.22117 5.71648L6.61523 6.01773L6.46242 5.53273L6.85273 5.23555ZM8.23023 6.25992H7.74805L7.59805 5.77148L7.44961 6.25992H6.96648L7.35773 6.55617L7.20586 7.04086L7.59867 6.73961L7.9918 7.04086L7.84023 6.55617L8.23023 6.25992ZM7.71461 7.89742H7.23086L7.08242 7.40898L6.93398 7.89742H6.45086L6.84211 8.1943L6.69023 8.67867L7.08305 8.37742L7.47617 8.67867L7.32398 8.1943L7.71461 7.89742ZM5.98711 7.89742H5.50617L5.35586 7.40898L5.20773 7.89742H4.72461L5.11586 8.1943L4.9643 8.67867L5.35586 8.37742L5.74992 8.67867L5.59805 8.1943L5.98711 7.89742ZM5.47273 6.25992H4.99055L4.84055 5.77148L4.69336 6.25992H4.20898L4.60023 6.55617L4.44836 7.04086L4.84117 6.73961L5.2343 7.04086L5.08242 6.55617L5.47273 6.25992Z" fill="white"/>
</svg>
