<svg width="21" height="20" viewBox="0 0 21 20" fill="none" xmlns="http://www.w3.org/2000/svg">
<path d="M20.5 14.9996C20.5 15.5889 20.2659 16.1542 19.8491 16.5709C19.4324 16.9877 18.8671 17.2218 18.2778 17.2218H2.72222C2.13285 17.2218 1.56762 16.9877 1.15087 16.5709C0.734126 16.1542 0.5 15.5889 0.5 14.9996V4.99957C0.5 4.4102 0.734126 3.84496 1.15087 3.42822C1.56762 3.01147 2.13285 2.77734 2.72222 2.77734H18.2778C18.8671 2.77734 19.4324 3.01147 19.8491 3.42822C20.2659 3.84496 20.5 4.4102 20.5 4.99957V14.9996Z" fill="#EEEEEE"/>
<path d="M12.4125 7.26866C11.6883 6.76168 10.7924 6.56314 9.92178 6.71671C9.0512 6.87028 8.27728 7.36338 7.77026 8.08755C7.53084 8.44999 7.44233 8.89155 7.52356 9.31826C7.60479 9.74497 7.84935 10.1231 8.20519 10.3723C8.56102 10.6214 9.00004 10.7218 9.42879 10.6521C9.85754 10.5824 10.2422 10.3482 10.5008 9.99922C10.6264 9.81992 10.786 9.66712 10.9706 9.54953C11.1552 9.43193 11.3612 9.35185 11.5768 9.31386C11.7923 9.27586 12.0133 9.2807 12.227 9.32809C12.4406 9.37548 12.6429 9.46449 12.8222 9.59005C13.0015 9.71561 13.1543 9.87525 13.2719 10.0599C13.3895 10.2445 13.4696 10.4504 13.5076 10.666C13.5456 10.8816 13.5407 11.1025 13.4933 11.3162C13.4459 11.5299 13.3569 11.7321 13.2314 11.9114C13.4825 11.5528 13.6605 11.1483 13.7553 10.7209C13.85 10.2935 13.8596 9.85156 13.7836 9.42043C13.7075 8.9893 13.5473 8.57737 13.3121 8.20817C13.0768 7.83896 12.7711 7.51972 12.4125 7.26866Z" fill="#C60C30"/>
<path d="M12.8204 9.59122C12.4584 9.33768 12.0105 9.23832 11.5752 9.315C11.1399 9.39168 10.7529 9.63812 10.4993 10.0001C10.2413 10.3509 9.8563 10.5869 9.42659 10.6575C8.99688 10.7281 8.55659 10.6277 8.19989 10.3779C7.84319 10.1281 7.59838 9.7487 7.51782 9.32074C7.43726 8.89279 7.52733 8.4503 7.76878 8.08789C7.51034 8.4461 7.32567 8.85211 7.22551 9.28231C7.12534 9.71251 7.11168 10.1583 7.18531 10.5939C7.25894 11.0294 7.4184 11.4459 7.65442 11.8193C7.89044 12.1927 8.19831 12.5154 8.56015 12.7687C8.92198 13.0221 9.33056 13.201 9.76213 13.2951C10.1937 13.3891 10.6397 13.3965 11.0741 13.3167C11.5086 13.2369 11.9228 13.0716 12.2928 12.8303C12.6628 12.589 12.9811 12.2766 13.2293 11.9112C13.3549 11.7321 13.444 11.5299 13.4914 11.3164C13.5388 11.1028 13.5437 10.8819 13.5057 10.6665C13.4677 10.451 13.3877 10.2452 13.2701 10.0607C13.1525 9.87616 12.9997 9.71664 12.8204 9.59122Z" fill="#003478"/>
<path d="M14.0196 14.207L15.0907 12.9303L15.5163 13.2875L14.4452 14.5642L14.0196 14.207ZM15.4474 12.5053L16.5185 11.2292L16.9441 11.5864L15.873 12.8625L15.4474 12.5053ZM14.8707 14.9225L15.9418 13.6464L16.3674 14.0036L15.2963 15.2797L14.8707 14.9225ZM16.2996 13.2192L17.3719 11.9431L17.7974 12.3009L16.7252 13.5764L16.2996 13.2192ZM15.7213 15.637L16.7935 14.3609L17.2185 14.7181L16.1468 15.9942L15.7213 15.637ZM17.1496 13.9342L18.2202 12.6564L18.6463 13.0136L17.5757 14.2914L17.1496 13.9342ZM17.1519 6.06641L17.5774 5.70919L18.6496 6.98641L18.2235 7.34364L17.1519 6.06641ZM15.723 4.36308L16.1485 4.00586L17.2196 5.28308L16.7935 5.63975L15.723 4.36308ZM14.8713 5.07864L15.2969 4.72142L17.7969 7.7003L17.3713 8.05753L14.8713 5.07864ZM14.0202 5.79197L14.4463 5.43475L15.5168 6.71142L15.0913 7.06808L14.0202 5.79197ZM15.448 7.49475L15.8735 7.13753L16.9457 8.41364L16.5207 8.77086L15.448 7.49475ZM4.05629 11.5859L4.48185 11.2286L6.98129 14.2081L6.55518 14.5653L4.05629 11.5859ZM3.20629 12.3003L3.63129 11.9436L4.70296 13.2203L4.27685 13.5775L3.20629 12.3003ZM4.6324 14.0036L5.05796 13.6464L6.13018 14.9225L5.70463 15.2797L4.6324 14.0036ZM2.35407 13.0142L2.77963 12.657L5.27963 15.6359L4.85352 15.9931L2.35407 13.0142ZM2.35352 6.9853L4.8524 4.00641L5.27852 4.36308L2.77852 7.34253L2.35352 6.9853ZM3.20463 7.7003L5.70463 4.72086L6.13018 5.07808L3.63018 8.05697L3.20463 7.7003ZM4.05629 8.41419L6.55629 5.43475L6.98185 5.79197L4.48185 8.77142L4.05629 8.41419Z" fill="#292F33"/>
</svg>
