<svg width="20" height="20" viewBox="0 0 20 20" fill="none" xmlns="http://www.w3.org/2000/svg">
<path d="M20 13.4375C20 15.3359 18.9459 16.875 16.875 16.875H3.125C1.05406 16.875 0 15.3359 0 13.4375V6.5625C0 4.66406 1.05406 3.125 3.125 3.125H16.875C18.9459 3.125 20 4.66406 20 6.5625V13.4375Z" fill="#FEB600"/>
<path fill-rule="evenodd" clip-rule="evenodd" d="M13.117 14.637H7.42078C7.30078 14.637 7.31297 14.6502 7.31297 14.5139C7.31234 11.5917 7.31234 8.67109 7.31297 5.74828C7.31297 5.61172 7.30078 5.62547 7.42078 5.62547C11.2179 5.62484 15.0151 5.62484 18.8123 5.62547C18.9355 5.62547 18.9195 5.61172 18.9195 5.74828V14.5139C18.9195 14.6508 18.9355 14.637 18.8123 14.637H13.117Z" fill="#8C2029"/>
<path fill-rule="evenodd" clip-rule="evenodd" d="M10.1994 11.2125C10.2531 11.2434 10.3028 11.2794 10.2772 11.3619C10.2547 11.4287 10.2019 11.4512 10.12 11.4325C10.1084 11.4287 10.0969 11.4265 10.0766 11.4219C10.0788 11.4681 10.1041 11.4956 10.1278 11.5206C10.1719 11.5697 10.1731 11.6153 10.1341 11.6687C10.108 11.7035 10.0913 11.7444 10.0856 11.7875C10.0799 11.8305 10.0854 11.8743 10.1016 11.9147C10.1175 11.9537 10.1334 11.9816 10.1775 11.9356C10.2238 11.8869 10.2913 11.8956 10.3319 11.9478C10.3763 12.005 10.375 12.0662 10.3338 12.1241C10.2875 12.1906 10.2197 12.22 10.1441 12.2525C10.1988 12.3022 10.246 12.3462 10.3085 12.4031L10.1316 12.4309C10.0906 12.4375 10.0572 12.4522 10.0472 12.5072C10.0391 12.5477 10.0179 12.5843 9.98689 12.6115C9.9447 12.6537 9.89189 12.6572 9.87501 12.5997C9.82782 12.435 9.71532 12.4097 9.57814 12.4112C9.61626 12.3359 9.68407 12.314 9.72532 12.2512C9.6622 12.225 9.60407 12.1934 9.55939 12.1397C9.51314 12.0831 9.50751 12.0022 9.54908 11.9481C9.59564 11.8878 9.65001 11.8928 9.70064 11.9416C9.73314 11.9734 9.7497 11.9578 9.7622 11.9244C9.79532 11.8387 9.79532 11.7503 9.74314 11.6762C9.69782 11.6119 9.69689 11.5616 9.75314 11.5081C9.76908 11.4928 9.79439 11.4725 9.78564 11.4465C9.77595 11.4194 9.74532 11.4347 9.7247 11.4306C9.6697 11.42 9.62251 11.3984 9.60345 11.3337C9.59664 11.3124 9.59569 11.2896 9.6007 11.2678C9.6057 11.246 9.61647 11.2259 9.63189 11.2097C9.66345 11.174 9.70189 11.1728 9.74314 11.1859C9.76282 11.1909 9.78564 11.224 9.80189 11.1925C9.81689 11.1637 9.80876 11.1334 9.78314 11.1109C9.77314 11.1034 9.75939 11.0887 9.76001 11.0784C9.77001 10.9762 9.68126 10.8912 9.71564 10.7853C9.72595 10.7544 9.70376 10.7469 9.69314 10.7294C9.65251 10.6619 9.6272 10.5987 9.69251 10.5269C9.7347 10.4794 9.71064 10.3981 9.65376 10.3759C9.60863 10.3603 9.56742 10.3351 9.53296 10.302C9.49849 10.2689 9.47158 10.2288 9.45407 10.1844C9.39095 10.0259 9.47939 9.86217 9.64189 9.84655C9.69595 9.8403 9.7097 9.82967 9.70907 9.76405C9.70157 9.10624 9.68189 8.44686 9.76376 7.79124C9.80314 7.47249 9.88376 7.17061 10.0503 6.90342C10.1407 6.75884 10.2539 6.64155 10.3897 6.55155C10.4169 6.53311 10.4456 6.51905 10.4722 6.54718C10.4956 6.57249 10.4881 6.60467 10.4766 6.63436C10.3778 6.87374 10.36 7.13249 10.3353 7.38999C10.2653 8.12374 10.2578 8.86093 10.2431 9.59624C10.2433 9.61332 10.2429 9.6304 10.2419 9.64749C10.2391 9.7003 10.2222 9.75811 10.2353 9.80624C10.2506 9.86592 10.3166 9.83811 10.3585 9.85967C10.5135 9.94155 10.5422 10.1419 10.4094 10.285C10.3663 10.3294 10.3681 10.3494 10.4085 10.3934C10.5644 10.5628 10.7188 10.7365 10.8731 10.9081C10.88 10.9147 10.8884 10.9194 10.9069 10.9334C10.8709 10.7184 10.9003 10.5234 10.9556 10.3322C11.0578 9.98655 11.2594 9.72842 11.5281 9.53311C11.5936 9.48624 11.6573 9.43676 11.7194 9.38468C11.738 9.36944 11.7535 9.35076 11.765 9.32967C11.7809 9.30124 11.7856 9.26936 11.7613 9.24436C11.735 9.21624 11.7097 9.23936 11.69 9.26093C11.6744 9.27843 11.665 9.30155 11.6544 9.32311C11.6203 9.39186 11.5778 9.40061 11.5291 9.34624C11.5109 9.32655 11.4972 9.3028 11.4834 9.27905C11.4709 9.25842 11.4616 9.23592 11.4466 9.20749C11.4156 9.23624 11.3947 9.28155 11.3481 9.26936C11.3075 9.25905 11.2838 9.22655 11.2644 9.18999C11.245 9.15124 11.2222 9.15311 11.19 9.16749C11.1131 9.20217 11.0331 9.22061 10.945 9.23311C10.9475 9.17092 10.9935 9.13218 10.9985 9.07311C10.911 9.08374 10.8244 9.09218 10.7388 9.10468C10.6988 9.11061 10.6863 9.09467 10.7013 9.05342C10.7453 8.92217 10.7609 8.77999 10.8253 8.65717C10.8366 8.6353 10.836 8.62311 10.8203 8.60749C10.8088 8.59634 10.7981 8.58433 10.7885 8.57155C10.7541 8.51842 10.7163 8.46249 10.7563 8.39499C10.7981 8.32811 10.8541 8.35624 10.9056 8.37905C11.1188 8.47499 11.3281 8.58655 11.5566 8.6328C11.5906 8.63967 11.6256 8.6428 11.6606 8.64717C11.6694 8.64874 11.6781 8.6453 11.6963 8.6428C11.6359 8.55749 11.5819 8.47874 11.5266 8.39874C11.4791 8.48405 11.4791 8.48405 11.3322 8.41999C11.3172 8.45155 11.3453 8.48592 11.3256 8.52436C11.2375 8.4703 11.1481 8.42655 11.0831 8.33467C11.0191 8.24436 10.9463 8.16311 10.8747 8.0803C10.7641 7.94999 10.7213 7.7903 10.7213 7.61811C10.7203 7.4228 10.8903 7.3128 11.046 7.39999C11.0753 7.41492 11.1002 7.4373 11.1181 7.46489C11.136 7.49248 11.1464 7.52431 11.1481 7.55717C11.1525 7.62967 11.1863 7.63842 11.2369 7.62874C11.2941 7.61655 11.3516 7.6103 11.4063 7.59124C11.4835 7.56374 11.5616 7.54718 11.641 7.54655C11.7031 7.5469 11.7629 7.5229 11.8075 7.47967C11.8581 7.43249 11.8866 7.37842 11.8484 7.30405C11.8172 7.24186 11.8372 7.2203 11.8966 7.21967C11.956 7.21905 12.0153 7.20842 12.0756 7.2028C12.1769 7.19405 12.2681 7.2203 12.3463 7.29874C12.366 7.31842 12.3878 7.34905 12.4175 7.33217C12.4425 7.31749 12.4344 7.2828 12.4356 7.25468C12.4425 7.11905 12.4744 7.09342 12.5922 7.12405C12.6816 7.1453 12.7544 7.19905 12.8147 7.27217C12.855 7.31811 12.8735 7.30499 12.8931 7.25405C12.9585 7.09342 12.9753 7.08874 13.1185 7.16624C13.1794 7.19905 13.2359 7.2403 13.2847 7.29374C13.3513 7.36436 13.4363 7.36811 13.5066 7.30186C13.5634 7.24655 13.6166 7.18749 13.6831 7.11717C13.6856 7.22936 13.6556 7.32374 13.6438 7.44217C13.6831 7.39061 13.7072 7.35311 13.7369 7.31999C13.9553 7.08186 14.22 6.97092 14.5216 6.95342C14.9638 6.92717 15.3506 7.09186 15.7113 7.36499C15.8691 7.48405 16.0184 7.61624 16.1666 7.74967C16.2103 7.7878 16.2538 7.8253 16.2997 7.86061C16.3825 7.92249 16.3806 7.9203 16.4181 7.81905C16.4463 7.74467 16.4966 7.69405 16.5684 7.68155C16.6425 7.67061 16.7022 7.7028 16.7444 7.76967C16.8019 7.86124 16.8166 7.96186 16.775 8.06467C16.7564 8.11692 16.7228 8.16251 16.6784 8.19571C16.6339 8.2289 16.5807 8.24822 16.5253 8.25124C16.3866 8.26499 16.2616 8.21717 16.1538 8.12249C16.0644 8.04561 15.9803 7.96124 15.8944 7.88092C15.8551 7.84364 15.8149 7.80737 15.7738 7.77218C15.78 7.85343 15.8044 7.90811 15.8438 7.95655C15.8634 7.97967 15.8784 8.00561 15.8594 8.03842C15.8403 8.06874 15.8138 8.06936 15.7853 8.0603C15.6478 8.01561 15.5269 7.94186 15.4291 7.8003C15.3884 7.90405 15.3266 7.97749 15.2363 8.01342C15.2028 8.0253 15.1697 8.04092 15.1359 8.04405C15.0747 8.05061 15.0491 8.0028 15.0766 7.94217C15.0941 7.90186 15.1188 7.86436 15.1344 7.82374C15.1966 7.66249 15.1472 7.52186 14.995 7.44061C15.0284 7.60061 15.0284 7.7528 14.9203 7.87624C14.8194 7.9903 14.6894 8.02311 14.5453 8.03749C14.5625 7.96905 14.6 7.92311 14.6256 7.86967C14.7484 7.60749 14.6431 7.44967 14.4347 7.35311C14.3953 7.33624 14.385 7.35311 14.3863 7.39436C14.3881 7.46936 14.3756 7.54124 14.3341 7.60092C14.2956 7.65655 14.2403 7.66342 14.2169 7.60905C14.1831 7.52842 14.1309 7.51217 14.0641 7.53155C13.9903 7.55405 13.93 7.59874 13.9091 7.68624C13.8949 7.74133 13.9018 7.79973 13.9285 7.84999C13.9756 7.94092 13.9988 7.94624 14.0622 7.87374C14.1944 7.72405 14.3928 7.73186 14.5563 7.89717C14.4931 7.93342 14.4297 7.96592 14.37 8.00592C14.2959 8.05467 14.2828 8.11999 14.3169 8.2078C14.3325 8.24905 14.3472 8.2628 14.38 8.22311C14.4077 8.19124 14.4381 8.16228 14.4713 8.13624C14.5413 8.08436 14.5875 8.10374 14.6134 8.1928C14.6563 8.33749 14.7144 8.38311 14.8534 8.39217C15.1025 8.40686 15.3472 8.36624 15.5931 8.33186C15.747 8.31155 15.9026 8.3084 16.0572 8.32249C16.2753 8.34217 16.5053 8.54936 16.5684 8.78467C16.6388 9.04717 16.5559 9.25811 16.3853 9.43624C16.3666 9.45499 16.3475 9.47342 16.3281 9.49155C16.3072 9.51155 16.3053 9.53124 16.3222 9.55655C16.3403 9.58363 16.3578 9.61113 16.3747 9.63905C16.4816 9.81967 16.5575 10.01 16.5591 10.235C16.5597 10.485 16.5419 10.7281 16.4669 10.9659C16.3984 11.18 16.3266 11.3928 16.2875 11.6184C16.2563 11.7981 16.2556 11.9759 16.3281 12.1466C16.3616 12.2253 16.4066 12.2875 16.4913 12.3022C16.5806 12.3187 16.6097 12.3881 16.5719 12.4825C16.5406 12.5609 16.4875 12.6241 16.4244 12.6709C16.2309 12.8131 16.2475 12.9669 16.3478 13.1531C16.3759 13.2034 16.4066 13.2534 16.4263 13.3069C16.4584 13.3941 16.4238 13.449 16.3403 13.4559C16.2687 13.4595 16.1979 13.4398 16.1384 13.3997C16.1138 13.3834 16.0978 13.3828 16.0744 13.4047C15.9903 13.4822 15.9022 13.4722 15.8175 13.4072C15.7813 13.3787 15.7566 13.38 15.7197 13.4087C15.6294 13.4794 15.5669 13.4769 15.4747 13.3987C15.4453 13.3756 15.4306 13.3922 15.4088 13.4044C15.2697 13.4769 15.1306 13.485 14.9913 13.4044C14.9663 13.3897 14.9491 13.375 14.92 13.4044C14.8873 13.4365 14.8441 13.4557 14.7984 13.4586C14.7527 13.4615 14.7074 13.4478 14.6709 13.42C14.64 13.3966 14.6203 13.3884 14.5872 13.4165C14.5141 13.4769 14.4356 13.4731 14.3666 13.4069C14.331 13.3716 14.305 13.375 14.2691 13.4025C14.2316 13.43 14.1916 13.4556 14.1444 13.4581C14.0869 13.4606 14.0608 13.4296 14.0663 13.365C14.0775 13.2209 14.1863 13.0884 14.3147 13.0675C14.3984 13.0547 14.4838 13.0522 14.5684 13.039C14.6709 13.0228 14.7072 12.9728 14.7044 12.86C14.7009 12.7194 14.7044 12.5797 14.6922 12.4384C14.6845 12.3332 14.6514 12.2313 14.5959 12.1416C14.5197 12.025 14.4422 11.9119 14.3691 11.7934C14.2916 11.6697 14.2397 11.5334 14.2416 11.3781C14.2416 11.3237 14.2175 11.3231 14.1794 11.3231C13.9756 11.3253 13.786 11.3966 13.6006 11.4837C13.386 11.5844 13.1785 11.7081 12.9581 11.7881C12.8106 11.8428 12.726 11.9422 12.6606 12.0859C12.6347 12.14 12.6031 12.1915 12.5872 12.2512C12.5631 12.349 12.5872 12.4006 12.6753 12.429C12.7238 12.4444 12.7734 12.449 12.8225 12.4615C12.9044 12.4812 12.9178 12.5212 12.8731 12.5984C12.7966 12.73 12.6953 12.8281 12.5566 12.8644C12.4725 12.8856 12.4503 12.9387 12.4647 13.0284C12.4844 13.1456 12.4934 13.259 12.4191 13.365C12.3506 13.4628 12.306 13.4881 12.1685 13.4331C12.0978 13.405 12.0431 13.399 11.9744 13.4384C11.905 13.479 11.8256 13.4687 11.7594 13.4187C11.7253 13.3928 11.7003 13.3953 11.6656 13.4178C11.585 13.4709 11.4991 13.4812 11.4197 13.4131C11.3981 13.3937 11.3803 13.3962 11.3588 13.4087C11.3335 13.426 11.3062 13.44 11.2775 13.4506C11.21 13.4722 11.1694 13.4328 11.1759 13.3553C11.1938 13.1337 11.3378 12.9859 11.535 12.9847C11.6003 12.9847 11.6656 12.9865 11.7294 12.9828C11.8763 12.9759 11.9825 12.8528 11.986 12.6897C11.9888 12.519 11.9281 12.3656 11.8922 12.2044C11.8647 12.0775 11.8191 11.9866 11.6941 11.9462C11.6153 11.9216 11.5438 11.8594 11.4731 11.8075C11.4356 11.78 11.4175 11.7847 11.3878 11.8225C11.3122 11.9166 11.225 11.9959 11.1169 12.0416C11.0344 12.0769 10.9606 12.0641 10.8906 12.0069C10.7866 11.9228 10.7009 11.8159 10.6041 11.7212C10.5569 11.675 10.5194 11.65 10.4872 11.7384C10.4694 11.7875 10.4325 11.7784 10.4003 11.7515C10.3481 11.7087 10.3388 11.645 10.3363 11.579C10.3338 11.4859 10.3363 11.3928 10.3319 11.3009C10.3269 11.2062 10.2688 11.1616 10.2003 11.195C10.1988 11.1971 10.1968 11.1988 10.1944 11.2C10.1921 11.2011 10.1895 11.2017 10.1869 11.2016C10.1544 11.2037 10.1222 11.195 10.0947 11.1965C10.1253 11.2031 10.1647 11.1944 10.1994 11.2112" fill="black"/>
<path fill-rule="evenodd" clip-rule="evenodd" d="M17.8054 7.03251C17.8056 6.95638 17.8164 6.88064 17.8376 6.80751C17.9036 6.57908 17.9076 6.33845 17.9423 6.10345C17.9923 5.76908 18.2298 5.63251 18.5042 5.76908C18.5654 5.79908 18.6304 5.8047 18.696 5.80345C18.7404 5.80283 18.7617 5.8197 18.7536 5.8722C18.7429 5.94314 18.7654 6.00345 18.7923 6.06501C18.8917 6.30033 18.8301 6.48095 18.6167 6.58439C18.5202 6.62847 18.419 6.66149 18.3151 6.68283C18.1126 6.72866 17.9654 6.85439 17.8736 7.06001C17.8673 7.07314 17.8617 7.08658 17.8535 7.09751C17.8426 7.11314 17.8389 7.14595 17.8123 7.13408C17.7914 7.12564 17.802 7.10033 17.802 7.08126C17.8026 7.06564 17.8048 7.04876 17.8054 7.03251ZM17.8054 13.221L17.8011 13.171C17.7998 13.1547 17.7942 13.1341 17.8107 13.126C17.8335 13.1144 17.8429 13.1391 17.8492 13.1547C17.9604 13.4388 18.1729 13.5588 18.4295 13.61C18.5009 13.625 18.5696 13.6503 18.6354 13.686C18.8257 13.7869 18.8848 13.9538 18.8007 14.1716C18.7723 14.2463 18.7398 14.3175 18.7529 14.4028C18.7598 14.4453 18.7357 14.456 18.7032 14.4547C18.612 14.4535 18.5286 14.4819 18.4432 14.5194C18.2579 14.6025 18.0473 14.4944 17.9717 14.2878C17.9458 14.2138 17.9307 14.1365 17.927 14.0581C17.9191 13.8679 17.8918 13.6789 17.8457 13.4941C17.8211 13.405 17.8076 13.3133 17.8054 13.221ZM7.90574 14.5416C7.87074 14.541 7.83511 14.545 7.8023 14.5278C7.71446 14.4772 7.61427 14.452 7.51292 14.455C7.47949 14.4569 7.46886 14.4372 7.47542 14.4025C7.49042 14.3256 7.46542 14.2616 7.43667 14.1938C7.3373 13.9622 7.40199 13.7756 7.61355 13.6763C7.70136 13.6344 7.79324 13.6047 7.88605 13.585C8.1048 13.5394 8.26574 13.4097 8.36417 13.1841C8.3748 13.1616 8.38324 13.1194 8.41167 13.1275C8.44167 13.136 8.42636 13.1756 8.42636 13.2016C8.42425 13.3022 8.40902 13.4021 8.38105 13.4988C8.32261 13.7078 8.31605 13.9247 8.2898 14.1381C8.25855 14.4038 8.12667 14.5385 7.90574 14.5416ZM8.42699 7.0447C8.42699 7.06783 8.42761 7.08158 8.42699 7.09595C8.42667 7.11001 8.43011 7.12595 8.41636 7.13189C8.39699 7.14126 8.3898 7.12345 8.38167 7.11001L8.3198 6.9947C8.24105 6.84439 8.12886 6.74626 7.97761 6.70345C7.85449 6.66751 7.72949 6.6397 7.61136 6.58314C7.45386 6.50845 7.37699 6.38126 7.39261 6.22251C7.39824 6.16033 7.41605 6.10095 7.44386 6.04783C7.47324 5.99158 7.48949 5.93533 7.47636 5.87189C7.46511 5.81689 7.48699 5.80283 7.53105 5.80345C7.61417 5.8047 7.6923 5.78533 7.77074 5.74689C7.9698 5.64908 8.19886 5.77095 8.26636 6.00189C8.29886 6.11251 8.3073 6.22783 8.31167 6.34314C8.31886 6.55314 8.39386 6.7472 8.41917 6.95345C8.4223 6.98595 8.4248 7.02001 8.42699 7.0447Z" fill="#030100"/>
<path fill-rule="evenodd" clip-rule="evenodd" d="M10.1983 11.2118H10.082C10.122 11.1581 10.1627 11.2049 10.1995 11.1962C10.1985 11.2008 10.1981 11.206 10.1983 11.2118Z" fill="#340C0F"/>
<path fill-rule="evenodd" clip-rule="evenodd" d="M11.0121 11.1563C10.7959 10.5882 11.0684 9.91822 11.5453 9.58135C11.614 9.53354 11.6784 9.48166 11.744 9.42916C11.7657 9.40969 11.7845 9.38728 11.7999 9.3626C11.8356 9.30697 11.8306 9.22697 11.7884 9.1951C11.7384 9.15666 11.6974 9.18853 11.6593 9.22322C11.6486 9.23507 11.6391 9.24807 11.6312 9.26197C11.5837 9.34322 11.5703 9.34197 11.5234 9.25916C11.4918 9.20322 11.4787 9.13385 11.4274 9.08666C11.3962 9.10853 11.4037 9.14541 11.3962 9.17541C11.3834 9.2301 11.3468 9.24416 11.3256 9.1951C11.274 9.07666 11.2043 9.09791 11.1234 9.14197C11.1068 9.15072 11.0859 9.15135 11.0656 9.15729C11.0246 9.17041 11.0212 9.15291 11.0393 9.11697C11.0553 9.08197 11.0699 9.04697 11.0906 9.0001C10.9931 9.0176 10.9062 9.03228 10.8196 9.04947C10.7584 9.06135 10.7456 9.04104 10.7684 8.97635C10.7943 8.9001 10.8131 8.82166 10.834 8.74354C10.8518 8.67541 10.8903 8.65572 10.949 8.6801C11.0499 8.7226 11.1528 8.75416 11.2606 8.76479C11.3221 8.75635 11.3834 8.75697 11.4446 8.77072C11.5337 8.77635 11.5371 8.7801 11.5343 8.86916C11.5396 8.90885 11.5678 8.90666 11.5915 8.90541C11.629 8.90353 11.6656 8.91353 11.7015 8.92166L11.7421 8.92416C11.7715 8.93229 11.8021 8.94916 11.8265 8.91072C11.8415 8.88885 11.8396 8.86604 11.8287 8.84291C11.8159 8.81197 11.8018 8.7801 11.8121 8.74447C11.7681 8.64885 11.7015 8.57166 11.6431 8.48791C11.593 8.41782 11.5506 8.34248 11.5168 8.26322C11.4931 8.29083 11.479 8.32536 11.4765 8.36166C11.4671 8.45103 11.4318 8.42885 11.3909 8.39103C11.3568 8.35978 11.3246 8.32604 11.2868 8.2876C11.264 8.33697 11.2881 8.38541 11.2762 8.43416C11.2223 8.41547 11.1753 8.38081 11.1415 8.33479C11.0744 8.24146 11.0017 8.15233 10.9237 8.06791C10.8203 7.95541 10.7815 7.81322 10.764 7.66072C10.7474 7.50791 10.8312 7.41447 10.9624 7.42791C11.0581 7.43791 11.1206 7.51291 11.1065 7.62135C11.0971 7.70135 11.1181 7.69635 11.1771 7.69166C11.3499 7.6776 11.5096 7.59291 11.6856 7.59322C11.7587 7.59447 11.8224 7.54697 11.8721 7.48197C11.9087 7.43354 11.9312 7.38354 11.9034 7.32072C11.8862 7.28354 11.8999 7.27104 11.9315 7.26729C12.0768 7.24916 12.2218 7.2251 12.3418 7.35822C12.3674 7.3876 12.4043 7.41353 12.4437 7.38947C12.4765 7.36822 12.479 7.32416 12.4809 7.28541C12.4817 7.26833 12.4822 7.25104 12.4824 7.23354C12.4824 7.17604 12.5021 7.15604 12.5571 7.16729C12.6671 7.1901 12.7493 7.26041 12.8199 7.34947C12.8637 7.40416 12.8878 7.39885 12.9093 7.33291C12.9209 7.29947 12.9412 7.26791 12.9487 7.23291C12.9599 7.16947 12.9874 7.15979 13.0374 7.1826C13.1146 7.2176 13.1865 7.26103 13.2478 7.32541C13.349 7.4301 13.4496 7.43072 13.5524 7.32853L13.6209 7.25854C13.6184 7.41479 13.5656 7.53447 13.4762 7.63072C13.4196 7.69072 13.4128 7.7326 13.4662 7.80104C13.5181 7.86729 13.5306 7.95666 13.5328 8.04447C13.5384 8.26447 13.5327 8.48416 13.5156 8.70353C13.4881 8.71822 13.4787 8.6826 13.4581 8.67853C13.339 8.6076 13.2546 8.50697 13.2324 8.35041C13.2308 8.32698 13.2265 8.30381 13.2196 8.28135C13.2128 8.25478 13.2009 8.23135 13.1915 8.20604C13.1509 8.19104 13.1509 8.19103 13.144 8.24572C13.1415 8.25666 13.1537 8.24572 13.144 8.24635C13.1421 8.20978 13.1499 8.18666 13.1887 8.20197C13.2024 8.23093 13.2138 8.26051 13.2228 8.29072C13.2324 8.3176 13.2287 8.34729 13.2396 8.37322C13.2515 8.48791 13.3149 8.56541 13.3899 8.63104C13.4124 8.65072 13.4349 8.66572 13.4399 8.69979C13.4599 8.82697 13.4849 8.95354 13.5343 9.08791C13.4496 9.06041 13.3999 8.99885 13.3387 8.9651C13.259 8.92791 13.2031 8.85885 13.1434 8.7951C13.1256 8.77729 13.1187 8.74447 13.0865 8.75197C13.0671 8.76666 13.0596 8.79197 13.0503 8.81385C13.0234 8.87197 12.9928 8.87291 12.9559 8.82478C12.9429 8.81228 12.9291 8.80059 12.9146 8.78979C12.8906 8.76979 12.8687 8.76354 12.8621 8.80947C12.8603 8.82385 12.8515 8.83447 12.8453 8.84604C12.8087 8.92354 12.8087 8.92354 12.7468 8.85885C12.7418 8.85385 12.7372 8.84874 12.7331 8.84353C12.7259 8.83697 12.7374 8.83916 12.7281 8.83729C12.7237 8.83729 12.7256 8.83541 12.7312 8.84104C12.7352 8.84719 12.7399 8.85286 12.7453 8.85791C12.8062 8.92604 12.8062 8.92603 12.8443 8.84791C12.8834 8.76978 12.8868 8.76916 12.9534 8.82197C13.0121 8.88135 13.0121 8.88041 13.0531 8.80635C13.0649 8.78635 13.069 8.75885 13.0956 8.75322C13.1712 8.82885 13.2537 8.89697 13.3218 8.98103C13.3457 9.00108 13.3651 9.02601 13.3785 9.05414C13.392 9.08228 13.3993 9.11297 13.3999 9.14416C13.4049 9.23166 13.4431 9.30697 13.4968 9.38603H13.354C13.3415 9.38166 13.3309 9.37979 13.3368 9.40104C13.4203 9.42072 13.5043 9.44104 13.5603 9.52416C13.5768 9.53072 13.5831 9.52635 13.5768 9.50572C13.5749 9.44229 13.6162 9.48104 13.6324 9.48104C13.9078 9.48322 14.1831 9.49822 14.4581 9.49229C14.6946 9.48728 14.9274 9.41885 15.1674 9.43135C15.3243 9.43885 15.4831 9.44104 15.6393 9.42572C15.7899 9.41104 15.9328 9.3601 16.0728 9.2976C16.1365 9.26947 16.1865 9.21885 16.2274 9.1551C16.3562 8.95197 16.2853 8.70135 16.0728 8.6276C15.8943 8.56666 15.7109 8.58478 15.5303 8.62103C15.2262 8.68228 14.9231 8.72478 14.6137 8.67978C14.4931 8.66291 14.3803 8.62135 14.2681 8.57354C14.2152 8.54874 14.1609 8.52694 14.1056 8.50822C14.0078 8.47853 13.9418 8.52603 13.914 8.63635C13.9059 8.67072 13.9165 8.7101 13.8915 8.74041C13.8295 8.68938 13.7878 8.61793 13.7738 8.53889C13.7597 8.45985 13.7743 8.3784 13.8149 8.30916C13.8474 8.25385 13.8437 8.22166 13.8049 8.17447C13.7199 8.06854 13.6556 7.94822 13.6387 7.80322C13.6121 7.57979 13.6965 7.40791 13.8493 7.27604C14.0395 7.11209 14.2791 7.0165 14.5299 7.00447C15.0231 6.97572 15.4349 7.19604 15.8187 7.5101C15.9728 7.63635 16.1196 7.77072 16.2718 7.89916C16.3131 7.93416 16.3571 7.96916 16.4121 7.97322C16.4399 7.97416 16.459 7.97135 16.459 7.92885C16.4603 7.79541 16.5181 7.7226 16.6103 7.73322C16.6953 7.74103 16.7662 7.85947 16.7549 7.97416C16.7497 8.03401 16.7233 8.09004 16.6806 8.13223C16.6378 8.17442 16.5814 8.20003 16.5215 8.20447C16.3818 8.21541 16.2615 8.15885 16.1546 8.06291C16.0293 7.95197 15.9156 7.82354 15.7843 7.71979C15.7624 7.70197 15.7424 7.67822 15.7053 7.67635C15.7109 7.79729 15.7518 7.89947 15.8174 8.0126C15.6368 7.96729 15.5103 7.86947 15.419 7.67416C15.3771 7.8701 15.2831 7.9801 15.1034 7.99728C15.1721 7.84791 15.2653 7.71041 15.1659 7.54228C15.1384 7.49399 15.1011 7.45195 15.0564 7.41886C15.0118 7.38577 14.9607 7.36235 14.9065 7.3501C14.9768 7.5201 15.014 7.6876 14.8899 7.83822C14.8218 7.92072 14.7343 7.9626 14.6243 7.97197C14.6768 7.86978 14.7221 7.77791 14.7199 7.66447C14.7149 7.49354 14.5396 7.29572 14.3874 7.29229C14.3406 7.29041 14.3309 7.31416 14.3368 7.35885C14.3456 7.42728 14.3406 7.49385 14.3093 7.55479C14.2881 7.59416 14.2624 7.62416 14.2374 7.55729C14.214 7.49135 14.1668 7.47603 14.1115 7.47728C14.0533 7.47908 13.9974 7.49993 13.9522 7.53663C13.907 7.57333 13.8752 7.62384 13.8615 7.68041C13.8368 7.79572 13.8984 7.94291 13.9937 8.00478C14.0318 8.02916 14.0387 7.99291 14.0493 7.97385C14.0705 7.93169 14.102 7.89553 14.1408 7.86872C14.1796 7.84191 14.2246 7.82529 14.2715 7.82041C14.3437 7.8101 14.4087 7.83103 14.4678 7.89197C14.4265 7.91572 14.3878 7.93541 14.3521 7.95916C14.2309 8.04041 14.2184 8.21916 14.3253 8.32603C14.3478 8.34822 14.3584 8.3401 14.3712 8.31697C14.4024 8.26135 14.4462 8.21916 14.4924 8.18135C14.5293 8.15166 14.5534 8.1526 14.5706 8.20697C14.6287 8.38729 14.6937 8.43572 14.8674 8.44416C15.1118 8.45603 15.3518 8.41635 15.5921 8.38353C15.7437 8.36416 15.8968 8.35197 16.049 8.37416C16.2246 8.39947 16.4903 8.55479 16.539 8.86104C16.5724 9.07166 16.5028 9.24072 16.3699 9.38354C16.3287 9.42885 16.2559 9.46603 16.2506 9.5151C16.2453 9.56197 16.3074 9.61885 16.3396 9.67229C16.4503 9.85822 16.5156 10.0567 16.5146 10.287C16.5147 10.5475 16.4736 10.8065 16.3928 11.0542C16.3181 11.2801 16.2446 11.5079 16.2253 11.752C16.2131 11.9001 16.2318 12.0429 16.2912 12.1779C16.3315 12.2692 16.3853 12.3423 16.4859 12.352C16.5449 12.3585 16.5521 12.4032 16.5328 12.4563C16.5046 12.5297 16.4552 12.5929 16.3909 12.6379C16.189 12.7848 16.194 12.9717 16.3062 13.1745C16.3337 13.2248 16.3609 13.2757 16.3837 13.3279C16.4056 13.3776 16.3849 13.4038 16.3393 13.407C16.2625 13.4108 16.1871 13.3852 16.1284 13.3354C16.1106 13.3204 16.0965 13.2929 16.0681 13.3292C15.9899 13.4282 15.9162 13.4376 15.8228 13.3526C15.7799 13.3142 15.754 13.3142 15.7118 13.3538C15.6221 13.437 15.5559 13.4301 15.4871 13.3373C15.4624 13.3054 15.449 13.3148 15.4262 13.3313C15.3928 13.3548 15.3587 13.3782 15.3228 13.3982C15.2787 13.4223 15.2603 13.4032 15.2709 13.3507C15.289 13.2632 15.3393 13.202 15.4018 13.1529C15.4812 13.0898 15.5743 13.0645 15.6662 13.0385C15.844 12.9895 15.8634 12.9638 15.8584 12.7554C15.8565 12.6595 15.849 12.5635 15.8418 12.4698C15.8376 12.411 15.821 12.3538 15.7932 12.3019C15.7653 12.25 15.7269 12.2046 15.6803 12.1685C15.5486 12.0634 15.4125 11.964 15.2724 11.8704C15.1843 11.851 15.1296 11.7754 15.0637 11.7195C15.0179 11.6577 14.9666 11.6003 14.9103 11.5479C14.8218 11.4557 14.7281 11.3729 14.6056 11.341C14.5988 11.3397 14.5922 11.3376 14.5859 11.3348C14.5612 11.3238 14.5353 11.3232 14.5096 11.3192C14.4621 11.3029 14.414 11.3092 14.3665 11.302C14.294 11.2785 14.2203 11.2576 14.1437 11.2767C13.9049 11.2851 13.6884 11.3854 13.4731 11.4882C13.2915 11.5742 13.1137 11.6654 12.9328 11.7526C12.8887 11.7729 12.8434 11.7854 12.7974 11.801C12.7828 11.7704 12.8049 11.7488 12.8143 11.726C12.8609 11.622 12.9056 11.5173 12.9396 11.4076C13.0103 11.2186 13.0477 11.0188 13.0503 10.817C13.0469 11.0143 13.0113 11.2098 12.9449 11.3957C12.9088 11.5045 12.8666 11.6112 12.8187 11.7154C12.8059 11.7435 12.7971 11.7735 12.7693 11.7863C12.7124 11.8923 12.6537 11.9976 12.5984 12.1038C12.5774 12.146 12.5578 12.1885 12.5446 12.2332C12.5084 12.3595 12.5472 12.441 12.6612 12.4779C12.6993 12.4907 12.7393 12.4935 12.7781 12.5017C12.8643 12.5192 12.8649 12.5229 12.8156 12.6001C12.7585 12.6945 12.6718 12.7673 12.569 12.8073C12.394 12.8748 12.394 12.8795 12.4246 13.0932C12.4371 13.1701 12.4371 13.2407 12.3959 13.3101C12.3343 13.4135 12.3206 13.422 12.2106 13.396C12.1762 13.3882 12.1399 13.3817 12.1128 13.3563C12.079 13.3263 12.0515 13.3329 12.019 13.3579C11.9256 13.4285 11.8324 13.4326 11.7453 13.3451C11.7249 13.3248 11.7112 13.3223 11.6868 13.3407C11.5974 13.4132 11.5062 13.4592 11.4187 13.3367C11.409 13.3226 11.3984 13.3251 11.3868 13.3345C11.3696 13.3451 11.3531 13.3582 11.3346 13.3667C11.2987 13.3835 11.2618 13.4307 11.2274 13.396C11.1981 13.3651 11.2274 13.316 11.2406 13.2773C11.3062 13.0842 11.3684 13.0363 11.5562 13.0357C11.6174 13.0357 11.6803 13.0382 11.7437 13.0335C11.9049 13.022 12.0259 12.877 12.0306 12.6963C12.0349 12.5388 11.9903 12.3904 11.9484 12.2448C11.8973 12.0769 11.8537 11.9068 11.8178 11.7351C11.7974 11.692 11.7937 11.6451 11.7893 11.597V11.4432C11.7859 11.3579 11.8178 11.2767 11.8199 11.2067C11.8165 11.2463 11.8059 11.3004 11.7968 11.3535C11.7862 11.4526 11.7874 11.5507 11.7956 11.6479C11.8081 11.6888 11.7956 11.7323 11.8037 11.7726C11.7971 11.832 11.8271 11.8854 11.8253 11.9554C11.6299 11.8788 11.4671 11.7545 11.3137 11.6145C11.2403 11.5935 11.2021 11.5263 11.1584 11.4654C11.1359 11.4323 11.1146 11.3976 11.0849 11.3723C11.081 11.3658 11.0782 11.3586 11.0768 11.351C11.059 11.2838 10.999 11.2348 11.0115 11.156" fill="#FEB600"/>
<path fill-rule="evenodd" clip-rule="evenodd" d="M13.6085 7.54658C13.5501 7.78814 13.611 7.9972 13.7492 8.18283C13.7807 8.22501 13.7867 8.25595 13.7626 8.30751C13.7272 8.38174 13.7151 8.46499 13.728 8.54623C13.7409 8.62748 13.7781 8.7029 13.8348 8.76251C13.8854 8.81658 13.9257 8.80408 13.9435 8.7297C13.9473 8.71658 13.9479 8.70158 13.9495 8.68751C13.9689 8.55814 14.0148 8.52595 14.1273 8.56658C14.257 8.61439 14.3807 8.68626 14.5173 8.71345C14.8295 8.77626 15.1404 8.7497 15.4489 8.68626C15.6301 8.64908 15.8107 8.62345 15.9926 8.65876C16.1395 8.68626 16.231 8.78439 16.2442 8.9172C16.256 9.04314 16.1739 9.19376 16.0532 9.25001C15.8854 9.32814 15.7123 9.38126 15.5292 9.38314C15.4187 9.38418 15.3085 9.38418 15.1985 9.38314C14.9967 9.38314 14.7951 9.38814 14.5942 9.43189C14.4589 9.46095 14.3189 9.44345 14.182 9.44158C14.0274 9.43991 13.8723 9.43762 13.7167 9.4347C13.5782 9.43189 13.5045 9.37158 13.4598 9.22126C13.4492 9.18845 13.4367 9.15314 13.4432 9.1147C13.4826 9.1172 13.5182 9.1597 13.5514 9.11939C13.5845 9.07876 13.5607 9.03314 13.5501 8.99189C13.5382 8.94908 13.522 8.9072 13.5107 8.86439C13.4998 8.82126 13.4857 8.77783 13.5382 8.7522C13.5614 8.74064 13.5579 8.70876 13.5607 8.68408C13.5749 8.4697 13.5795 8.25595 13.5745 8.04283C13.5726 7.9422 13.5532 7.84533 13.4976 7.7647C13.4739 7.73064 13.472 7.70501 13.501 7.67158C13.5339 7.63376 13.5614 7.58908 13.5907 7.54783C13.5964 7.54158 13.6032 7.54158 13.6085 7.54658Z" fill="#8C2029"/>
<path fill-rule="evenodd" clip-rule="evenodd" d="M9.77866 9.92914C9.75794 9.85939 9.74793 9.7869 9.74897 9.71414C9.74459 9.16602 9.73428 8.61695 9.77803 8.06945C9.80616 7.71133 9.85928 7.36039 10.0224 7.04445C10.1224 6.85102 10.2527 6.69227 10.4368 6.58008C10.434 6.64133 10.4037 6.68352 10.3905 6.73227C10.3327 6.94852 10.3099 7.17133 10.2887 7.39477C10.2218 8.11289 10.213 8.83352 10.1977 9.55352C10.1955 9.67383 10.1937 9.79445 10.1677 9.91258C10.1717 9.91955 10.1741 9.92733 10.1746 9.93534C10.1751 9.94335 10.1739 9.95138 10.1708 9.95883C10.1449 9.99477 10.153 10.0295 10.1746 10.0635L10.1808 10.0898C10.189 10.1379 10.1646 10.1598 10.1277 10.1716C10.0149 10.1941 9.90147 10.2076 9.78866 10.1704C9.76178 10.1563 9.75553 10.1295 9.75553 10.0991C9.77102 10.0438 9.7788 9.9866 9.77866 9.92914ZM14.6055 11.3132H14.6033C14.7165 11.371 14.8271 11.436 14.9155 11.5376C14.9666 11.5953 15.0178 11.6529 15.0693 11.7104C15.128 11.7754 15.2037 11.8166 15.2571 11.8876C15.2874 11.9104 15.3033 11.9323 15.2696 11.971C15.2368 12.0073 15.2114 12.0497 15.1949 12.0957C15.149 12.2226 15.2249 12.3535 15.3452 12.3607C15.3846 12.3632 15.4418 12.3348 15.4612 12.387C15.4808 12.4366 15.4346 12.4785 15.4093 12.5198C15.3646 12.5904 15.314 12.657 15.2683 12.727C15.2378 12.772 15.2179 12.8234 15.2101 12.8772C15.2023 12.9311 15.2068 12.986 15.2233 13.0379C15.2455 13.1132 15.2627 13.1895 15.2562 13.2701C15.2462 13.3891 15.1774 13.4395 15.0783 13.3988C15.0566 13.3907 15.0361 13.3795 15.0174 13.3657C14.968 13.3238 14.9277 13.2891 14.8777 13.3788C14.8433 13.442 14.7121 13.4166 14.6674 13.3451C14.6427 13.3048 14.6296 13.3101 14.6002 13.3382C14.5005 13.4363 14.4593 13.4363 14.3624 13.3382C14.3349 13.3107 14.3155 13.307 14.2858 13.3301C14.2495 13.3589 14.2097 13.3832 14.1674 13.4023C14.1283 13.4204 14.1005 13.4135 14.1121 13.3485C14.1355 13.2301 14.2174 13.1348 14.324 13.1182C14.408 13.1057 14.4933 13.1032 14.578 13.0901C14.6968 13.0713 14.7521 12.9973 14.7487 12.8657C14.7458 12.7273 14.7465 12.5898 14.7374 12.4526C14.7304 12.3248 14.6894 12.2011 14.6187 12.0945C14.5546 11.9979 14.4893 11.901 14.4258 11.8032C14.328 11.6535 14.2708 11.4907 14.2843 11.301C14.3133 11.2688 14.3471 11.282 14.3796 11.2885C14.4252 11.2862 14.4705 11.2914 14.5155 11.3041C14.5452 11.3035 14.5749 11.3173 14.6055 11.3132ZM11.1005 11.3538L11.098 11.3588C11.1233 11.3888 11.1402 11.4276 11.1662 11.4573C11.1996 11.5179 11.2627 11.5516 11.2893 11.6201C11.2905 11.6226 11.2908 11.6251 11.2933 11.627C11.404 11.7601 11.4052 11.7607 11.274 11.8773C11.236 11.9126 11.1948 11.9442 11.1508 11.9716C11.0555 12.0351 10.9662 12.0257 10.8833 11.9398C10.7936 11.8471 10.7025 11.7556 10.6102 11.6654C10.5502 11.6063 10.4962 11.612 10.458 11.6888C10.4346 11.7351 10.4246 11.7157 10.4083 11.6916C10.3889 11.661 10.3796 11.6251 10.3815 11.5888C10.3788 11.513 10.3779 11.4372 10.3787 11.3613C10.3799 11.2795 10.3743 11.2038 10.3046 11.1545C10.2818 11.1391 10.2718 11.1185 10.298 11.0873C10.3147 11.0684 10.3258 11.0452 10.3299 11.0203C10.3341 10.9955 10.3311 10.9699 10.3215 10.9466C10.3115 10.9204 10.3193 10.8932 10.3265 10.8654C10.3349 10.831 10.3468 10.792 10.3046 10.7726C10.2902 10.777 10.2833 10.7732 10.2883 10.7557C10.2881 10.7507 10.2886 10.7458 10.2896 10.741C10.2777 10.696 10.3271 10.6488 10.2855 10.6054C10.2796 10.6004 10.2771 10.5926 10.274 10.5857C10.268 10.5645 10.2752 10.5454 10.283 10.527C10.2883 10.5123 10.3021 10.497 10.2912 10.4807C10.2796 10.4635 10.2643 10.4741 10.2521 10.4816C10.2302 10.4954 10.2105 10.5141 10.1868 10.5251C10.1387 10.5476 10.108 10.5266 10.0933 10.4716C10.0827 10.4513 10.0562 10.4451 10.0505 10.416C10.128 10.397 10.2043 10.3826 10.2774 10.3607C10.309 10.3507 10.3237 10.3701 10.3405 10.3898C10.5232 10.5925 10.7055 10.7956 10.8874 10.9991C10.9337 11.0504 10.9721 11.1098 10.9962 11.1776C11.0437 11.227 11.0555 11.3029 11.1005 11.3538ZM10.1968 12.371C10.1562 12.3779 10.1312 12.3826 10.1074 12.3863C10.0537 12.3913 10.0096 12.4095 10.0074 12.4838C10.0058 12.5003 9.99987 12.516 9.99022 12.5295C9.97616 12.5563 9.96084 12.5885 9.93209 12.5885C9.90428 12.5879 9.89616 12.552 9.88522 12.5288C9.81959 12.3976 9.82084 12.3976 9.69178 12.3732C9.69772 12.331 9.73459 12.3232 9.75397 12.2979C9.79866 12.2407 9.79334 12.2116 9.72866 12.196C9.67605 12.1816 9.62907 12.1515 9.59397 12.1098C9.55459 12.0676 9.55178 12.0182 9.58772 11.9757C9.62678 11.9298 9.66522 11.9632 9.68772 12.001C9.72366 12.0607 9.74522 12.036 9.77428 11.9957C9.80797 11.9461 9.82684 11.8879 9.82866 11.828C9.83049 11.768 9.8152 11.7088 9.78459 11.6573C9.75209 11.6048 9.75459 11.571 9.79428 11.532C9.80379 11.5225 9.81171 11.5115 9.81772 11.4995C9.83334 11.472 9.85803 11.4445 9.84209 11.4082C9.82647 11.3741 9.79491 11.3845 9.76803 11.3826C9.75334 11.3826 9.73803 11.3832 9.72334 11.3807C9.68991 11.3745 9.65803 11.3632 9.64616 11.3235C9.63678 11.2954 9.64022 11.267 9.66209 11.246C9.69178 11.2166 9.72272 11.2295 9.75209 11.247C9.80991 11.2813 9.84866 11.2766 9.85022 11.1895C9.85084 11.1613 9.86334 11.1482 9.88897 11.157C9.89334 11.1588 9.89866 11.1588 9.90366 11.1601C10.0015 11.1976 10.0871 11.2716 10.1974 11.2707C10.2202 11.2707 10.2468 11.3029 10.2352 11.3413C10.2246 11.376 10.1993 11.3976 10.1658 11.392C10.1337 11.387 10.1027 11.3745 10.0708 11.3663C10.0193 11.352 10.0087 11.3804 10.0215 11.4295C10.0215 11.4332 10.0233 11.4345 10.024 11.4376C10.0393 11.5029 10.1108 11.5398 10.1115 11.5982C10.1127 11.6554 10.0508 11.7023 10.0427 11.7704C10.0315 11.8691 10.0474 11.9545 10.119 12.0201C10.1449 12.0432 10.1658 12.0501 10.183 12.0063C10.2074 11.9445 10.2508 11.9388 10.2924 11.9785C10.3362 12.0207 10.3227 12.0695 10.2849 12.1098C10.2463 12.1552 10.1928 12.1853 10.134 12.1948C10.1146 12.1973 10.0893 12.1973 10.0818 12.2207C10.0743 12.2479 10.0943 12.2682 10.1093 12.2854C10.1349 12.312 10.1608 12.336 10.1968 12.371Z" fill="#FEB600"/>
<path fill-rule="evenodd" clip-rule="evenodd" d="M15.8147 12.7288C15.8159 12.946 15.8159 12.9476 15.6259 12.9994C15.5231 13.0269 15.4241 13.0644 15.3406 13.1416C15.3106 13.1697 15.3012 13.1651 15.2869 13.1219C15.2272 12.9472 15.25 12.7951 15.3681 12.6576C15.4141 12.6029 15.4519 12.5385 15.4859 12.4735C15.5372 12.3785 15.5037 12.3147 15.4066 12.3101C15.3844 12.3094 15.3619 12.3113 15.3394 12.3094C15.2619 12.3022 15.2091 12.2191 15.2287 12.1357C15.2343 12.1144 15.2426 12.0939 15.2534 12.0747C15.3147 11.9604 15.3159 11.9597 15.4162 12.0319C15.4734 12.0729 15.5278 12.1172 15.5856 12.1566C15.7178 12.2466 15.8034 12.3679 15.8022 12.5516C15.8022 12.611 15.8109 12.6704 15.8147 12.7288Z" fill="#8C2029"/>
<path fill-rule="evenodd" clip-rule="evenodd" d="M10.1526 9.94702L10.1673 9.91265C10.1901 9.89935 10.2155 9.89135 10.2417 9.88923C10.268 9.88712 10.2943 9.89096 10.3189 9.90046C10.4417 9.9464 10.4836 10.0823 10.4117 10.2051C10.3763 10.267 10.3188 10.3131 10.2508 10.3342C10.0608 10.3948 9.8564 10.3933 9.66733 10.3298C9.60737 10.3099 9.55585 10.2704 9.52108 10.2176C9.46327 10.1333 9.46171 10.0314 9.51671 9.96359C9.54472 9.92692 9.58609 9.9028 9.63179 9.89648C9.6775 9.89016 9.72386 9.90215 9.76077 9.92984C9.80515 9.9664 9.7939 10.0111 9.77733 10.058C9.74765 10.0992 9.74358 10.1373 9.79421 10.1633C9.90702 10.1976 10.0208 10.188 10.1323 10.1602C10.162 10.1405 10.2061 10.1255 10.1514 10.0805L10.1533 10.0826C10.1373 10.038 10.1289 9.99202 10.1526 9.94702Z" fill="#FEB600"/>
<path fill-rule="evenodd" clip-rule="evenodd" d="M11.294 8.74894C11.1968 8.72207 11.0996 8.69957 11.0034 8.66832C10.923 8.64406 10.854 8.59171 10.809 8.52082C10.7918 8.49394 10.7712 8.46207 10.7918 8.428C10.8146 8.39019 10.8453 8.41082 10.8725 8.42207C11.0393 8.48957 11.1968 8.57894 11.3678 8.63363C11.4784 8.668 11.5896 8.698 11.7043 8.70519C11.7387 8.70644 11.7693 8.71332 11.7906 8.74582C11.8259 8.77394 11.8325 8.82144 11.8493 8.86082C11.8525 8.88457 11.869 8.90738 11.8559 8.93301C11.8328 8.97207 11.8012 8.94926 11.7728 8.94926C11.7565 8.94801 11.7434 8.94082 11.7278 8.93832C11.691 8.93168 11.654 8.92636 11.6168 8.92238C11.6053 8.91988 11.5937 8.91582 11.5806 8.91582C11.5293 8.91644 11.485 8.91332 11.5293 8.83519C11.54 8.81644 11.5318 8.79769 11.515 8.78519C11.4409 8.77426 11.364 8.79051 11.294 8.74894Z" fill="#FDB600"/>
<path fill-rule="evenodd" clip-rule="evenodd" d="M10.1265 10.7756C10.0887 10.8085 10.0459 10.7931 10.0041 10.7903C9.96874 10.7788 9.92467 10.8081 9.89655 10.7594C9.85874 10.75 9.81905 10.7422 9.78124 10.7313C9.72686 10.716 9.69124 10.671 9.69811 10.611C9.70624 10.5425 9.76155 10.57 9.80092 10.5694C9.81259 10.5696 9.82488 10.5704 9.8378 10.5719C9.86092 10.5622 9.88217 10.5725 9.90311 10.5781C9.97186 10.5916 10.0344 10.6291 10.0987 10.6531C10.1522 10.6738 10.16 10.721 10.1265 10.7756Z" fill="#FDB500"/>
<path fill-rule="evenodd" clip-rule="evenodd" d="M9.97595 10.8032C10.0125 10.8194 10.0488 10.8341 10.085 10.8526C10.1125 10.8666 10.1425 10.8851 10.1328 10.9254C10.1238 10.9672 10.0906 10.9754 10.0566 10.9747C10.0391 10.9743 10.0217 10.9731 10.0044 10.971C9.97189 10.9885 9.94657 10.9772 9.92782 10.9432C9.8897 10.9332 9.85095 10.9263 9.81345 10.9132C9.77689 10.9013 9.7397 10.8807 9.7497 10.8272C9.75845 10.7816 9.7922 10.7701 9.83032 10.7716C9.84762 10.7727 9.86512 10.7733 9.88282 10.7735C9.91501 10.7763 9.95064 10.7663 9.97595 10.8032Z" fill="#FBB400"/>
<path fill-rule="evenodd" clip-rule="evenodd" d="M9.83819 10.5547C9.83611 10.5526 9.83392 10.551 9.83163 10.5497C9.79975 10.5244 9.73569 10.5191 9.75288 10.4572C9.77194 10.3891 9.8335 10.416 9.87569 10.4247C9.94413 10.4397 10.0101 10.4654 10.0773 10.4863C10.1116 10.4929 10.1335 10.5188 10.1491 10.5507C10.1616 10.5775 10.1473 10.5988 10.1326 10.6191C10.1116 10.6491 10.0823 10.6516 10.0532 10.6404C9.99955 10.6205 9.94525 10.6024 9.89038 10.5863C9.87027 10.5811 9.85213 10.5701 9.83819 10.5547Z" fill="#FAB300"/>
<path fill-rule="evenodd" clip-rule="evenodd" d="M10.0028 10.9906C10.0316 11.0068 10.0603 11.0221 10.0878 11.0415C10.1088 11.0562 10.1288 11.0759 10.1231 11.109C10.1169 11.144 10.0891 11.1465 10.0644 11.149C9.98534 11.1584 9.91284 11.1349 9.84221 11.0965C9.80034 11.0749 9.7794 11.0409 9.78971 10.9906C9.80096 10.9346 9.84159 10.9668 9.87034 10.9615C9.87742 10.9611 9.88471 10.9609 9.89221 10.9609C9.92971 10.9674 9.97065 10.9543 10.0028 10.9906Z" fill="#FCB500"/>
<path fill-rule="evenodd" clip-rule="evenodd" d="M9.88336 10.5704L10.0255 10.6095C10.0643 10.6185 10.108 10.6351 10.1287 10.5816C10.1493 10.5288 10.0993 10.5141 10.0774 10.4857L10.0934 10.4707C10.1221 10.482 10.1418 10.5257 10.1799 10.5001C10.1918 10.4923 10.199 10.4988 10.2065 10.5073C10.2125 10.5226 10.2148 10.539 10.2134 10.5554C10.2412 10.5366 10.2602 10.5032 10.2946 10.5107C10.3052 10.5163 10.313 10.5232 10.3046 10.5373L10.2855 10.5854C10.2987 10.6216 10.2974 10.6529 10.2662 10.6804C10.223 10.721 10.1896 10.7735 10.154 10.8223C10.1452 10.8058 10.136 10.7896 10.1265 10.7735C10.144 10.7316 10.1296 10.7032 10.0965 10.6854C10.0277 10.6482 9.95867 10.6138 9.88273 10.6004C9.87523 10.5907 9.87461 10.581 9.88336 10.5704Z" fill="#070500"/>
<path fill-rule="evenodd" clip-rule="evenodd" d="M10.2866 10.7559L10.3029 10.7727C10.3039 10.864 10.271 10.9352 10.2041 10.9865C10.1907 10.9968 10.1726 11.0112 10.1576 10.9937C10.1426 10.978 10.1485 10.9549 10.1579 10.9384C10.1716 10.9155 10.1844 10.8868 10.2041 10.8749C10.2501 10.8487 10.2716 10.8068 10.2866 10.7559Z" fill="#EFAB00"/>
<path fill-rule="evenodd" clip-rule="evenodd" d="M10.153 10.8228C10.1477 10.7975 10.1505 10.7711 10.1611 10.7475C10.1717 10.7239 10.1896 10.7043 10.2121 10.6916C10.2521 10.6666 10.2708 10.6297 10.2843 10.5859C10.2905 10.5868 10.2974 10.5874 10.3049 10.5878C10.3196 10.64 10.3177 10.6875 10.2749 10.7234C10.2396 10.7638 10.2171 10.8259 10.153 10.8228Z" fill="#F6B000"/>
<path fill-rule="evenodd" clip-rule="evenodd" d="M13.3198 8.98058C13.2321 8.92163 13.1559 8.84731 13.0948 8.76121C13.081 8.75308 13.0682 8.74527 13.0773 8.72495C13.0829 8.70589 13.0954 8.67933 13.1094 8.70777C13.1635 8.81777 13.2588 8.8812 13.3366 8.96464L13.3198 8.98058Z" fill="#171100"/>
<path fill-rule="evenodd" clip-rule="evenodd" d="M13.438 8.70024C13.3755 8.63711 13.2996 8.58805 13.259 8.50117C13.2386 8.46477 13.2276 8.42384 13.2271 8.38211C13.2249 8.36523 13.2124 8.3443 13.2424 8.3418C13.2562 8.50055 13.3649 8.58242 13.4562 8.67867C13.4498 8.68558 13.4437 8.69278 13.438 8.70024Z" fill="#181100"/>
<path fill-rule="evenodd" clip-rule="evenodd" d="M12.7695 11.7869L12.932 11.3985C12.9495 11.3978 12.9551 11.4063 12.9486 11.4238C12.9161 11.5588 12.8427 11.6738 12.7983 11.8016L12.7695 11.7869Z" fill="#1A1300"/>
<path fill-rule="evenodd" clip-rule="evenodd" d="M10.3047 10.996C10.3034 11.0404 10.2091 11.1514 10.1822 11.1489C10.1566 11.1457 10.1572 11.1235 10.1647 11.1045C10.1851 11.0522 10.2248 11.0098 10.2756 10.9861C10.2941 10.9776 10.3034 10.9851 10.3047 10.996Z" fill="#F1AD00"/>
<path fill-rule="evenodd" clip-rule="evenodd" d="M15.2564 11.8877C15.1827 11.8421 15.1168 11.7851 15.0611 11.7187C15.0589 11.7024 15.063 11.6955 15.0783 11.7012L15.2723 11.8708C15.2671 11.8761 15.2618 11.8817 15.2564 11.8877Z" fill="#1A1300"/>
<path fill-rule="evenodd" clip-rule="evenodd" d="M11.2932 8.74805C11.3755 8.75763 11.4582 8.76669 11.5413 8.77523C11.5126 8.80555 11.4745 8.77523 11.4438 8.7943C11.3811 8.79682 11.3185 8.78673 11.2598 8.76461C11.2706 8.75878 11.2817 8.75326 11.2932 8.74805Z" fill="#2F2200"/>
<path fill-rule="evenodd" clip-rule="evenodd" d="M11.1005 11.3531C11.0361 11.3169 11.0217 11.2425 10.9961 11.1772C11.0023 11.1703 11.0067 11.1625 11.0123 11.1562C11.042 11.2219 11.0842 11.28 11.1005 11.3531Z" fill="#211800"/>
<path fill-rule="evenodd" clip-rule="evenodd" d="M14.3733 11.2943C14.3439 11.2972 14.3143 11.2996 14.2845 11.3015C14.242 11.2611 14.1892 11.2971 14.1445 11.2783C14.219 11.2582 14.2976 11.2588 14.3717 11.2802C14.3826 11.284 14.3831 11.2886 14.3733 11.2943Z" fill="#5F4400"/>
<path fill-rule="evenodd" clip-rule="evenodd" d="M11.2883 11.6187C11.237 11.5747 11.1937 11.5221 11.1602 11.4634C11.1611 11.4607 11.1628 11.4584 11.165 11.4565C11.1672 11.4547 11.1698 11.4535 11.1727 11.4531C11.2191 11.5071 11.2659 11.5608 11.313 11.6144C11.3046 11.6156 11.2964 11.6171 11.2883 11.6187Z" fill="#130D00"/>
<path fill-rule="evenodd" clip-rule="evenodd" d="M10.2754 10.7255C10.2991 10.6842 10.2863 10.6323 10.3054 10.5898C10.3663 10.6495 10.3188 10.6942 10.2879 10.7427L10.2754 10.7255Z" fill="#3A2900"/>
<path fill-rule="evenodd" clip-rule="evenodd" d="M9.76297 10.0627C9.77277 10.0417 9.77774 10.0187 9.77753 9.99541C9.77731 9.97216 9.77191 9.94925 9.76172 9.92836L9.77891 9.92773C9.82984 9.9793 9.80234 10.0309 9.78016 10.083C9.76995 10.0814 9.76422 10.0746 9.76297 10.0627Z" fill="#251A00"/>
<path fill-rule="evenodd" clip-rule="evenodd" d="M13.5752 9.50586C13.6039 9.52461 13.6339 9.54242 13.6558 9.59242C13.6165 9.58141 13.5822 9.55725 13.5586 9.52398C13.5638 9.51794 13.5693 9.5119 13.5752 9.50586Z" fill="#2C2000"/>
<path fill-rule="evenodd" clip-rule="evenodd" d="M11.8033 11.7725C11.7842 11.735 11.7908 11.6925 11.788 11.6531C11.7861 11.6331 11.7674 11.6084 11.802 11.6016L11.8174 11.735C11.8123 11.7473 11.8076 11.7599 11.8033 11.7725Z" fill="#020200"/>
<path fill-rule="evenodd" clip-rule="evenodd" d="M9.9743 10.8034L9.88086 10.7741L9.89586 10.7578C9.93377 10.7586 9.97081 10.7693 10.0034 10.7888L9.9743 10.8034Z" fill="#463200"/>
<path fill-rule="evenodd" clip-rule="evenodd" d="M11.8373 8.86352L11.791 8.74539L11.812 8.74414C11.8249 8.77206 11.8376 8.80029 11.8501 8.82883C11.8582 8.84602 11.8632 8.86227 11.8373 8.86352Z" fill="#221800"/>
<path fill-rule="evenodd" clip-rule="evenodd" d="M10.0032 10.9905L9.89258 10.9609C9.90383 10.9546 9.91508 10.9488 9.92633 10.9434C9.95386 10.9457 9.98028 10.9553 10.0029 10.9712L10.0032 10.9905Z" fill="#1E1500"/>
<path fill-rule="evenodd" clip-rule="evenodd" d="M13.6096 7.54719C13.6042 7.5474 13.5983 7.54802 13.5918 7.54906C13.6049 7.51969 13.6172 7.49031 13.6287 7.46094C13.6405 7.49687 13.6255 7.52187 13.6096 7.54719Z" fill="#64171D"/>
<path fill-rule="evenodd" clip-rule="evenodd" d="M13.3354 9.40097L13.2676 9.37815C13.3054 9.36065 13.3291 9.37159 13.3523 9.38597L13.3354 9.40097Z" fill="#010100"/>
<path fill-rule="evenodd" clip-rule="evenodd" d="M9.88289 10.5716V10.6019C9.86747 10.5919 9.85247 10.5818 9.83789 10.5716V10.555C9.85539 10.5528 9.86914 10.5613 9.88289 10.5716Z" fill="#020200"/>
<path fill-rule="evenodd" clip-rule="evenodd" d="M17.8398 7.02274C17.8455 6.97649 17.8455 6.92899 17.8564 6.88618C17.9217 6.6393 17.9458 6.38493 17.9745 6.1318C18.0114 5.80305 18.2283 5.6743 18.4973 5.80805C18.5514 5.83493 18.6083 5.84368 18.6652 5.84055C18.7108 5.83774 18.7336 5.85149 18.7195 5.90649C18.7077 5.95587 18.7236 5.99899 18.7445 6.04149C18.762 6.07608 18.776 6.11212 18.7864 6.14962C18.8333 6.30399 18.7895 6.43337 18.6639 6.51618C18.5882 6.56319 18.505 6.59691 18.418 6.61587C18.1827 6.67274 17.9614 6.75243 17.8398 7.02274ZM17.868 13.2724C17.972 13.4781 18.1383 13.5787 18.3383 13.6249C18.4264 13.6452 18.5136 13.6709 18.5964 13.7096C18.797 13.804 18.8533 13.9634 18.7595 14.184C18.7339 14.2452 18.7008 14.3024 18.7192 14.3743C18.7295 14.4134 18.7086 14.4231 18.678 14.4209C18.5936 14.4165 18.5177 14.4449 18.4395 14.4824C18.2636 14.5659 18.0598 14.4559 17.9964 14.2527C17.9743 14.1831 17.9617 14.1108 17.9589 14.0377C17.9518 13.8447 17.9234 13.653 17.8742 13.4662C17.863 13.4199 17.8489 13.3743 17.852 13.3256C17.848 13.3043 17.8311 13.2777 17.868 13.2724Z" fill="#FEB600"/>
<path fill-rule="evenodd" clip-rule="evenodd" d="M17.8679 13.2729C17.8623 13.2908 17.8571 13.3085 17.8523 13.326C17.8393 13.298 17.835 13.2668 17.8398 13.2363C17.8632 13.236 17.8632 13.2557 17.8679 13.2729Z" fill="#D39700"/>
<path fill-rule="evenodd" clip-rule="evenodd" d="M8.38372 13.2909C8.37935 13.3244 8.37747 13.3584 8.36997 13.3909C8.3131 13.6278 8.27935 13.8669 8.25997 14.1119C8.23872 14.379 8.10372 14.5119 7.88466 14.5053C7.84419 14.5054 7.80449 14.4942 7.76997 14.4731C7.7098 14.4345 7.63877 14.4164 7.56747 14.4215C7.52216 14.4247 7.50153 14.4097 7.51153 14.3553C7.52122 14.3028 7.50341 14.2578 7.48216 14.2112C7.36778 13.9631 7.42747 13.79 7.66091 13.6972C7.7456 13.6634 7.83247 13.6347 7.91966 13.6147C8.11747 13.5694 8.26903 13.4565 8.36685 13.2559C8.39591 13.2547 8.39028 13.2728 8.38372 13.2909Z" fill="#FEB600"/>
<path fill-rule="evenodd" clip-rule="evenodd" d="M8.38406 13.2904L8.36719 13.2557C8.36906 13.2401 8.38219 13.2232 8.38844 13.2301C8.40344 13.2479 8.3925 13.271 8.38406 13.2904Z" fill="#9D7000"/>
<path fill-rule="evenodd" clip-rule="evenodd" d="M8.3659 7.00659C8.26809 6.80472 8.11653 6.69409 7.91997 6.64753C7.81434 6.62222 7.70997 6.59378 7.61122 6.54347C7.43184 6.45034 7.37965 6.29753 7.46153 6.09534C7.48903 6.02722 7.5259 5.96253 7.51028 5.88065C7.50278 5.84347 7.52778 5.84097 7.55153 5.84159C7.63622 5.84659 7.71215 5.81503 7.78934 5.78003C7.96715 5.69659 8.16965 5.80659 8.23215 6.01128C8.25247 6.07878 8.26497 6.14753 8.26684 6.21722C8.27122 6.44128 8.32122 6.65565 8.36934 6.8719C8.3759 6.90409 8.37809 6.93847 8.38247 6.97097C8.38934 6.98909 8.39497 7.00753 8.3659 7.00659Z" fill="#FEB600"/>
<path fill-rule="evenodd" clip-rule="evenodd" d="M8.36719 7.00602C8.37344 6.99414 8.37906 6.98237 8.38406 6.9707C8.39375 6.99008 8.40344 7.0132 8.38875 7.0307C8.38344 7.03695 8.36906 7.02195 8.36719 7.00602Z" fill="#9C7000"/>
<path fill-rule="evenodd" clip-rule="evenodd" d="M11.9213 9.86227L11.9238 9.86977C11.9404 9.90477 11.9307 9.96852 11.9613 9.97227C12.0026 9.97727 12.0438 9.93977 12.0741 9.90164C12.1248 9.83664 12.1448 9.75789 12.1566 9.6582C12.2029 9.73289 12.2101 9.80508 12.2288 9.87227C12.241 9.91852 12.2607 9.91039 12.2866 9.89602L12.2848 9.89352C12.2842 9.91271 12.2762 9.93094 12.2626 9.94445C12.2479 9.95789 12.2354 9.98445 12.2145 9.97852C12.1851 9.96977 12.1954 9.93664 12.1932 9.91445C12.1907 9.8732 12.1945 9.83195 12.1626 9.78008C12.1332 9.91883 12.0382 9.9732 11.9516 10.0341C11.9179 10.0582 11.9076 10.0495 11.9101 10.0066C11.9113 9.97008 11.9091 9.93352 11.9085 9.89758C11.901 9.88039 11.8957 9.86414 11.9213 9.86227Z" fill="#0E0A00"/>
<path fill-rule="evenodd" clip-rule="evenodd" d="M12.3346 8.52586C12.3446 8.50023 12.3534 8.47492 12.3665 8.43898C12.4115 8.48023 12.4531 8.51836 12.494 8.55711C12.5275 8.58898 12.5396 8.57336 12.5462 8.5318C12.5556 8.46836 12.5281 8.41086 12.5259 8.3418C12.5665 8.37523 12.5893 8.41805 12.615 8.45711C12.6187 8.47523 12.6128 8.48336 12.5956 8.47773C12.5768 8.51742 12.574 8.56242 12.5687 8.60586C12.5643 8.6468 12.5515 8.65492 12.5225 8.62867C12.4884 8.59711 12.4503 8.56961 12.4184 8.53523C12.39 8.50492 12.3684 8.51242 12.3431 8.53398C12.3354 8.53669 12.3326 8.53398 12.3346 8.52586Z" fill="#110C00"/>
<path fill-rule="evenodd" clip-rule="evenodd" d="M12.9463 11.4239C12.9403 11.4155 12.9356 11.4064 12.9297 11.3986C12.9951 11.2056 13.0331 11.0043 13.0428 10.8008C13.0787 11.0211 13.0141 11.223 12.9463 11.4239Z" fill="#1D1500"/>
<path fill-rule="evenodd" clip-rule="evenodd" d="M12.6753 9.34737C12.6291 9.34424 12.5985 9.27393 12.5572 9.29424C12.5225 9.31331 12.5394 9.38206 12.5203 9.42299C12.5085 9.44643 12.5097 9.48831 12.4825 9.49018C12.4528 9.49268 12.4547 9.45081 12.445 9.42674L12.4175 9.35799C12.4082 9.33799 12.4194 9.33799 12.4319 9.33831C12.4488 9.36424 12.4647 9.39112 12.4844 9.42299C12.5085 9.37174 12.506 9.32174 12.5125 9.27424C12.5182 9.23456 12.5269 9.20831 12.5669 9.24206C12.6038 9.27456 12.6538 9.28924 12.6775 9.34143L12.6753 9.34737Z" fill="#120D00"/>
<path fill-rule="evenodd" clip-rule="evenodd" d="M12.8752 9.21702C12.8387 9.25171 12.8634 9.29764 12.8559 9.33889C12.8512 9.37327 12.8596 9.41014 12.8443 9.44358C12.8321 9.44233 12.8315 9.43202 12.8284 9.42233C12.8296 9.36577 12.8315 9.31077 12.8296 9.25483C12.8277 9.18483 12.7809 9.14858 12.7384 9.11046C12.7065 9.08046 12.6977 9.12639 12.6781 9.13608C12.6621 9.14171 12.6584 9.13296 12.6609 9.11671L12.6768 9.08046C12.6846 9.05921 12.6846 9.02546 12.7109 9.02171C12.7327 9.01858 12.7384 9.04921 12.749 9.06671C12.7837 9.12733 12.8418 9.15764 12.8856 9.20608C12.8866 9.21483 12.8832 9.21848 12.8752 9.21702Z" fill="#1F1600"/>
<path fill-rule="evenodd" clip-rule="evenodd" d="M12.955 8.82586C12.8994 8.78898 12.8712 8.81898 12.8506 8.87648C12.8403 8.90648 12.8237 8.93398 12.8044 8.9743C12.7784 8.93523 12.7569 8.90148 12.734 8.86773C12.729 8.8493 12.7359 8.84586 12.7503 8.84867L12.8003 8.89586C12.8481 8.83523 12.85 8.76742 12.8397 8.67773C12.8809 8.73867 12.935 8.7643 12.9544 8.82711L12.955 8.82586Z" fill="#161000"/>
<path fill-rule="evenodd" clip-rule="evenodd" d="M12.6594 9.11621L12.6766 9.13558C12.6588 9.16746 12.6403 9.19121 12.6272 9.13246C12.616 9.09311 12.5979 9.05607 12.5738 9.02308C12.5022 8.91558 12.5006 8.91558 12.421 9.00183C12.4128 8.99516 12.4119 8.98766 12.4181 8.97933C12.4313 8.94027 12.4238 8.87995 12.4597 8.8687C12.4956 8.85745 12.5197 8.91152 12.5459 8.94027C12.5913 8.99245 12.6347 9.04808 12.6594 9.11621Z" fill="#110C00"/>
<path fill-rule="evenodd" clip-rule="evenodd" d="M13.291 9.91017C13.2528 9.89924 13.211 9.89455 13.1772 9.87517C13.0947 9.82642 13.0225 9.81986 12.9625 9.9133C12.9463 9.91861 12.9413 9.9108 12.9441 9.89392C13.0353 9.7808 13.0363 9.77892 13.1619 9.83455C13.2057 9.8533 13.2557 9.85205 13.2913 9.89236C13.3019 9.89903 13.3018 9.90497 13.291 9.91017Z" fill="#181100"/>
<path fill-rule="evenodd" clip-rule="evenodd" d="M13.291 9.90986L13.2916 9.89174C13.3557 9.90424 13.3779 9.86799 13.3798 9.80111C13.381 9.7483 13.3607 9.67455 13.3932 9.64892C13.4229 9.62455 13.4826 9.6508 13.5301 9.65455L13.5373 9.65799C13.5516 9.6558 13.571 9.6383 13.5754 9.67299C13.551 9.67424 13.5248 9.68142 13.5013 9.67674C13.4207 9.65799 13.4095 9.72049 13.3973 9.7833C13.3966 9.7908 13.4007 9.79986 13.4007 9.80736C13.4041 9.94174 13.4041 9.94174 13.291 9.90986Z" fill="#0C0900"/>
<path fill-rule="evenodd" clip-rule="evenodd" d="M12.6876 8.40383V8.2832C12.7323 8.33602 12.7651 8.37508 12.798 8.41539C12.8214 8.44664 12.842 8.44945 12.8595 8.40883C12.8751 8.40716 12.8801 8.41466 12.8745 8.43133C12.8683 8.46508 12.8514 8.49289 12.8342 8.52289C12.8026 8.50195 12.7926 8.46164 12.7714 8.43164C12.7433 8.39289 12.7236 8.40227 12.7042 8.44039C12.6748 8.4407 12.6845 8.41945 12.6876 8.40383Z" fill="#0E0A00"/>
<path fill-rule="evenodd" clip-rule="evenodd" d="M14.9095 11.55C14.8248 11.4688 14.7366 11.39 14.6285 11.3481C14.611 11.3416 14.6057 11.3291 14.6035 11.3125C14.7357 11.34 14.837 11.4262 14.927 11.5319C14.9301 11.5481 14.9263 11.5553 14.9095 11.55Z" fill="#181100"/>
<path fill-rule="evenodd" clip-rule="evenodd" d="M11.9225 9.86129L11.9097 9.89723C11.9075 9.89254 11.9031 9.88848 11.9022 9.88254C11.8615 9.75723 11.8615 9.75723 11.7453 9.79004C11.7342 9.78359 11.7334 9.77661 11.7428 9.76911C11.7453 9.76723 11.7472 9.76442 11.7493 9.76379C11.7972 9.74036 11.8547 9.68661 11.8875 9.70192C11.9268 9.71973 11.9078 9.80598 11.9225 9.86129Z" fill="#150F00"/>
<path fill-rule="evenodd" clip-rule="evenodd" d="M12.875 9.21703C12.8789 9.21381 12.8823 9.21014 12.8853 9.20609C12.918 9.22526 12.9509 9.24495 12.9841 9.26516C13.0159 9.23297 13.0016 9.17203 13.0419 9.14453C13.0459 9.15047 13.0503 9.15297 13.0503 9.15734C13.0472 9.21391 13.0472 9.29484 13.0059 9.30703C12.9597 9.32266 12.9144 9.25953 12.875 9.21703Z" fill="#221900"/>
<path fill-rule="evenodd" clip-rule="evenodd" d="M13.0837 7.68484C12.9897 7.70797 12.895 7.73453 12.7994 7.71578L12.7969 7.68359L13.0512 7.66797C13.0603 7.67766 13.0772 7.66797 13.0837 7.68484Z" fill="#241A00"/>
<path fill-rule="evenodd" clip-rule="evenodd" d="M13.1819 8.21C13.1456 8.22281 13.1641 8.25625 13.1622 8.28062C13.1603 8.31125 13.1709 8.34187 13.1494 8.38531C13.1353 8.28562 13.1234 8.19781 13.1094 8.10156C13.1541 8.12969 13.18 8.16375 13.1975 8.20781C13.1935 8.21906 13.1883 8.21979 13.1819 8.21Z" fill="#1C1400"/>
<path fill-rule="evenodd" clip-rule="evenodd" d="M12.3887 7.96383C12.4237 7.92508 12.478 7.98602 12.5105 7.9332C12.513 7.92595 12.518 7.91983 12.5246 7.91602C12.5443 7.93508 12.5652 7.95383 12.5952 7.98133C12.5146 8.00789 12.4512 8.00102 12.3896 7.9607L12.3887 7.96383Z" fill="#2F2200"/>
<path fill-rule="evenodd" clip-rule="evenodd" d="M12.5241 7.91672C12.5198 7.92297 12.5151 7.9287 12.5101 7.93391L12.4316 7.79828L12.4416 7.78516L12.5832 7.86984C12.5838 7.88516 12.5816 7.89547 12.5645 7.88641C12.5495 7.89234 12.5141 7.86766 12.5241 7.91672Z" fill="#140E00"/>
<path fill-rule="evenodd" clip-rule="evenodd" d="M12.9538 8.8243L12.9531 8.82555C13.0447 8.87023 13.0378 8.76023 13.0772 8.72461C13.0826 8.7369 13.0884 8.74898 13.0947 8.76086C13.0675 8.77367 13.0719 8.80742 13.0575 8.82961C13.0441 8.85305 13.0462 8.90086 13.0122 8.89461C12.9866 8.88992 12.9531 8.8693 12.9538 8.8243Z" fill="#201700"/>
<path fill-rule="evenodd" clip-rule="evenodd" d="M12.8848 9.9782C12.8098 10.0429 12.8098 10.0429 12.792 9.94414L12.7776 9.87945C12.7707 9.86164 12.7638 9.8457 12.792 9.8457C12.8213 9.88008 12.8013 9.95695 12.8688 9.96258C12.8848 9.9557 12.8879 9.96289 12.8848 9.9782Z" fill="#1C1400"/>
<path fill-rule="evenodd" clip-rule="evenodd" d="M11.9286 8.01786C12.0302 7.99005 12.0396 7.95973 11.9733 7.85442C12.0258 7.84754 12.0408 7.88067 12.0446 7.92661C12.0486 7.97973 12.0342 8.02223 11.9842 8.03786C11.96 8.04446 11.9343 8.04359 11.9105 8.03536C11.9089 8.01911 11.9124 8.00911 11.9286 8.01786Z" fill="#140F00"/>
<path fill-rule="evenodd" clip-rule="evenodd" d="M13.0362 8.39159C13.0744 8.40471 13.1022 8.47846 13.1537 8.41284C13.1603 8.4644 13.1434 8.50346 13.12 8.55128C13.0986 8.4962 13.0646 8.44695 13.0206 8.40753C13.0178 8.39253 13.0197 8.38378 13.0362 8.39159Z" fill="#0E0A00"/>
<path fill-rule="evenodd" clip-rule="evenodd" d="M12.4512 9.74023C12.4887 9.76492 12.4893 9.8468 12.5562 9.82648C12.5624 9.82117 12.5668 9.82117 12.573 9.82648C12.562 9.86137 12.544 9.8936 12.5199 9.92117C12.4912 9.8643 12.463 9.8118 12.4355 9.75836C12.4356 9.75399 12.4372 9.74979 12.4401 9.74648C12.4429 9.74317 12.4469 9.74096 12.4512 9.74023Z" fill="#150F00"/>
<path fill-rule="evenodd" clip-rule="evenodd" d="M13.2526 9.35625C13.2146 9.3471 13.179 9.33015 13.148 9.30648C13.1169 9.2828 13.0911 9.25293 13.0723 9.21875C13.1404 9.24875 13.1898 9.31437 13.2526 9.35625Z" fill="#251B00"/>
<path fill-rule="evenodd" clip-rule="evenodd" d="M14.9082 11.5513L14.9257 11.5332L15.0776 11.7016L15.0604 11.7191C15.0038 11.6688 14.9528 11.6125 14.9082 11.5513Z" fill="#261B00"/>
<path fill-rule="evenodd" clip-rule="evenodd" d="M11.8012 11.6031L11.7871 11.6547C11.7667 11.5521 11.7663 11.4465 11.7859 11.3438C11.809 11.3691 11.7859 11.4047 11.8024 11.4313C11.8014 11.4879 11.801 11.5452 11.8012 11.6031Z" fill="#5B4200"/>
<path fill-rule="evenodd" clip-rule="evenodd" d="M11.9345 9.20402C11.9523 9.2562 11.967 9.30902 11.9882 9.35995C11.9967 9.37933 11.9961 9.38964 11.982 9.40027C11.9589 9.41558 11.9486 9.39714 11.9451 9.37745C11.9357 9.3262 11.9289 9.27339 11.9207 9.2212C11.9132 9.20339 11.922 9.20152 11.9345 9.20402Z" fill="#1A1200"/>
<path fill-rule="evenodd" clip-rule="evenodd" d="M12.6281 9.58793C12.6356 9.57011 12.6419 9.55136 12.6519 9.53605C12.6597 9.52324 12.6712 9.50855 12.6872 9.51543C12.7003 9.52105 12.7016 9.53543 12.7038 9.55011C12.709 9.58491 12.7154 9.6199 12.7231 9.65511C12.7306 9.6748 12.7212 9.67699 12.7069 9.67511C12.6962 9.64761 12.6891 9.61793 12.6744 9.59386C12.6562 9.56386 12.6513 9.59574 12.6425 9.60699C12.6288 9.60886 12.62 9.60543 12.6281 9.58793Z" fill="#181100"/>
<path fill-rule="evenodd" clip-rule="evenodd" d="M12.1229 9.26953C12.0761 9.22016 12.0848 9.30141 12.0604 9.30328C12.0454 9.30672 12.037 9.30328 12.0429 9.28391L12.0986 9.15234C12.1128 9.16796 12.1235 9.18653 12.1297 9.20673C12.136 9.22693 12.1377 9.24827 12.1348 9.26922C12.1313 9.27797 12.1273 9.27807 12.1229 9.26953Z" fill="#1B1400"/>
<path fill-rule="evenodd" clip-rule="evenodd" d="M11.7419 9.76902L11.7444 9.78995C11.7078 9.80339 11.6716 9.82308 11.625 9.80777C11.6587 9.75902 11.6937 9.71308 11.7162 9.65902C11.7306 9.65589 11.7387 9.66151 11.7325 9.68058L11.7122 9.74058C11.6906 9.79558 11.7256 9.76964 11.7419 9.76902Z" fill="#0D0900"/>
<path fill-rule="evenodd" clip-rule="evenodd" d="M11.4453 8.79445C11.4759 8.77195 11.5097 8.78383 11.5428 8.77539C11.5694 8.77758 11.5681 8.79258 11.5581 8.8157C11.5472 8.84102 11.5219 8.86008 11.5225 8.89633C11.5544 8.90049 11.5858 8.90549 11.6169 8.91133C11.5712 8.91914 11.5206 8.9582 11.4909 8.88133C11.5319 8.80258 11.5319 8.80258 11.4453 8.79445Z" fill="#2D2000"/>
<path fill-rule="evenodd" clip-rule="evenodd" d="M12.4511 9.74102C12.4459 9.74747 12.4407 9.75352 12.4355 9.75914C12.4151 9.74445 12.3948 9.7007 12.3739 9.75914C12.3592 9.75977 12.3505 9.75664 12.3586 9.73758C12.3639 9.69852 12.3739 9.66258 12.4086 9.63477C12.4245 9.67289 12.4373 9.70664 12.4511 9.74102Z" fill="#140E00"/>
<path fill-rule="evenodd" clip-rule="evenodd" d="M13.1838 7.63195C13.2442 7.59924 13.3044 7.56633 13.3644 7.5332C13.3247 7.60258 13.2666 7.63195 13.2025 7.64977C13.1856 7.65914 13.1828 7.64914 13.1838 7.63195Z" fill="#221800"/>
<path fill-rule="evenodd" clip-rule="evenodd" d="M11.8037 11.4306C11.783 11.4047 11.7955 11.3719 11.7871 11.3431C11.7884 11.2822 11.7974 11.2241 11.8312 11.1719C11.8396 11.2606 11.8037 11.3431 11.8037 11.4306Z" fill="#1F1700"/>
<path fill-rule="evenodd" clip-rule="evenodd" d="M12.1216 9.26953H12.1335C12.1458 9.29126 12.1514 9.31618 12.1494 9.34109C12.1475 9.38672 12.171 9.37953 12.1963 9.37078L12.1938 9.36766C12.1897 9.40703 12.1625 9.43328 12.1363 9.42703C12.1003 9.42047 12.1219 9.37828 12.1194 9.35203C12.1181 9.32453 12.1203 9.29703 12.1216 9.26953Z" fill="#1C1400"/>
<path fill-rule="evenodd" clip-rule="evenodd" d="M11.4905 8.88086C11.5255 8.92898 11.5727 8.91367 11.6165 8.91086C11.6568 8.91086 11.6971 8.90617 11.7343 8.92805C11.7277 8.94586 11.7108 8.93617 11.7015 8.94461C11.638 8.93648 11.5746 8.92805 11.5099 8.93273C11.4627 8.93617 11.4652 8.91305 11.4905 8.88086Z" fill="#281C00"/>
<path fill-rule="evenodd" clip-rule="evenodd" d="M12.418 8.98047L12.4208 9.00297C12.3902 9.10422 12.3783 9.10422 12.2977 9.00297C12.2902 8.98609 12.299 8.98359 12.3111 8.98359C12.348 9.03276 12.3836 9.03172 12.418 8.98047Z" fill="#2A1E00"/>
<path fill-rule="evenodd" clip-rule="evenodd" d="M12.8288 9.42098C12.8344 9.42816 12.8388 9.43598 12.8447 9.44223C12.8457 9.4716 12.8422 9.50442 12.8169 9.51379C12.7844 9.52535 12.7972 9.47973 12.7819 9.46473C12.7694 9.45254 12.7616 9.43504 12.7519 9.4191C12.7471 9.40431 12.7513 9.39931 12.7644 9.4041C12.7869 9.40223 12.8007 9.45285 12.8288 9.42098Z" fill="#140E00"/>
<path fill-rule="evenodd" clip-rule="evenodd" d="M12.0791 7.79808C12.1325 7.81964 12.1881 7.83651 12.2247 7.89151L12.2253 7.88964C12.1613 7.89151 12.1153 7.83839 12.0606 7.81558C12.06 7.79995 12.0622 7.78933 12.0791 7.79808Z" fill="#1F1600"/>
<path fill-rule="evenodd" clip-rule="evenodd" d="M12.2998 8.61177C12.2976 8.65271 12.2829 8.67177 12.2491 8.64427C12.2235 8.62365 12.2013 8.5999 12.1738 8.57427C12.2223 8.54459 12.2395 8.63865 12.282 8.59303C12.2976 8.58865 12.3048 8.59303 12.2998 8.61177Z" fill="#231900"/>
<path fill-rule="evenodd" clip-rule="evenodd" d="M12.8744 8.43227L12.8594 8.40977C12.8667 8.35456 12.8746 8.29935 12.8831 8.24414C12.9159 8.31164 12.9044 8.37352 12.8744 8.43227Z" fill="#2A1E00"/>
<path fill-rule="evenodd" clip-rule="evenodd" d="M12.9474 7.88789C12.9434 7.8332 12.8871 7.82102 12.873 7.76758C12.9252 7.77633 12.9577 7.8157 12.9824 7.85695C13.0005 7.88664 12.978 7.90383 12.9465 7.89758L12.9474 7.88789Z" fill="#140F00"/>
<path fill-rule="evenodd" clip-rule="evenodd" d="M13.4378 8.19742C13.3921 8.1651 13.3568 8.12029 13.3359 8.06836C13.3916 8.08523 13.4122 8.13461 13.4416 8.16961C13.4478 8.18023 13.4466 8.18951 13.4378 8.19742Z" fill="#251B00"/>
<path fill-rule="evenodd" clip-rule="evenodd" d="M12.5716 9.82758H12.5547C12.5701 9.77154 12.5853 9.71508 12.6003 9.6582C12.6297 9.65945 12.6213 9.67914 12.6166 9.69727C12.6126 9.74376 12.5971 9.78855 12.5716 9.82758Z" fill="#1D1400"/>
<path fill-rule="evenodd" clip-rule="evenodd" d="M12.9471 7.88672C12.9486 7.89005 12.9482 7.89328 12.9459 7.89641C12.9293 7.91922 12.9078 7.91797 12.8846 7.91391C12.8278 7.90109 12.7703 7.91203 12.7134 7.90734C12.7042 7.90359 12.7012 7.89672 12.7043 7.88672H12.9471Z" fill="#5E4400"/>
<path fill-rule="evenodd" clip-rule="evenodd" d="M12.2727 8.96547C12.2306 8.92878 12.202 8.87905 12.1914 8.82422C12.2386 8.86797 12.2623 8.90922 12.2858 8.95234C12.287 8.96453 12.2858 8.97266 12.2727 8.96547Z" fill="#332500"/>
<path fill-rule="evenodd" clip-rule="evenodd" d="M11.993 7.78778C11.9439 7.78184 11.9014 7.80153 11.8633 7.83372C11.8908 7.74528 11.9502 7.75372 12.0127 7.77059C12.0142 7.78778 12.0086 7.79403 11.993 7.78778Z" fill="#100B00"/>
<path fill-rule="evenodd" clip-rule="evenodd" d="M12.1978 9.37031C12.2025 9.31406 12.2406 9.29 12.2784 9.26562C12.2581 9.30656 12.2516 9.36094 12.1953 9.36719L12.1978 9.37031Z" fill="#271C00"/>
<path fill-rule="evenodd" clip-rule="evenodd" d="M12.4324 9.33818C12.4278 9.34484 12.423 9.35141 12.418 9.35786C12.3868 9.31203 12.3562 9.26651 12.3262 9.2213C12.3321 9.21099 12.3393 9.21068 12.3465 9.21755C12.3855 9.2488 12.4134 9.29005 12.4324 9.33818Z" fill="#231A00"/>
<path fill-rule="evenodd" clip-rule="evenodd" d="M12.7491 8.84703C12.7434 8.85286 12.738 8.85922 12.7328 8.86609L12.6484 8.76172C12.6904 8.77837 12.7258 8.80834 12.7491 8.84703Z" fill="#322400"/>
<path fill-rule="evenodd" clip-rule="evenodd" d="M11.173 11.4534C11.1688 11.4571 11.1646 11.4605 11.1605 11.4637C11.1292 11.4368 11.1002 11.4059 11.0977 11.3574C11.1414 11.3721 11.1561 11.4127 11.173 11.4534Z" fill="#312300"/>
<path fill-rule="evenodd" clip-rule="evenodd" d="M12.7064 7.89935C12.7652 7.90904 12.8264 7.88654 12.8836 7.91435C12.8147 7.92467 12.7446 7.92446 12.6758 7.91373C12.677 7.88591 12.6911 7.8906 12.7064 7.89935Z" fill="#080600"/>
<path fill-rule="evenodd" clip-rule="evenodd" d="M12.5977 8.47891L12.617 8.45828C12.632 8.46974 12.6466 8.4812 12.6608 8.49266C12.6685 8.4862 12.6764 8.48682 12.6845 8.49453C12.6377 8.60953 12.6236 8.50266 12.5977 8.47891ZM12.707 7.90109L12.6764 7.91547C12.6382 7.91377 12.6008 7.9043 12.5664 7.88766C12.573 7.88234 12.5789 7.87578 12.5852 7.87109C12.6249 7.87672 12.6645 7.88266 12.7039 7.88891L12.707 7.90109Z" fill="#150F00"/>
<path fill-rule="evenodd" clip-rule="evenodd" d="M14.373 11.2945C14.3734 11.2899 14.3728 11.2852 14.3711 11.2804C14.4217 11.2804 14.4727 11.2729 14.5214 11.2964C14.532 11.3026 14.532 11.3067 14.5214 11.3129L14.373 11.2945Z" fill="#0E0A00"/>
<path fill-rule="evenodd" clip-rule="evenodd" d="M12.7941 9.84562L12.7797 9.87937C12.7628 9.835 12.7385 9.79312 12.7403 9.74219C12.7433 9.74219 12.7458 9.7425 12.7478 9.74313C12.7785 9.76906 12.781 9.80969 12.7941 9.84562Z" fill="#3B2A00"/>
<path fill-rule="evenodd" clip-rule="evenodd" d="M11.733 9.68023C11.7278 9.67294 11.7224 9.66576 11.7168 9.65867C11.7272 9.62263 11.7383 9.58732 11.7499 9.55273L11.7671 9.5593C11.7605 9.60055 11.7587 9.64242 11.733 9.68023Z" fill="#312300"/>
<path fill-rule="evenodd" clip-rule="evenodd" d="M13.5752 9.67273L13.5371 9.65773C13.5777 9.63867 13.6215 9.64117 13.6646 9.63867C13.668 9.64242 13.6696 9.64555 13.6687 9.65055C13.6672 9.6543 13.6659 9.65607 13.6646 9.65586C13.6352 9.66492 13.6065 9.67648 13.5752 9.67273Z" fill="#0D0A00"/>
<path fill-rule="evenodd" clip-rule="evenodd" d="M12.2252 7.89062L12.2246 7.8925C12.2674 7.88656 12.2987 7.91625 12.3349 7.93312C12.333 7.94594 12.3212 7.94562 12.3149 7.95156C12.283 7.93531 12.2424 7.93531 12.2252 7.89062Z" fill="#352600"/>
<path fill-rule="evenodd" clip-rule="evenodd" d="M11.7741 8.93461C11.7987 8.93055 11.8253 8.95367 11.8481 8.92773C11.8584 8.92961 11.8603 8.93992 11.8634 8.94898C11.8234 8.98273 11.7828 8.9668 11.7422 8.95086C11.7488 8.93461 11.765 8.94336 11.7741 8.93461Z" fill="#322400"/>
<path fill-rule="evenodd" clip-rule="evenodd" d="M12.7623 9.40648L12.7498 9.42148C12.7183 9.40478 12.6925 9.37897 12.6758 9.34742L12.6777 9.3418C12.7173 9.34461 12.7392 9.37586 12.7623 9.40648Z" fill="#2D2000"/>
<path fill-rule="evenodd" clip-rule="evenodd" d="M12.8851 9.97789L12.8691 9.96195C12.8937 9.93841 12.9184 9.91529 12.9432 9.89258L12.9616 9.91195C12.9416 9.93961 12.9154 9.96219 12.8851 9.97789Z" fill="#291D00"/>
<path fill-rule="evenodd" clip-rule="evenodd" d="M13.1852 7.63281C13.1915 7.63906 13.1978 7.645 13.2043 7.65063C13.1796 7.67063 13.1512 7.67344 13.1237 7.67812C13.1152 7.67094 13.0984 7.67937 13.0918 7.66281C13.1235 7.65302 13.1546 7.64302 13.1852 7.63281Z" fill="#352600"/>
<path fill-rule="evenodd" clip-rule="evenodd" d="M13.6641 9.65575V9.63856C13.6641 9.61856 13.6656 9.59731 13.6887 9.59981C13.6972 9.59981 13.7137 9.61544 13.7125 9.622C13.7081 9.65325 13.6844 9.652 13.6641 9.65575Z" fill="#312300"/>
<path fill-rule="evenodd" clip-rule="evenodd" d="M11.8619 8.95008L11.8466 8.92883L11.8359 8.86477L11.8488 8.83008C11.8663 8.8682 11.8869 8.9057 11.8619 8.95008Z" fill="#302200"/>
<path fill-rule="evenodd" clip-rule="evenodd" d="M12.2867 9.8957C12.2842 9.85664 12.3095 9.83383 12.3273 9.80664C12.338 9.80852 12.3398 9.81914 12.3439 9.82727C12.3292 9.85539 12.3208 9.88883 12.2852 9.8932L12.2867 9.8957Z" fill="#332500"/>
<path fill-rule="evenodd" clip-rule="evenodd" d="M11.8332 7.95461C11.8139 7.92492 11.8117 7.89742 11.837 7.86523C11.857 7.8893 11.8476 7.91305 11.8482 7.93586C11.8457 7.9443 11.8432 7.95273 11.8332 7.95461Z" fill="#412F00"/>
<path fill-rule="evenodd" clip-rule="evenodd" d="M12.6159 9.69625C12.6099 9.68375 12.6055 9.67094 12.5996 9.65719C12.6009 9.63122 12.6103 9.60631 12.6265 9.58594L12.6412 9.60531L12.6159 9.69625Z" fill="#342500"/>
<path fill-rule="evenodd" clip-rule="evenodd" d="M12.3447 9.82766L12.3281 9.80703L12.3587 9.73828C12.364 9.74516 12.3691 9.75234 12.3741 9.75984C12.3698 9.78447 12.3598 9.80773 12.3447 9.82766Z" fill="#201700"/>
<path fill-rule="evenodd" clip-rule="evenodd" d="M12.7473 9.74336L12.7398 9.74242C12.7152 9.72805 12.7145 9.69836 12.707 9.6743C12.7133 9.66805 12.7177 9.66117 12.7233 9.6543C12.7416 9.68021 12.7501 9.71176 12.7473 9.74336Z" fill="#3B2B00"/>
<path fill-rule="evenodd" clip-rule="evenodd" d="M12.3164 7.95008C12.323 7.94414 12.3308 7.9382 12.3364 7.93164C12.3586 7.9332 12.3811 7.93633 12.3917 7.96414L12.393 7.96102C12.3655 7.97258 12.3414 7.9632 12.3164 7.95008Z" fill="#342500"/>
<path fill-rule="evenodd" clip-rule="evenodd" d="M12.2994 8.61133L12.2812 8.59258L12.3338 8.52539C12.339 8.52539 12.3417 8.5281 12.3419 8.53352C12.3381 8.56758 12.3144 8.58633 12.2994 8.61133Z" fill="#352600"/>
<path fill-rule="evenodd" clip-rule="evenodd" d="M14.5215 11.312V11.2955C14.5507 11.2929 14.5801 11.2993 14.6055 11.3139C14.5768 11.3395 14.549 11.322 14.5215 11.312Z" fill="#060400"/>
<path fill-rule="evenodd" clip-rule="evenodd" d="M13.037 8.39086C13.0313 8.39607 13.026 8.40148 13.021 8.40711C12.9973 8.39598 12.9772 8.37844 12.9629 8.35648C12.9654 8.35039 12.9698 8.34525 12.9754 8.3418C12.9998 8.35263 13.021 8.36952 13.037 8.39086Z" fill="#352600"/>
<path fill-rule="evenodd" clip-rule="evenodd" d="M13.2446 8.34067C13.24 8.35421 13.2349 8.36765 13.2293 8.38098C13.2146 8.35536 13.2165 8.32536 13.2128 8.29567C13.2074 8.27879 13.214 8.27286 13.2293 8.27348C13.2339 8.29536 13.239 8.31775 13.2446 8.34067Z" fill="#1E1600"/>
<path fill-rule="evenodd" clip-rule="evenodd" d="M12.042 9.28516L12.0595 9.30453L12.0123 9.37391C12.0082 9.32359 12.027 9.30422 12.042 9.28516Z" fill="#2E2100"/>
<path fill-rule="evenodd" clip-rule="evenodd" d="M12.0961 8.39844C12.1067 8.43 12.1189 8.44719 12.1086 8.48312C12.0848 8.4575 12.0873 8.43562 12.0961 8.39844Z" fill="#553D00"/>
<path fill-rule="evenodd" clip-rule="evenodd" d="M11.832 7.95461L11.847 7.93555L11.8783 7.98898C11.8795 8.00273 11.8795 8.01305 11.8636 8.00336C11.8472 7.99177 11.8359 7.97431 11.832 7.95461Z" fill="#030200"/>
<path fill-rule="evenodd" clip-rule="evenodd" d="M12.3464 9.21751C12.3395 9.21856 12.3327 9.2198 12.3261 9.22126C12.3136 9.22595 12.3048 9.24876 12.2895 9.23564C12.2798 9.22751 12.2886 9.21533 12.2945 9.20814C12.3157 9.18033 12.3317 9.19658 12.3464 9.21751Z" fill="#4D3700"/>
<path fill-rule="evenodd" clip-rule="evenodd" d="M13.2282 8.27383C13.2223 8.28164 13.2176 8.28883 13.2116 8.29602C13.2021 8.26685 13.1921 8.23737 13.1816 8.20758L13.1976 8.20508C13.2176 8.22258 13.2226 8.2482 13.2282 8.27383Z" fill="#332400"/>
<path fill-rule="evenodd" clip-rule="evenodd" d="M11.9941 7.78672L12.0138 7.76953C12.0373 7.77297 12.0604 7.77891 12.0791 7.79734C12.0729 7.80297 12.0666 7.80984 12.0604 7.81484L11.9941 7.78672Z" fill="#2F2200"/>
<path fill-rule="evenodd" clip-rule="evenodd" d="M12.682 8.49367C12.6736 8.49325 12.6657 8.49263 12.6582 8.4918C12.6674 8.46221 12.6767 8.43305 12.6863 8.4043C12.6926 8.41586 12.697 8.42836 12.7029 8.44117C12.6951 8.45773 12.6885 8.47617 12.682 8.49367Z" fill="#392900"/>
<path fill-rule="evenodd" clip-rule="evenodd" d="M13.4375 8.19773C13.4394 8.18898 13.44 8.17867 13.4413 8.16992C13.4591 8.18742 13.4837 8.19961 13.4837 8.23398C13.4594 8.23242 13.4506 8.21242 13.4375 8.19773Z" fill="#2B1F00"/>
<path fill-rule="evenodd" clip-rule="evenodd" d="M11.8633 8.00461C11.8676 7.99929 11.8726 7.99447 11.878 7.99023C11.8952 7.99898 11.9105 8.00867 11.928 8.01805C11.9214 8.0243 11.9161 8.02992 11.9092 8.03586C11.8895 8.03305 11.8727 8.02555 11.8633 8.00461Z" fill="#251A00"/>
<path fill-rule="evenodd" clip-rule="evenodd" d="M12.9754 8.3428L12.9629 8.35748C12.9479 8.35217 12.9245 8.34405 12.9373 8.32405C12.9479 8.30842 12.9648 8.32842 12.9754 8.3428Z" fill="#4F3800"/>
<path fill-rule="evenodd" clip-rule="evenodd" d="M11.9348 9.20461C11.9298 9.21055 11.9266 9.21555 11.921 9.2218C11.9123 9.20648 11.906 9.18992 11.9135 9.16992C11.9288 9.17492 11.9319 9.18992 11.9348 9.20461Z" fill="#533C00"/>
<path fill-rule="evenodd" clip-rule="evenodd" d="M13.0914 7.66211C13.102 7.66794 13.1127 7.67305 13.1233 7.67742C13.1098 7.68055 13.0961 7.6818 13.0833 7.68398L13.0508 7.66711L13.0914 7.66211Z" fill="#050400"/>
<path fill-rule="evenodd" clip-rule="evenodd" d="M12.2715 8.9643C12.275 8.96013 12.2794 8.95576 12.2846 8.95117C12.2993 8.95492 12.308 8.96617 12.3127 8.98242L12.2993 9.0018C12.2859 8.99305 12.2743 8.98305 12.2715 8.9643Z" fill="#332500"/>
<path fill-rule="evenodd" clip-rule="evenodd" d="M11.7743 8.9343L11.7424 8.95055L11.7012 8.9443C11.7122 8.9393 11.7232 8.93378 11.734 8.92773L11.7743 8.9343Z" fill="#060400"/>
<path fill-rule="evenodd" clip-rule="evenodd" d="M10.1536 10.1624C10.0283 10.2145 9.90297 10.2236 9.77734 10.1655C9.78109 10.1586 9.78547 10.1533 9.79328 10.1508C9.90641 10.1761 10.0205 10.1667 10.133 10.1455C10.1483 10.138 10.1542 10.1455 10.1536 10.1624Z" fill="#171000"/>
<path fill-rule="evenodd" clip-rule="evenodd" d="M9.7944 10.1494C9.78878 10.155 9.78409 10.1591 9.77847 10.1641C9.73972 10.1369 9.68253 10.1125 9.7644 10.0625L9.78159 10.0828C9.78284 10.1059 9.77097 10.1328 9.7944 10.1494Z" fill="#130E00"/>
<path fill-rule="evenodd" clip-rule="evenodd" d="M10.1522 9.94727C10.1522 9.99268 10.1524 10.0378 10.1528 10.0826C10.1156 10.0382 10.0963 9.99352 10.1522 9.94727Z" fill="#1A1200"/>
<path fill-rule="evenodd" clip-rule="evenodd" d="M10.1534 10.1623L10.1328 10.1454C10.1494 10.1282 10.1859 10.1179 10.1525 10.0801C10.1716 10.0763 10.1944 10.0679 10.1981 10.0994C10.2041 10.1373 10.1791 10.1516 10.1534 10.1623Z" fill="#1C1400"/>
<path fill-rule="evenodd" clip-rule="evenodd" d="M10.3047 10.5385L10.2916 10.5204C10.2603 10.501 10.23 10.5485 10.1987 10.521L10.1797 10.501C10.2003 10.4854 10.2191 10.4657 10.2409 10.4573C10.2681 10.447 10.2944 10.3979 10.3241 10.4364C10.3494 10.4698 10.33 10.5082 10.3047 10.5385Z" fill="#1F1600"/>
<path fill-rule="evenodd" clip-rule="evenodd" d="M10.1992 10.5202C10.2201 10.5052 10.2398 10.4877 10.2626 10.4773C10.3139 10.452 10.302 10.4877 10.292 10.5195C10.2626 10.553 10.2345 10.588 10.2048 10.6208C10.1929 10.6336 10.1757 10.6508 10.1604 10.6348C10.1457 10.6214 10.1539 10.5989 10.1629 10.5814C10.1735 10.5605 10.187 10.5395 10.1992 10.5202Z" fill="#F6B100"/>
<path fill-rule="evenodd" clip-rule="evenodd" d="M3.75 5.625H6.25V14.6875H3.75V5.625Z" fill="#FE5B00"/>
<path fill-rule="evenodd" clip-rule="evenodd" d="M1.25 5.625H3.75V14.6875H1.25V5.625Z" fill="#005641"/>
</svg>
