<svg width="24" height="24" viewBox="0 0 24 24" fill="none" xmlns="http://www.w3.org/2000/svg">
<path d="M24 18.0007C24 18.7079 23.719 19.3862 23.219 19.8863C22.7189 20.3864 22.0406 20.6673 21.3333 20.6673H2.66667C1.95942 20.6673 1.28115 20.3864 0.781049 19.8863C0.280952 19.3862 0 18.7079 0 18.0007V6.00065C0 5.29341 0.280952 4.61513 0.781049 4.11503C1.28115 3.61494 1.95942 3.33398 2.66667 3.33398H21.3333C22.0406 3.33398 22.7189 3.61494 23.219 4.11503C23.719 4.61513 24 5.29341 24 6.00065V18.0007Z" fill="#C60A1D"/>
<path d="M0 8H24V16H0V8Z" fill="#FFC400"/>
<path d="M6 11.334V13.334C6 13.8644 6.21071 14.3731 6.58579 14.7482C6.96086 15.1233 7.46957 15.334 8 15.334C8.53043 15.334 9.03914 15.1233 9.41421 14.7482C9.78929 14.3731 10 13.8644 10 13.334V11.334H6Z" fill="#EA596E"/>
<path d="M8 10.666H10V12.666H8V10.666Z" fill="#F4A2B2"/>
<path d="M6 10.666H8V12.666H6V10.666Z" fill="#DD2E44"/>
<path d="M8 10.666C9.10457 10.666 10 10.2183 10 9.66602C10 9.11373 9.10457 8.66602 8 8.66602C6.89543 8.66602 6 9.11373 6 9.66602C6 10.2183 6.89543 10.666 8 10.666Z" fill="#EA596E"/>
<path d="M8 9.66602C9.10457 9.66602 10 9.44216 10 9.16602C10 8.88987 9.10457 8.66602 8 8.66602C6.89543 8.66602 6 8.88987 6 9.16602C6 9.44216 6.89543 9.66602 8 9.66602Z" fill="#FFAC33"/>
<path d="M4.66602 10.666H5.33268V15.3327H4.66602V10.666ZM10.666 10.666H11.3327V15.3327H10.666V10.666Z" fill="#99AAB5"/>
<path d="M4 14.6667H6V15.3333H4V14.6667ZM10 14.6667H12V15.3333H10V14.6667ZM4.66667 10H5.33333V10.6667H4.66667V10ZM10.6667 10H11.3333V10.6667H10.6667V10Z" fill="#66757F"/>
</svg>
