<svg width="20" height="21" viewBox="0 0 20 21" fill="none" xmlns="http://www.w3.org/2000/svg">
<path d="M0 8H20V13H0V8Z" fill="#1B75BB"/>
<path d="M16.875 3.625H3.125C1.05406 3.625 0 5.16406 0 7.0625V8.3125H20V7.0625C20 5.16406 18.9459 3.625 16.875 3.625Z" fill="#E6E7E8"/>
<path d="M0 13.9375C0 15.8359 1.05406 17.375 3.125 17.375H16.875C18.9459 17.375 20 15.8359 20 13.9375V13H0V13.9375Z" fill="#EC1C24"/>
<path fill-rule="evenodd" clip-rule="evenodd" d="M8.42963 8.84383C8.41463 8.3082 8.39713 7.77289 8.35244 7.23945C8.34807 7.18258 8.32713 7.17383 8.27682 7.17383C7.78838 7.1757 7.29994 7.17508 6.81151 7.17508L3.27651 7.17445C3.22713 7.17445 3.19432 7.17508 3.1912 7.24102C3.17807 7.52039 3.15838 7.79914 3.14307 8.07789C3.11975 8.54765 3.10714 9.01787 3.10526 9.4882C3.10057 9.95039 3.07401 10.4126 3.15901 10.872C3.23901 11.3066 3.3887 11.7154 3.63088 12.0879C3.72838 12.2641 3.85432 12.4204 3.98713 12.5713C4.47495 13.1276 5.08057 13.5229 5.73776 13.8482C5.74891 13.8542 5.76141 13.8573 5.77409 13.8572C5.78677 13.8571 5.79921 13.8538 5.81026 13.8476C6.40276 13.5545 6.95463 13.2029 7.41776 12.7251C7.60526 12.5323 7.77901 12.3279 7.91338 12.0938C8.26776 11.5404 8.43619 10.9316 8.44369 10.2788C8.44744 9.80008 8.44369 9.32164 8.42963 8.84383Z" fill="#E6E7E8"/>
<path fill-rule="evenodd" clip-rule="evenodd" d="M3.85911 11.8415C3.64286 11.5093 3.50973 11.1449 3.43692 10.7559C3.36161 10.3468 3.38567 9.93398 3.38942 9.52211C3.39152 9.10316 3.40288 8.68431 3.42348 8.26586C3.43692 8.01617 3.45473 7.76773 3.46598 7.51836C3.46942 7.45992 3.4988 7.45961 3.54255 7.45961L6.69567 7.46023C7.13223 7.46023 7.56786 7.46086 8.0038 7.45898C8.04942 7.45898 8.06755 7.46711 8.07161 7.51742C8.1113 7.99398 8.12723 8.47148 8.14067 8.9493C8.15317 9.37555 8.15713 9.80201 8.15255 10.2287C8.14598 10.8115 7.99505 11.3549 7.67911 11.8487C7.63911 11.8321 7.62567 11.7927 7.6038 11.7605C7.53674 11.6596 7.45379 11.5701 7.35817 11.4955C7.16255 11.3477 6.85505 11.389 6.6813 11.5493C6.64175 11.5854 6.60537 11.6248 6.57255 11.6671C6.53442 11.7177 6.51786 11.7159 6.49005 11.6605C6.42593 11.526 6.34394 11.4007 6.2463 11.288C6.18648 11.2196 6.11599 11.1612 6.03755 11.1152C6.00911 11.0987 5.97817 11.0868 5.96786 11.0509C5.95505 10.914 5.9638 10.7759 5.96192 10.6387C5.96006 10.4872 5.96006 10.3357 5.96192 10.1843C5.96255 10.0984 5.97911 10.0787 6.06567 10.083C6.42161 10.0984 6.77848 10.0996 7.12567 10.199C7.19755 10.219 7.20005 10.214 7.19661 10.1399C7.18952 9.97458 7.18973 9.809 7.19723 9.64367C7.20036 9.57648 7.19598 9.56867 7.12817 9.58742C6.87121 9.65578 6.60657 9.69107 6.34067 9.69242C6.25692 9.69305 6.17411 9.70898 6.08973 9.70305C5.98348 9.69648 5.96192 9.67586 5.9613 9.57273C5.96067 9.41898 5.96005 9.26461 5.96192 9.11117C5.96255 9.01867 5.98473 9.00211 6.07567 9.00617C6.34598 9.0193 6.61473 9.04586 6.87598 9.12305C6.92286 9.13711 6.9413 9.11992 6.94067 9.07336C6.93942 9.03586 6.94567 8.99836 6.93755 8.9618C6.91536 8.84586 6.93661 8.72961 6.93942 8.61336C6.9438 8.49273 6.94192 8.49305 6.82817 8.5218C6.60786 8.57648 6.38567 8.61711 6.15817 8.61336C6.12723 8.61273 6.09817 8.61961 6.06786 8.62242C5.98536 8.63086 5.95942 8.61055 5.96255 8.52617C5.96723 8.41648 5.98161 8.30742 5.99598 8.19961C6.01473 8.06294 6.03796 7.92742 6.06567 7.79305C6.08223 7.71211 6.07161 7.6968 5.99317 7.70586C5.8424 7.72281 5.6902 7.72281 5.53942 7.70586C5.46536 7.69773 5.45755 7.70867 5.47161 7.78117C5.5188 8.02648 5.56192 8.2718 5.57536 8.52148C5.57973 8.59586 5.56067 8.62555 5.49692 8.62273C5.28098 8.6118 5.0638 8.60555 4.85192 8.5543C4.78848 8.53836 4.72348 8.52805 4.66161 8.50711C4.62036 8.49273 4.60286 8.50055 4.6038 8.54898C4.60734 8.72648 4.60734 8.90367 4.6038 9.08055C4.60255 9.12742 4.61848 9.13836 4.66161 9.12461C4.92411 9.03992 5.1963 9.02336 5.46848 9.00617C5.55442 9.00086 5.58255 9.0268 5.5838 9.1143C5.58567 9.27284 5.58567 9.43128 5.5838 9.58961C5.58255 9.67086 5.56348 9.69023 5.48067 9.70086C5.45296 9.70378 5.42505 9.70471 5.39692 9.70367C5.0663 9.69023 4.73598 9.67867 4.41348 9.58898C4.34755 9.57055 4.33755 9.57742 4.3413 9.64523C4.34713 9.81023 4.34713 9.97544 4.3413 10.1409C4.33755 10.2099 4.3513 10.2159 4.42098 10.1974C4.67577 10.1303 4.93814 10.0964 5.20161 10.0965C5.29848 10.0965 5.39255 10.0777 5.48786 10.083C5.55598 10.0868 5.58223 10.1062 5.58223 10.1696C5.58411 10.4627 5.59098 10.7562 5.5788 11.0493C5.57223 11.0777 5.55036 11.0905 5.52692 11.1021C5.37505 11.1796 5.2663 11.3027 5.1738 11.4424C5.12939 11.5078 5.09001 11.5764 5.05598 11.6477C5.02473 11.714 5.00348 11.7168 4.95973 11.6562C4.87036 11.5346 4.75723 11.4543 4.6088 11.4205C4.38536 11.3693 4.2063 11.4443 4.0563 11.6062C4.00014 11.6684 3.94953 11.7354 3.90505 11.8065C3.89348 11.8237 3.88317 11.8418 3.85848 11.843" fill="#ED1C25"/>
<path fill-rule="evenodd" clip-rule="evenodd" d="M3.85938 11.8409C3.92031 11.7537 3.97844 11.664 4.04937 11.584C4.3575 11.2421 4.80187 11.3809 4.97656 11.648C4.98625 11.6627 4.99687 11.6784 5.01156 11.698C5.14 11.433 5.28813 11.1909 5.56406 11.0602C5.66188 10.9793 5.89219 10.9802 5.98062 11.0612C6.25281 11.1921 6.40094 11.4321 6.52563 11.6924C6.55219 11.6809 6.55844 11.6571 6.57125 11.6393C6.75375 11.3768 7.17531 11.2652 7.45906 11.5527C7.54573 11.6417 7.61938 11.7398 7.68 11.8471C7.55938 12.0562 7.40562 12.2387 7.23812 12.4112C6.82469 12.8377 6.33281 13.1518 5.80344 13.413C5.78031 13.424 5.7625 13.4246 5.73969 13.413C5.15281 13.1237 4.61188 12.7699 4.17719 12.2737C4.05844 12.1393 3.94656 11.9999 3.86031 11.8418" fill="#1B75BB"/>
<path fill-rule="evenodd" clip-rule="evenodd" d="M5.9818 11.0611C5.84788 11.0091 5.69938 11.0087 5.56523 11.0602C5.56461 10.769 5.56148 10.4774 5.56461 10.1861C5.56523 10.1249 5.55336 10.1024 5.48555 10.1036C5.10086 10.1099 4.71773 10.1233 4.34555 10.238C4.33898 10.2405 4.33117 10.238 4.31836 10.238C4.3243 10.0471 4.33367 9.85645 4.32305 9.6652C4.31617 9.53864 4.31898 9.53676 4.44117 9.56895C4.78805 9.6627 5.14398 9.67708 5.50117 9.67395C5.54617 9.67333 5.56617 9.66333 5.56492 9.61208C5.5618 9.43708 5.5618 9.26218 5.56492 9.08739C5.56555 9.03676 5.54836 9.0252 5.50117 9.02583C5.2068 9.0327 4.91555 9.06239 4.63398 9.15239C4.58211 9.16895 4.5768 9.15833 4.57961 9.10801C4.59211 8.91083 4.59273 8.71239 4.57898 8.51489C4.57492 8.45926 4.58961 8.45801 4.63648 8.47239C4.91805 8.56114 5.20898 8.59426 5.50367 8.59833C5.54867 8.59833 5.56367 8.58833 5.56023 8.53895C5.54055 8.27145 5.50148 8.0077 5.4443 7.7452C5.4318 7.68958 5.44117 7.67208 5.50023 7.67926C5.68576 7.69886 5.87283 7.69886 6.05836 7.67926C6.10211 7.67489 6.11367 7.68176 6.10336 7.73051C6.04611 7.99223 6.00665 8.25753 5.98523 8.52458C5.98055 8.58208 5.99461 8.59958 6.05492 8.59833C6.34805 8.59176 6.63586 8.55926 6.91586 8.47051C6.95836 8.45676 6.96773 8.46583 6.96555 8.50801C6.95367 8.71093 6.95367 8.91364 6.96555 9.11614C6.96773 9.15926 6.95898 9.16645 6.91586 9.15333C6.63586 9.06395 6.34742 9.03426 6.05492 9.02551C5.99648 9.02364 5.98148 9.04083 5.98273 9.09864C5.9868 9.27051 5.98555 9.44364 5.98273 9.61551C5.98211 9.65645 5.99148 9.67239 6.03648 9.67301C6.41711 9.67864 6.79586 9.66145 7.16336 9.55145C7.21461 9.53676 7.23242 9.53551 7.22711 9.5977C7.21036 9.79307 7.21036 9.98952 7.22711 10.1849C7.23023 10.2302 7.22711 10.2458 7.17273 10.2302C6.79992 10.1196 6.4168 10.1065 6.03086 10.104C5.97961 10.104 5.98336 10.1321 5.98336 10.1661L5.9818 11.0611Z" fill="#E6E7E8"/>
</svg>
