<svg width="20" height="20" viewBox="0 0 20 20" fill="none" xmlns="http://www.w3.org/2000/svg">
<path d="M20 13.4375C20 15.3359 18.9459 16.875 16.875 16.875H3.125C1.05406 16.875 0 15.3359 0 13.4375V6.5625C0 4.66406 1.05406 3.125 3.125 3.125H16.875C18.9459 3.125 20 4.66406 20 6.5625V13.4375Z" fill="#EC1C24"/>
<path fill-rule="evenodd" clip-rule="evenodd" d="M12.4306 11.9742C11.7113 13.0964 10.2134 13.8042 8.64626 13.3464C7.1672 12.9133 6.15126 11.4801 6.23532 9.93452C6.3172 8.38202 7.48345 7.06171 8.99907 6.79389C10.605 6.50858 11.895 7.36952 12.4459 8.27077C11.7931 7.62889 11.0341 7.33983 10.1453 7.44139C9.44907 7.5214 8.8672 7.83608 8.41157 8.36733C7.5197 9.40546 7.55251 10.9623 8.48376 11.942C9.01782 12.5039 9.6747 12.798 10.45 12.8051C11.2247 12.8108 11.8819 12.5176 12.4325 11.9758" fill="white"/>
<path d="M13.8224 8.87305L14.4568 9.4618L15.303 9.2743L14.9384 10.0618L15.3787 10.8059L14.5193 10.7024L13.9446 11.3524L13.7787 10.5018L12.9824 10.1568L13.7393 9.7368L13.8224 8.87305Z" fill="white"/>
</svg>
