<svg width="21" height="21" viewBox="0 0 21 21" fill="none" xmlns="http://www.w3.org/2000/svg">
<path d="M0.5 7.375H20.5V13.625H0.5V7.375Z" fill="#2B3990"/>
<path d="M3.6257 17.375H17.3757C18.9651 17.375 19.9529 16.4672 20.3276 15.1875H0.673828C1.04852 16.4672 2.03633 17.375 3.6257 17.375ZM17.3757 3.625H3.6257C2.03633 3.625 1.04852 4.53281 0.673828 5.8125H20.3279C19.9529 4.53281 18.9651 3.625 17.3757 3.625Z" fill="#EC1C24"/>
<path d="M20.5001 13.625H0.500057V13.9375C0.500057 14.3791 0.559432 14.7997 0.673182 15.1875H20.3272C20.4407 14.7997 20.5001 14.3791 20.5001 13.9375V13.625ZM20.5001 7.0625C20.5001 6.62094 20.4407 6.20031 20.3269 5.8125H0.673182C0.55622 6.21879 0.497922 6.63971 0.500057 7.0625V7.375H20.5001V7.0625Z" fill="#E6E7E8"/>
</svg>
