<svg width="32" height="32" viewBox="0 0 32 32" fill="none" xmlns="http://www.w3.org/2000/svg">
<path d="M19.0001 27H27.0001C27.9886 27 28.8286 26.777 29.5261 26.3885L19.0001 20.1095V27ZM31.8301 23.105C31.9441 22.5965 32.0021 22.058 32.0021 21.4995V18.9995H24.9471L31.8281 23.105M0.175067 8.8795C0.0564245 9.41144 -0.00227462 9.95499 6.74017e-05 10.5V13H7.08207L0.175067 8.8795ZM13.0001 5H5.00007C4.01857 5 3.18407 5.22 2.48957 5.603L13.0001 11.873V5ZM2.52157 26.413C3.20957 26.785 4.03307 27 5.00007 27H13.0001V20.162L2.52157 26.413ZM6.74017e-05 19V21.5C6.74017e-05 22.0755 0.0610674 22.63 0.181567 23.1515L7.14107 19H6.74017e-05ZM29.5576 5.6275C28.8546 5.2285 28.0031 5 27.0001 5H19.0001V11.9255L29.5576 5.6275ZM32.0001 13V10.5C32.0001 9.953 31.9436 9.4255 31.8341 8.9265L25.0061 13H32.0001Z" fill="#2E3192"/>
<path d="M25.006 13L31.834 8.9265C31.521 7.4945 30.759 6.309 29.5575 5.6275L19 11.9255V5H18V14H32V13H25.006ZM0 18V19H7.141L0.1815 23.1515C0.512 24.579 1.297 25.751 2.5215 26.413L13 20.162V27H14V18H0ZM32 18H18V27H19V20.1095L29.526 26.389C30.7365 25.715 31.508 24.536 31.828 23.106L24.947 19H32V18ZM13 5V11.873L2.4895 5.603C1.2745 6.273 0.498 7.45 0.1745 8.8795L7.082 13H0V14H14V5H13Z" fill="#E6E7E8"/>
<path d="M18 14V5H14V14H0V18H14V27H18V18H32V14H18Z" fill="#BE1E2D"/>
<path d="M10.9686 12.9998L0.943609 7.01531C0.728109 7.33531 0.555109 7.68731 0.412109 8.06231L8.68561 12.9998H10.9686ZM31.5446 24.0448L23.1381 18.9998H20.8101L30.9666 25.1093C31.2016 24.7798 31.3956 24.4231 31.5446 24.0468M30.3591 6.19531L18.9841 12.9998L21.2936 13.0013L31.1091 7.12481C30.8901 6.72631 30.6591 6.46931 30.3591 6.19531ZM0.906109 24.9373C1.13105 25.2798 1.40171 25.59 1.71061 25.8593L13.0311 18.9998H10.7496L0.906109 24.9373Z" fill="#BE1E2D"/>
</svg>
