<svg width="32" height="32" viewBox="0 0 32 32" fill="none" xmlns="http://www.w3.org/2000/svg">
<path d="M13 8.88086V10.5709H31.9825C31.956 10.0259 31.899 9.33686 31.695 8.88086" fill="#EC1C24"/>
<path d="M30.8 7.18945H13V8.87945H31.695C31.492 8.24895 31.19 7.67395 30.8 7.18945Z" fill="#E6E7E8"/>
<path d="M27 5.5H13V7.19H30.8C29.9655 6.145 28.592 5.5 27 5.5Z" fill="#EC1C24"/>
<path d="M31.9825 10.5703H13V12.2603H32V11.1338C32 11.0333 31.9935 10.9353 31.9905 10.8368C31.9885 10.8098 31.9855 10.7403 31.9825 10.5703Z" fill="#E6E7E8"/>
<path d="M13 13.9498H32V12.2598H13V13.9498Z" fill="#EC1C24"/>
<path d="M13 15.6392H32V13.9492H13V15.6392Z" fill="#E6E7E8"/>
<path d="M13 15.6406H32V17.3306H13V15.6406Z" fill="#EC1C24"/>
<path d="M0 17.3301V19.0201H32V17.3301H13H0Z" fill="#E6E7E8"/>
<path d="M0 19.0195H32V20.7095H0V19.0195Z" fill="#EC1C24"/>
<path d="M0.0025 21.7504C0.0025 21.7504 -0.002 22.1599 0.01 22.4009H31.99C32.004 22.1539 31.9975 21.7504 31.9975 21.7504L32 20.7109H0L0.0025 21.7504Z" fill="#E6E7E8"/>
<path d="M4.99906 27.4993H26.9991C28.5956 27.4993 29.9226 26.9193 30.8291 25.7793H1.16406C2.10006 26.9443 3.45206 27.4993 4.99656 27.4993" fill="#EC1C24"/>
<path d="M1.16773 25.7798H30.8327C31.2281 25.2773 31.5235 24.7036 31.7027 24.0898H0.302734C0.485678 24.7017 0.77975 25.2746 1.17023 25.7798" fill="#E6E7E8"/>
<path d="M0.299766 24.0904H31.6998C31.8634 23.5406 31.9608 22.9733 31.9898 22.4004H0.00976562C0.0592656 22.9784 0.105266 23.4149 0.299766 24.0904Z" fill="#EC1C24"/>
<path d="M13 5.5H5C1.6865 5.5 0 7.9625 0 11V17.33H13V5.5Z" fill="#176496"/>
<path d="M1.39903 8.48837L1.67103 8.27938L1.94253 8.48837L1.83703 8.15238L2.10753 7.94687H1.77353L1.67003 7.60938L1.56703 7.94687H1.23353L1.50503 8.15238L1.39903 8.48837ZM3.19603 8.48837L3.46803 8.27938L3.73953 8.48837L3.63453 8.15238L3.90453 7.94687H3.57103L3.46753 7.60938L3.36453 7.94687H3.03003L3.30153 8.15238L3.19603 8.48837ZM5.17853 8.48837L5.45003 8.27938L5.72203 8.48837L5.61653 8.15238L5.88653 7.94687H5.55503L5.45003 7.60938L5.34653 7.94687H5.01503L5.28353 8.15238L5.17853 8.48837ZM7.14653 8.48837L7.41803 8.27938L7.69003 8.48837L7.58503 8.15238L7.85503 7.94687H7.52003L7.41803 7.60938L7.31503 7.94687H6.98103L7.25203 8.15238L7.14653 8.48837ZM9.12153 8.48837L9.39353 8.27938L9.66503 8.48837L9.56003 8.15238L9.83053 7.94687H9.49603L9.39303 7.60938L9.29003 7.94687H8.95653L9.22653 8.15238L9.12153 8.48837ZM2.35553 9.36588L2.62703 9.15737L2.89853 9.36588L2.79403 9.03037L3.06403 8.82487H2.73003L2.62653 8.48787L2.52503 8.82487H2.19003L2.46053 9.03037L2.35553 9.36588ZM4.15303 9.36588L4.42453 9.15737L4.69603 9.36588L4.59103 9.03037L4.86103 8.82487H4.52503L4.42453 8.48787L4.32103 8.82487H3.98753L4.25803 9.03037L4.15303 9.36588ZM6.13553 9.36588L6.40653 9.15737L6.67803 9.36588L6.57303 9.03037L6.84353 8.82487H6.51003L6.40653 8.48787L6.30303 8.82487H5.96903L6.23953 9.03037L6.13553 9.36588ZM8.10253 9.36588L8.37453 9.15737L8.64653 9.36588L8.54003 9.03037L8.81103 8.82487H8.47753L8.37403 8.48787L8.27153 8.82487H7.93753L8.20803 9.03037L8.10253 9.36588ZM10.08 9.36588L10.3495 9.15737L10.621 9.36588L10.515 9.03037L10.786 8.82487H10.453L10.349 8.48787L10.2465 8.82487H9.91253L10.183 9.03037L10.08 9.36588ZM11.1935 8.48837L11.465 8.27938L11.737 8.48837L11.6315 8.15238L11.9015 7.94687H11.57L11.4645 7.60938L11.3615 7.94687H11.025L11.2985 8.15238L11.1935 8.48837ZM1.37253 15.5104L1.64453 15.3039L1.91603 15.5104L1.81103 15.1774L2.08103 14.9714L1.74753 14.9724L1.64353 14.6354L1.54153 14.9724L1.20703 14.9714L1.47753 15.1774L1.37253 15.5104ZM3.17003 15.5104L3.44153 15.3039L3.71353 15.5104L3.60803 15.1774L3.87803 14.9714L3.54503 14.9724L3.44103 14.6354L3.33853 14.9724L3.00503 14.9714L3.27503 15.1774L3.17003 15.5104ZM5.15253 15.5104L5.42403 15.3039L5.69603 15.5104L5.59053 15.1774L5.86053 14.9714L5.52503 14.9724L5.42353 14.6354L5.32053 14.9724L4.98703 14.9714L5.25753 15.1774L5.15253 15.5104ZM7.12053 15.5104L7.39203 15.3039L7.66353 15.5104L7.56003 15.1774L7.82853 14.9714L7.49453 14.9724L7.39153 14.6354L7.28853 14.9724L6.95503 14.9714L7.22503 15.1774L7.12053 15.5104ZM9.09503 15.5104L9.36703 15.3039L9.63903 15.5104L9.53503 15.1774L9.80353 14.9714L9.47003 14.9724L9.36653 14.6354L9.26403 14.9724L8.93003 14.9714L9.20003 15.1774L9.09503 15.5104ZM11.167 15.5104L11.4385 15.3039L11.7105 15.5104L11.605 15.1774L11.8755 14.9714L11.54 14.9724L11.438 14.6354L11.335 14.9724L11 14.9714L11.272 15.1774L11.167 15.5104ZM1.39903 10.2444L1.67103 10.0354L1.94253 10.2444L1.83703 9.90837L2.10753 9.70288L1.77353 9.70387L1.67003 9.36588L1.56703 9.70387L1.23353 9.70288L1.50503 9.90837L1.39903 10.2444ZM3.19603 10.2444L3.46803 10.0354L3.73953 10.2444L3.63453 9.90837L3.90453 9.70288L3.57103 9.70387L3.46753 9.36588L3.36453 9.70387L3.03003 9.70288L3.30153 9.90837L3.19603 10.2444ZM5.17853 10.2444L5.45003 10.0354L5.72203 10.2444L5.61653 9.90837L5.88653 9.70288L5.55503 9.70387L5.45003 9.36588L5.34653 9.70387L5.01503 9.70288L5.28353 9.90837L5.17853 10.2444ZM7.14653 10.2444L7.41803 10.0354L7.69003 10.2444L7.58503 9.90837L7.85503 9.70288L7.52003 9.70387L7.41803 9.36588L7.31503 9.70387L6.98103 9.70288L7.25203 9.90837L7.14653 10.2444ZM9.12153 10.2444L9.39353 10.0354L9.66503 10.2444L9.56003 9.90837L9.83053 9.70288L9.49603 9.70387L9.39303 9.36588L9.29003 9.70387L8.95653 9.70288L9.22653 9.90837L9.12153 10.2444ZM2.35553 11.1224L2.62703 10.9139L2.89853 11.1224L2.79403 10.7869L3.06403 10.5804H2.73003L2.62653 10.2444L2.52503 10.5804H2.19003L2.46053 10.7869L2.35553 11.1224ZM4.15303 11.1224L4.42453 10.9139L4.69603 11.1224L4.59103 10.7869L4.86103 10.5804H4.52503L4.42453 10.2444L4.32103 10.5804H3.98753L4.25803 10.7869L4.15303 11.1224ZM6.13553 11.1224L6.40653 10.9139L6.67803 11.1224L6.57303 10.7869L6.84353 10.5804H6.51003L6.40653 10.2444L6.30303 10.5804H5.96903L6.23953 10.7869L6.13553 11.1224ZM8.10253 11.1224L8.37453 10.9139L8.64653 11.1224L8.54003 10.7869L8.81103 10.5804H8.47753L8.37403 10.2444L8.27153 10.5804H7.93753L8.20803 10.7869L8.10253 11.1224ZM10.08 11.1224L10.3495 10.9139L10.621 11.1224L10.515 10.7869L10.786 10.5804H10.453L10.349 10.2444L10.2465 10.5804H9.91253L10.183 10.7869L10.08 11.1224ZM11.1935 10.2444L11.465 10.0354L11.737 10.2444L11.6315 9.90837L11.9015 9.70288L11.57 9.70387L11.4645 9.36588L11.3615 9.70387L11.025 9.70288L11.2985 9.90837L11.1935 10.2444ZM1.37253 12.0004L1.64453 11.7919L1.91603 12.0004L1.81053 11.6654L2.08103 11.4594L1.74703 11.4604L1.64353 11.1224L1.54153 11.4604L1.20703 11.4594L1.47753 11.6654L1.37253 12.0004ZM3.17003 12.0004L3.44153 11.7919L3.71353 12.0004L3.60803 11.6654L3.87803 11.4594L3.54503 11.4604L3.44103 11.1224L3.33853 11.4604L3.00503 11.4594L3.27453 11.6654L3.17003 12.0004ZM5.15253 12.0004L5.42403 11.7919L5.69553 12.0004L5.59053 11.6654L5.86053 11.4594L5.52503 11.4604L5.42353 11.1224L5.32053 11.4604L4.98703 11.4594L5.25753 11.6654L5.15253 12.0004ZM7.12053 12.0004L7.39153 11.7919L7.66353 12.0004L7.56003 11.6654L7.82853 11.4594L7.49453 11.4604L7.39153 11.1224L7.28853 11.4604L6.95503 11.4594L7.22503 11.6654L7.12053 12.0004ZM9.09503 12.0004L9.36703 11.7919L9.63853 12.0004L9.53503 11.6654L9.80353 11.4594L9.46953 11.4604L9.36653 11.1224L9.26403 11.4604L8.93003 11.4594L9.20003 11.6654L9.09503 12.0004ZM2.32903 12.8784L2.60053 12.6704L2.87203 12.8784L2.76753 12.5454L3.03703 12.3384H2.70303L2.60003 12.0004L2.49753 12.3384H2.16353L2.43403 12.5454L2.32903 12.8784ZM4.12653 12.8784L4.39803 12.6704L4.66953 12.8784L4.56453 12.5454L4.83453 12.3384H4.50003L4.39753 12.0004L4.29453 12.3384H3.96053L4.23153 12.5454L4.12653 12.8784ZM6.10953 12.8784L6.38003 12.6704L6.65203 12.8784L6.54503 12.5454L6.81703 12.3384H6.48353L6.38003 12.0004L6.27703 12.3384H5.94303L6.21353 12.5454L6.10953 12.8784ZM8.07503 12.8784L8.34803 12.6704L8.62003 12.8784L8.51503 12.5454L8.78453 12.3384H8.45103L8.34753 12.0004L8.24503 12.3384H7.91103L8.18153 12.5454L8.07503 12.8784ZM10.05 12.8784L10.323 12.6704L10.595 12.8784L10.4895 12.5454L10.7605 12.3384H10.427L10.323 12.0004L10.22 12.3384H9.88603L10.1565 12.5454L10.05 12.8784ZM11.167 12.0004L11.4385 11.7919L11.71 12.0004L11.605 11.6654L11.8755 11.4594L11.54 11.4604L11.438 11.1224L11.335 11.4604L11 11.4594L11.272 11.6654L11.167 12.0004ZM1.37253 13.7569L1.64453 13.5504L1.91603 13.7569L1.81053 13.4214L2.08103 13.2154L1.74703 13.2164L1.64353 12.8784L1.54153 13.2164L1.20703 13.2154L1.47753 13.4214L1.37253 13.7569ZM3.17003 13.7569L3.44153 13.5504L3.71353 13.7569L3.60803 13.4214L3.87803 13.2154L3.54503 13.2164L3.44103 12.8784L3.33853 13.2164L3.00503 13.2154L3.27453 13.4214L3.17003 13.7569ZM5.15253 13.7569L5.42403 13.5504L5.69553 13.7569L5.59053 13.4214L5.86053 13.2154L5.52503 13.2164L5.42353 12.8784L5.32053 13.2164L4.98703 13.2154L5.25753 13.4214L5.15253 13.7569ZM7.12053 13.7569L7.39153 13.5504L7.66353 13.7569L7.56003 13.4214L7.82853 13.2154L7.49453 13.2164L7.39153 12.8784L7.28853 13.2164L6.95503 13.2154L7.22503 13.4214L7.12053 13.7569ZM9.09503 13.7569L9.36703 13.5504L9.63853 13.7569L9.53503 13.4214L9.80353 13.2154L9.46953 13.2164L9.36653 12.8784L9.26403 13.2164L8.93003 13.2154L9.20003 13.4214L9.09503 13.7569ZM2.32903 14.6354L2.60053 14.4264L2.87203 14.6354L2.76753 14.2994L3.03703 14.0954H2.70303L2.60003 13.7569L2.49753 14.0954H2.16353L2.43403 14.2994L2.32903 14.6354ZM4.12653 14.6354L4.39803 14.4264L4.66953 14.6354L4.56453 14.2994L4.83453 14.0954H4.50003L4.39753 13.7569L4.29453 14.0954H3.96053L4.23153 14.2994L4.12653 14.6354ZM6.10953 14.6354L6.38003 14.4264L6.65203 14.6354L6.54503 14.2994L6.81703 14.0954H6.48353L6.38003 13.7569L6.27703 14.0954H5.94303L6.21353 14.2994L6.10953 14.6354ZM8.07503 14.6354L8.34803 14.4264L8.62003 14.6354L8.51503 14.2994L8.78453 14.0954H8.45103L8.34753 13.7569L8.24503 14.0954H7.91103L8.18153 14.2994L8.07503 14.6354ZM10.05 14.6354L10.323 14.4264L10.595 14.6354L10.4895 14.2994L10.7605 14.0954H10.427L10.323 13.7569L10.22 14.0954H9.88603L10.1565 14.2994L10.05 14.6354ZM11.167 13.7569L11.4385 13.5504L11.71 13.7569L11.605 13.4214L11.8755 13.2154L11.54 13.2164L11.438 12.8784L11.335 13.2164L11 13.2154L11.272 13.4214L11.167 13.7569Z" fill="white"/>
</svg>
