<svg width="48" height="48" viewBox="0 0 48 48" fill="none" xmlns="http://www.w3.org/2000/svg">
<rect width="48" height="48" rx="24" fill="#F0ECFF"/>
<g clip-path="url(#clip0_16476_19350)">
<path d="M10.668 37.334C10.668 31.4429 15.4436 26.6673 21.3346 26.6673C27.2257 26.6673 32.0013 31.4429 32.0013 37.334H10.668ZM21.3346 25.334C16.9146 25.334 13.3346 21.754 13.3346 17.334C13.3346 12.914 16.9146 9.33398 21.3346 9.33398C25.7546 9.33398 29.3346 12.914 29.3346 17.334C29.3346 21.754 25.7546 25.334 21.3346 25.334ZM34.668 30.6673H40.0013V33.334H34.668V30.6673ZM30.668 24.0007H40.0013V26.6673H30.668V24.0007ZM33.3346 17.334H40.0013V20.0007H33.3346V17.334Z" fill="#6444F4"/>
</g>
<defs>
<clipPath id="clip0_16476_19350">
<rect width="32" height="32" fill="white" transform="translate(8 8)"/>
</clipPath>
</defs>
</svg>
