<svg width="48" height="48" viewBox="0 0 48 48" fill="none" xmlns="http://www.w3.org/2000/svg">
<rect width="48" height="48" rx="24" fill="#F0ECFF"/>
<path d="M14.2845 20.1702L13.9558 20.9244C13.7152 21.4766 12.9514 21.4766 12.7108 20.9244L12.3821 20.1702C11.7961 18.8253 10.7406 17.7546 9.42356 17.1688L8.41073 16.7183C7.86309 16.4747 7.86309 15.6778 8.41073 15.4342L9.36693 15.0089C10.7178 14.408 11.7922 13.2977 12.3682 11.9071L12.7058 11.0921C12.941 10.524 13.7256 10.524 13.9608 11.0921L14.2984 11.9071C14.8744 13.2977 15.9488 14.408 17.2997 15.0089L18.2558 15.4342C18.8036 15.6778 18.8036 16.4747 18.2558 16.7183L17.243 17.1688C15.926 17.7546 14.8705 18.8253 14.2845 20.1702ZM21.3333 15.9993C21.3333 20.4176 17.7516 23.9993 13.3333 23.9993C11.8762 23.9993 10.51 23.6097 9.33333 22.9291V33.3327C9.33333 34.0691 9.93029 34.666 10.6667 34.666H29.3333C30.0697 34.666 30.6667 34.0691 30.6667 33.3327V27.7327L37.6177 32.5984C37.7297 32.6768 37.8632 32.7189 38 32.7189C38.3681 32.7189 38.6667 32.4204 38.6667 32.0523V15.9465C38.6667 15.8097 38.6245 15.6762 38.5461 15.5641C38.3351 15.2625 37.9193 15.1891 37.6177 15.4003L30.6667 20.266V14.666C30.6667 13.9296 30.0697 13.3327 29.3333 13.3327H20.8781C21.1729 14.1668 21.3333 15.0643 21.3333 15.9993Z" fill="#6444F4"/>
</svg>
